<svg width="93" height="93" viewBox="0 0 93 93" fill="none" xmlns="http://www.w3.org/2000/svg">
<circle cx="46.5" cy="46.5" r="46.5" fill="#F45730"/>
<path d="M41.4398 43.5792V49.4429C41.4398 51.7502 41.1671 53.7562 40.6218 55.4609C40.0912 57.1657 39.3248 58.5765 38.3225 59.6934C37.335 60.8103 36.1559 61.6406 34.7852 62.1844C33.4145 62.7281 31.9038 63 30.2531 63C28.9266 63 27.6885 62.831 26.5389 62.493C25.3893 62.1403 24.3502 61.6112 23.4216 60.9058C22.5078 60.1857 21.7193 59.2892 21.0561 58.2164C20.3928 57.1436 19.8843 55.8798 19.5306 54.4249C19.1769 52.9552 19 51.2946 19 49.4429V43.5792C19 41.2572 19.2653 39.2512 19.7959 37.5611C20.3412 35.8564 21.115 34.4456 22.1173 33.3287C23.1195 32.2118 24.306 31.3814 25.6767 30.8377C27.0474 30.2939 28.5581 30.022 30.2088 30.022C31.5353 30.022 32.766 30.1984 33.9009 30.5511C35.0505 30.8891 36.0896 31.4182 37.0182 32.1383C37.9467 32.8437 38.7352 33.7328 39.3837 34.8056C40.047 35.8784 40.5555 37.1496 40.9092 38.6192C41.2629 40.0741 41.4398 41.7275 41.4398 43.5792ZM33.9893 50.3467V42.6313C33.9893 41.6025 33.9304 40.7061 33.8125 39.9419C33.7093 39.1777 33.5472 38.5311 33.3261 38.002C33.1198 37.4729 32.8618 37.0468 32.5523 36.7234C32.2428 36.3854 31.8891 36.143 31.4911 35.996C31.1079 35.8343 30.6805 35.7535 30.2088 35.7535C29.6193 35.7535 29.0887 35.8784 28.6171 36.1283C28.1602 36.3634 27.7696 36.7455 27.4453 37.2745C27.1211 37.8036 26.8705 38.509 26.6936 39.3908C26.5315 40.2725 26.4505 41.3527 26.4505 42.6313V50.3467C26.4505 51.3901 26.502 52.3013 26.6052 53.0802C26.7231 53.8444 26.8852 54.4983 27.0916 55.0421C27.3127 55.5711 27.578 56.0047 27.8875 56.3427C28.197 56.666 28.5507 56.9011 28.9487 57.0481C29.3466 57.1951 29.7814 57.2685 30.2531 57.2685C30.8279 57.2685 31.3437 57.151 31.8006 56.9158C32.2575 56.6807 32.6481 56.2986 32.9724 55.7695C33.3114 55.2258 33.5619 54.513 33.724 53.6313C33.9009 52.7348 33.9893 51.6399 33.9893 50.3467Z" fill="white"/>
<path d="M45.375 38.3327V36.6353C45.375 35.4155 45.6403 34.3059 46.1709 33.3066C46.7015 32.3073 47.4974 31.5063 48.5586 30.9038C49.6198 30.3013 50.9389 30 52.516 30C54.1373 30 55.4785 30.3013 56.5397 30.9038C57.6009 31.5063 58.3894 32.3073 58.9053 33.3066C59.4358 34.3059 59.7011 35.4155 59.7011 36.6353V38.3327C59.7011 39.523 59.4358 40.6179 58.9053 41.6172C58.3894 42.6166 57.6009 43.4175 56.5397 44.02C55.4932 44.6226 54.1741 44.9238 52.5823 44.9238C50.9758 44.9238 49.6419 44.6226 48.5807 44.02C47.5195 43.4175 46.7163 42.6166 46.1709 41.6172C45.6403 40.6179 45.375 39.523 45.375 38.3327ZM50.1504 36.6353V38.3327C50.1504 38.7735 50.2388 39.1924 50.4157 39.5892C50.5926 39.986 50.8579 40.3093 51.2116 40.5591C51.5801 40.7943 52.0296 40.9118 52.5602 40.9118C53.1055 40.9118 53.5477 40.7943 53.8867 40.5591C54.2257 40.3093 54.4762 39.986 54.6384 39.5892C54.8152 39.1924 54.9037 38.7735 54.9037 38.3327V36.6353C54.9037 36.165 54.8152 35.7315 54.6384 35.3347C54.4762 34.9379 54.2183 34.6219 53.8646 34.3868C53.5109 34.1369 53.0613 34.012 52.516 34.012C52.0001 34.012 51.5653 34.1369 51.2116 34.3868C50.8579 34.6219 50.5926 34.9379 50.4157 35.3347C50.2388 35.7315 50.1504 36.165 50.1504 36.6353ZM60.6518 56.3868V54.6894C60.6518 53.4843 60.9171 52.3821 61.4477 51.3828C61.993 50.3834 62.7963 49.5825 63.8575 48.98C64.9334 48.3774 66.2599 48.0762 67.837 48.0762C69.4582 48.0762 70.7921 48.3774 71.8385 48.98C72.8997 49.5825 73.6882 50.3834 74.2041 51.3828C74.7347 52.3821 75 53.4843 75 54.6894V56.3868C75 57.5919 74.7347 58.6941 74.2041 59.6934C73.6882 60.6927 72.9071 61.4937 71.8606 62.0962C70.8142 62.6987 69.4951 63 67.9033 63C66.2968 63 64.9555 62.6987 63.8796 62.0962C62.8037 61.4937 61.993 60.6927 61.4477 59.6934C60.9171 58.6941 60.6518 57.5919 60.6518 56.3868ZM65.4493 54.6894V56.3868C65.4493 56.8424 65.5598 57.2685 65.7809 57.6653C66.002 58.0621 66.2967 58.3854 66.6652 58.6353C67.0337 58.8704 67.439 58.988 67.8812 58.988C68.5592 58.988 69.0603 58.8704 69.3845 58.6353C69.7235 58.3854 69.9446 58.0621 70.0478 57.6653C70.1657 57.2685 70.2246 56.8424 70.2246 56.3868V54.6894C70.2246 54.2338 70.1362 53.8076 69.9593 53.4108C69.7825 53.014 69.5172 52.6981 69.1634 52.4629C68.8097 52.2131 68.3675 52.0882 67.837 52.0882C67.3064 52.0882 66.8642 52.2131 66.5105 52.4629C66.1567 52.6981 65.8914 53.014 65.7146 53.4108C65.5377 53.8076 65.4493 54.2338 65.4493 54.6894ZM69.694 35.0701L53.9751 60.1563L50.5041 58.4148L66.2231 33.3287L69.694 35.0701Z" fill="white"/>
</svg>
