<svg width="40" height="40" viewBox="0 0 40 40" fill="none" xmlns="http://www.w3.org/2000/svg">
<path d="M28.6343 32.2473L25.0898 30.1474" stroke="#03AA79" stroke-miterlimit="10" stroke-linecap="round" stroke-linejoin="round"/>
<path d="M26.429 33.8387L23.8174 32.2915" stroke="#03AA79" stroke-miterlimit="10" stroke-linecap="round" stroke-linejoin="round"/>
<path d="M23.7558 35.1532L22.7324 34.547" stroke="#03AA79" stroke-miterlimit="10" stroke-linecap="round" stroke-linejoin="round"/>
<path d="M8.30957 12.2179H25.5519" stroke="#03AA79" stroke-miterlimit="10" stroke-linecap="round" stroke-linejoin="round"/>
<path d="M8.30957 8.54382H16.9308" stroke="#03AA79" stroke-miterlimit="10" stroke-linecap="round" stroke-linejoin="round"/>
<path d="M8.30957 15.4734H25.5519" stroke="#03AA79" stroke-miterlimit="10" stroke-linecap="round" stroke-linejoin="round"/>
<mask id="mask0_0_172" style="mask-type:luminance" maskUnits="userSpaceOnUse" x="2" y="2" width="36" height="37">
<path d="M37.5001 37.5001V2.5H2.5V37.5001H37.5001Z" fill="white" stroke="white"/>
</mask>
<g mask="url(#mask0_0_172)">
<path d="M23.2988 2.67557V6.3717C23.2988 7.57145 24.2714 8.54395 25.4711 8.54395H29.1672" stroke="#03AA79" stroke-miterlimit="10" stroke-linecap="round" stroke-linejoin="round"/>
<path d="M29.315 18.2453V9.22562C29.315 8.78919 29.1416 8.37062 28.8331 8.06202L23.7804 3.00934C23.4718 2.70074 23.0532 2.52737 22.6168 2.52735H6.72002C5.52042 2.52735 4.54785 3.49984 4.54785 4.69959V32.6801C4.54785 33.8798 5.52042 34.8523 6.72002 34.8523H12.238" stroke="#03AA79" stroke-miterlimit="10" stroke-linecap="round" stroke-linejoin="round"/>
<path d="M15.2005 21.0473L14.109 20.4006C13.9648 20.3152 13.7926 20.2905 13.6302 20.3321C13.4678 20.3736 13.3285 20.478 13.2431 20.6222L8.75525 28.1975C8.66981 28.3417 8.64517 28.5139 8.68673 28.6763C8.72829 28.8387 8.83266 28.9779 8.97687 29.0634L10.0685 29.71C10.8006 30.1438 11.7458 29.9019 12.1796 29.1698L15.7409 23.1584C16.1746 22.4262 15.9328 21.4811 15.2005 21.0473Z" stroke="#03AA79" stroke-miterlimit="10" stroke-linecap="round" stroke-linejoin="round"/>
<path d="M30.2707 26.3523L31.9397 29.1698C32.3736 29.9019 33.3188 30.1439 34.051 29.7101L35.1426 29.0635C35.214 29.0212 35.2763 28.9652 35.3261 28.8988C35.3759 28.8324 35.4121 28.7568 35.4327 28.6764C35.4533 28.596 35.4578 28.5123 35.446 28.4302C35.4343 28.348 35.4064 28.269 35.3641 28.1976L30.8763 20.6223C30.834 20.5509 30.778 20.4885 30.7116 20.4387C30.6452 20.3889 30.5697 20.3527 30.4893 20.3321C30.4089 20.3116 30.3252 20.307 30.243 20.3188C30.1609 20.3305 30.0818 20.3583 30.0104 20.4006L28.9188 21.0474C28.1867 21.4811 27.9447 22.4263 28.3785 23.1585L29.0081 24.2212" stroke="#03AA79" stroke-miterlimit="10" stroke-linecap="round" stroke-linejoin="round"/>
<path d="M22.0049 23.546L21.8248 23.4394C20.7894 22.8452 20.3051 22.7354 19.371 23.0965L18.3528 23.4901C18.047 23.6083 17.7184 23.6556 17.3916 23.6285C17.0649 23.6013 16.7486 23.5004 16.4665 23.3333L15.8369 22.962" stroke="#03AA79" stroke-miterlimit="10" stroke-linecap="round" stroke-linejoin="round"/>
<path d="M11.9365 29.4786L12.9916 30.1013" stroke="#03AA79" stroke-miterlimit="10" stroke-linecap="round" stroke-linejoin="round"/>
<path d="M20.7959 36.2979L22.485 37.2986C23.0774 37.6496 23.8421 37.4538 24.1931 36.8615C24.5441 36.2691 24.3482 35.5043 23.7559 35.1534L25.158 35.984C25.7504 36.335 26.5151 36.1393 26.8661 35.5469C27.217 34.9546 27.0212 34.1899 26.4289 33.8389L27.3636 34.3926C27.956 34.7436 28.7207 34.5478 29.0716 33.9555C29.4226 33.3631 29.2268 32.5984 28.6344 32.2475L29.7784 32.9251C30.3707 33.276 31.1354 33.0803 31.4862 32.488C31.8372 31.8957 31.6415 31.1311 31.0492 30.7801" stroke="#03AA79" stroke-miterlimit="10" stroke-linecap="round" stroke-linejoin="round"/>
<path d="M28.4314 23.248L28.2846 23.3333C28.0026 23.5004 27.6862 23.6014 27.3595 23.6286C27.0327 23.6557 26.7041 23.6084 26.3983 23.4902L25.2501 23.0391C24.891 22.898 24.4966 22.8731 24.1226 22.9678L22.3633 23.413C21.5444 23.6202 20.9707 24.3572 20.9707 25.202V27.5503C20.9707 27.8824 21.2398 28.1525 21.5718 28.1527C22.5731 28.1533 23.385 27.3419 23.385 26.3407V26.2413L30.9153 30.7006C31.055 30.5517 31.2151 30.4234 31.3907 30.3193L32.4576 29.6959" stroke="#03AA79" stroke-miterlimit="10" stroke-linecap="round" stroke-linejoin="round"/>
<path d="M14.1836 32.6862C13.7822 33.2453 13.0035 33.3732 12.4444 32.9718C11.8853 32.5704 11.7574 31.7916 12.1588 31.2325L12.8647 30.2491C13.2662 29.69 14.0448 29.562 14.604 29.9635C15.1632 30.3649 15.2911 31.1437 14.8896 31.7028" stroke="#03AA79" stroke-miterlimit="10" stroke-linecap="round" stroke-linejoin="round"/>
<path d="M17.6942 32.0713L16.209 34.1399C15.8076 34.6991 15.0289 34.8269 14.4698 34.4255C13.9106 34.0241 13.7828 33.2454 14.1842 32.6862L15.6693 30.6176C16.0707 30.0584 16.8494 29.9306 17.4086 30.332C17.9678 30.7334 18.0956 31.5121 17.6942 32.0713Z" stroke="#03AA79" stroke-miterlimit="10" stroke-linecap="round" stroke-linejoin="round"/>
<path d="M17.6937 32.0712C18.0952 31.5121 18.8738 31.3842 19.4329 31.7856C19.9921 32.187 20.12 32.9658 19.7186 33.5249L18.2335 35.5936C17.8321 36.1527 17.0534 36.2805 16.4941 35.8791C15.935 35.4777 15.8072 34.699 16.2086 34.1399" stroke="#03AA79" stroke-miterlimit="10" stroke-linecap="round" stroke-linejoin="round"/>
<path d="M19.0589 34.4441C19.4603 33.885 20.239 33.7571 20.7981 34.1585C21.3572 34.5599 21.4852 35.3386 21.0837 35.8978L20.5898 36.5857C20.1884 37.1448 19.4098 37.2727 18.8506 36.8713C18.2915 36.4699 18.1636 35.6911 18.565 35.132" stroke="#03AA79" stroke-miterlimit="10" stroke-linecap="round" stroke-linejoin="round"/>
</g>
</svg>
