<svg width="40" height="40" viewBox="0 0 40 40" fill="none" xmlns="http://www.w3.org/2000/svg">
<path d="M38.242 16.9921C37.4782 16.9921 36.827 17.482 36.585 18.164H33.2421V17.4804C33.2421 17.325 33.1803 17.176 33.0704 17.0661C32.9606 16.9562 32.8115 16.8945 32.6561 16.8945C32.5007 16.8945 32.3517 16.9562 32.2418 17.0661C32.1319 17.176 32.0702 17.325 32.0702 17.4804V20.3369C32.0702 23.2589 31.0905 26.0103 29.3117 28.084C26.8273 30.9792 23.695 33.1807 19.9999 34.6288C16.6964 33.3343 13.8342 31.4314 11.4917 28.9727C11.4386 28.917 11.3751 28.8722 11.3048 28.8411C11.2344 28.8099 11.1586 28.7929 11.0817 28.791C11.0048 28.7891 10.9282 28.8024 10.8564 28.83C10.7846 28.8577 10.719 28.8993 10.6633 28.9524C10.6075 29.0054 10.5628 29.0689 10.5316 29.1393C10.5004 29.2096 10.4834 29.2854 10.4815 29.3623C10.4796 29.4393 10.4929 29.5158 10.5206 29.5876C10.5483 29.6594 10.5899 29.725 10.6429 29.7808C11.4506 30.6277 12.3194 31.4143 13.2421 32.1343V36.5853C12.5603 36.827 12.0703 37.4782 12.0703 38.2423C12.0703 39.2116 12.8589 40.0001 13.8281 40.0001C14.7973 40.0001 15.5859 39.2116 15.5859 38.2423C15.5859 37.4785 15.096 36.827 14.414 36.5853V32.9928C16.0223 34.0993 17.7788 35.0256 19.6734 35.7595C19.8833 35.8408 20.1161 35.8408 20.3261 35.7595C24.2455 34.2415 27.5679 31.9161 30.2013 28.847C31.4196 27.4269 32.2972 25.7223 32.788 23.8671H34.7685C35.0106 24.5491 35.6618 25.039 36.4256 25.039C37.3949 25.039 38.1834 24.2504 38.1834 23.2812C38.1834 22.312 37.3949 21.5234 36.4256 21.5234C35.6618 21.5234 35.0106 22.0134 34.7686 22.6952H33.0428C33.1759 21.9161 33.2425 21.1272 33.2421 20.3368V19.3359H36.585C36.827 20.0179 37.4782 20.5077 38.242 20.5077C39.2113 20.5077 39.9998 19.7191 39.9998 18.7499C39.9998 17.7807 39.2113 16.9921 38.242 16.9921ZM13.8281 38.828C13.5049 38.828 13.2421 38.5653 13.2421 38.2421C13.2421 37.9188 13.5049 37.6561 13.8281 37.6561C14.1513 37.6561 14.414 37.9188 14.414 38.2421C14.414 38.5653 14.1513 38.828 13.8281 38.828ZM36.4256 22.6952C36.7488 22.6952 37.0116 22.958 37.0116 23.2812C37.0116 23.6044 36.7488 23.8671 36.4256 23.8671C36.1024 23.8671 35.8397 23.6044 35.8397 23.2812C35.8397 22.958 36.1024 22.6952 36.4256 22.6952ZM38.242 19.3359C37.9188 19.3359 37.6561 19.0731 37.6561 18.7499C37.6561 18.4267 37.9188 18.164 38.242 18.164C38.5652 18.164 38.828 18.4267 38.828 18.7499C38.828 19.0731 38.5652 19.3359 38.242 19.3359ZM7.92966 20.3369V9.6777C10.079 9.16958 12.312 8.22263 14.5709 6.8606C17.9195 4.84186 22.0802 4.84186 25.429 6.8606C26.4342 7.46638 27.434 7.98981 28.4236 8.42927C28.4346 8.43442 28.4456 8.43958 28.4572 8.44388C29.6804 8.98497 30.8879 9.39817 32.0702 9.6777V14.9738C32.0702 15.2975 32.3323 15.5597 32.6561 15.5597C32.9799 15.5597 33.2421 15.2975 33.2421 14.9738V9.46247C33.2421 9.04348 32.9534 8.67513 32.5553 8.58669C31.4794 8.34739 30.3771 7.98786 29.2577 7.51364V3.41483C29.9397 3.1728 30.4296 2.52155 30.4296 1.75773C30.4296 0.788591 29.641 0 28.6718 0C27.7025 0 26.914 0.788591 26.914 1.75781C26.914 2.52163 27.404 3.17288 28.0858 3.41483V6.97872C27.4068 6.64576 26.7223 6.27193 26.0341 5.85724C22.3123 3.61327 17.6876 3.6135 13.966 5.85724C11.7346 7.20216 9.54035 8.12067 7.44442 8.58669C7.04646 8.6752 6.75779 9.04356 6.75779 9.46254V13.0078H3.41483C3.17288 12.3257 2.52163 11.8359 1.75781 11.8359C0.788591 11.8359 0 12.6245 0 13.5937C0 14.5629 0.788591 15.3515 1.75781 15.3515C2.52163 15.3515 3.17288 14.8617 3.41483 14.1796H6.75779V17.539H5.23123C4.98928 16.857 4.33803 16.3671 3.5742 16.3671C2.60499 16.3671 1.8164 17.1557 1.8164 18.1249C1.8164 19.0942 2.60499 19.8827 3.5742 19.8827C4.33803 19.8827 4.98928 19.3929 5.23123 18.7109H6.75779V20.3369C6.75779 23.1451 7.56895 25.779 9.10309 27.9537C9.15723 28.0305 9.22905 28.0931 9.31249 28.1363C9.39592 28.1795 9.48852 28.2019 9.58246 28.2018C9.70325 28.2018 9.82109 28.1645 9.91973 28.0947C10.1839 27.9079 10.2471 27.5423 10.0607 27.278C8.66668 25.302 7.92966 22.9019 7.92966 20.3369ZM28.6718 1.17187C28.995 1.17187 29.2577 1.4346 29.2577 1.75781C29.2577 2.08101 28.995 2.34374 28.6718 2.34374C28.3486 2.34374 28.0858 2.08101 28.0858 1.75781C28.0858 1.4346 28.3486 1.17187 28.6718 1.17187ZM1.75781 14.1796C1.4346 14.1796 1.17187 13.9169 1.17187 13.5937C1.17187 13.2705 1.4346 13.0078 1.75781 13.0078C2.08101 13.0078 2.34374 13.2705 2.34374 13.5937C2.34374 13.9169 2.08101 14.1796 1.75781 14.1796ZM3.5742 18.7109C3.251 18.7109 2.98827 18.4481 2.98827 18.1249C2.98827 17.8017 3.251 17.539 3.5742 17.539C3.89741 17.539 4.16014 17.8017 4.16014 18.1249C4.16014 18.4481 3.89741 18.7109 3.5742 18.7109Z" fill="#03AA79"/>
<path d="M13.554 10.09C13.6933 10.0211 13.7995 9.89969 13.8493 9.7525C13.8991 9.60531 13.8884 9.44438 13.8196 9.30507C13.7506 9.16578 13.6292 9.05957 13.4819 9.00979C13.3347 8.96001 13.1737 8.97073 13.0344 9.0396C11.9256 9.58804 10.8123 10.043 9.72594 10.3922C9.5445 10.4498 9.38616 10.5638 9.27388 10.7176C9.16161 10.8713 9.10125 11.0569 9.10156 11.2472V20.3368C9.10156 22.9794 9.98078 25.4595 11.5772 27.3205C13.7625 29.8675 16.4868 31.8548 19.6746 33.228C19.7778 33.2726 19.8889 33.2949 20 33.2949C20.1111 33.2949 20.2221 33.2726 20.3256 33.228C23.5131 31.8551 26.2371 29.8678 28.4222 27.321C30.0188 25.4595 30.8984 22.9794 30.8984 20.3369V11.2472C30.8984 10.8556 30.6476 10.512 30.274 10.3921C28.4887 9.81866 26.6552 8.96812 24.8242 7.86429C23.3681 6.98671 21.7001 6.5231 20 6.52344C18.2992 6.52344 16.6311 6.98703 15.1758 7.86437L15.0512 7.93914C14.9177 8.01875 14.8213 8.14813 14.7832 8.29881C14.7451 8.4495 14.7684 8.60915 14.848 8.74265C14.8874 8.80873 14.9394 8.86641 15.0011 8.91239C15.0628 8.95837 15.1329 8.99175 15.2075 9.01063C15.2821 9.02951 15.3596 9.03351 15.4358 9.02241C15.5119 9.01131 15.5851 8.98532 15.6511 8.94593C15.6946 8.91999 15.7379 8.89405 15.7809 8.86812C17.0544 8.10065 18.5131 7.69516 20 7.69531C21.4877 7.69531 22.9467 8.10085 24.2193 8.86812C26.0635 9.97983 27.9152 10.8465 29.7265 11.4462V20.3366C29.7265 22.6995 28.9473 24.909 27.5329 26.5578C25.4964 28.9312 22.9626 30.7925 20 32.0915C17.037 30.7922 14.5031 28.9309 12.4667 26.5575C11.0523 24.9087 10.2734 22.6995 10.2734 20.3366V11.4462C11.3547 11.0883 12.4573 10.6323 13.554 10.09Z" fill="#03AA79"/>
<path d="M20 13.7109C18.3847 13.7109 17.0703 15.025 17.0703 16.6406V17.6172H16.875C16.1213 17.6172 15.5078 18.2306 15.5078 18.9844V23.6719C15.5078 24.4256 16.1213 25.0391 16.875 25.0391H23.125C23.8787 25.0391 24.4922 24.4256 24.4922 23.6719V18.9844C24.4922 18.2306 23.8787 17.6172 23.125 17.6172H22.9297V16.6406C22.9297 15.025 21.6156 13.7109 20 13.7109ZM18.2422 16.6406C18.2422 15.6714 19.0308 14.8828 20 14.8828C20.9692 14.8828 21.7578 15.6714 21.7578 16.6406V17.6172H18.2422V16.6406ZM23.3203 18.9844V23.6719C23.3203 23.7796 23.2327 23.8672 23.125 23.8672H16.875C16.8232 23.8671 16.7736 23.8466 16.7369 23.8099C16.7003 23.7733 16.6797 23.7237 16.6797 23.6719V18.9844C16.6797 18.8766 16.7673 18.7891 16.875 18.7891H23.125C23.2327 18.7891 23.3203 18.8766 23.3203 18.9844Z" fill="#03AA79"/>
<path d="M20 18.9843C19.0308 18.9843 18.2422 19.7728 18.2422 20.7421C18.2422 21.5059 18.7323 22.1571 19.4141 22.3991V23.0858C19.4141 23.2412 19.4758 23.3903 19.5857 23.5001C19.6956 23.61 19.8446 23.6718 20 23.6718C20.1554 23.6718 20.3044 23.61 20.4143 23.5001C20.5242 23.3903 20.5859 23.2412 20.5859 23.0858V22.3991C21.268 22.1571 21.7578 21.5059 21.7578 20.7421C21.7578 19.7728 20.9692 18.9843 20 18.9843ZM20 21.328C19.6768 21.328 19.4141 21.0653 19.4141 20.7421C19.4141 20.4189 19.6768 20.1561 20 20.1561C20.3232 20.1561 20.5859 20.4189 20.5859 20.7421C20.5859 21.0653 20.3232 21.328 20 21.328Z" fill="#03AA79"/>
</svg>
