<svg width="40" height="40" viewBox="0 0 40 40" fill="none" xmlns="http://www.w3.org/2000/svg">
<path d="M4.58366 5.83335C4.47315 5.83335 4.36717 5.78946 4.28903 5.71131C4.21089 5.63317 4.16699 5.52719 4.16699 5.41669C4.16699 4.72752 4.72783 4.16669 5.41699 4.16669H10.452C10.5625 4.16669 10.6685 4.21059 10.7466 4.28873C10.8248 4.36687 10.8687 4.47285 10.8687 4.58335C10.8687 4.69386 10.8248 4.79984 10.7466 4.87798C10.6685 4.95612 10.5625 5.00002 10.452 5.00002H5.41699C5.18699 5.00002 5.00033 5.18669 5.00033 5.41669C5.00033 5.64669 4.81366 5.83335 4.58366 5.83335ZM32.0837 18.3334C31.9732 18.3334 31.8672 18.2895 31.789 18.2113C31.7109 18.1332 31.667 18.0272 31.667 17.9167V5.41669C31.667 5.30618 31.6231 5.2002 31.545 5.12206C31.4668 5.04392 31.3608 5.00002 31.2503 5.00002H26.2853C26.1748 5.00002 26.0688 4.95612 25.9907 4.87798C25.9126 4.79984 25.8687 4.69386 25.8687 4.58335C25.8687 4.47285 25.9126 4.36687 25.9907 4.28873C26.0688 4.21059 26.1748 4.16669 26.2853 4.16669H31.2503C31.9395 4.16669 32.5003 4.72752 32.5003 5.41669V17.9167C32.5003 18.0272 32.4564 18.1332 32.3783 18.2113C32.3001 18.2895 32.1942 18.3334 32.0837 18.3334Z" fill="#03AA79"/>
<path d="M21.6145 37.5H5.41699C4.72783 37.5 4.16699 36.9392 4.16699 36.25V5.41667C4.16699 5.30616 4.21089 5.20018 4.28903 5.12204C4.36717 5.0439 4.47315 5 4.58366 5C4.69417 5 4.80015 5.0439 4.87829 5.12204C4.95643 5.20018 5.00033 5.30616 5.00033 5.41667V36.25C5.00033 36.3605 5.04422 36.4665 5.12236 36.5446C5.2005 36.6228 5.30649 36.6667 5.41699 36.6667H21.6145C21.725 36.6667 21.831 36.7106 21.9091 36.7887C21.9873 36.8668 22.0312 36.9728 22.0312 37.0833C22.0312 37.1938 21.9873 37.2998 21.9091 37.378C21.831 37.4561 21.725 37.5 21.6145 37.5Z" fill="#03AA79"/>
<path d="M19.0387 35H7.50033C7.04116 35 6.66699 34.6259 6.66699 34.1667V6.66671C6.66699 6.20754 7.04116 5.83337 7.50033 5.83337H29.167C29.6262 5.83337 30.0003 6.20754 30.0003 6.66671V17.0834C30.0003 17.1939 29.9564 17.2999 29.8783 17.378C29.8001 17.4561 29.6942 17.5 29.5837 17.5C29.4732 17.5 29.3672 17.4561 29.289 17.378C29.2109 17.2999 29.167 17.1939 29.167 17.0834V6.66671H7.50033V34.1667H19.0387C19.1492 34.1667 19.2551 34.2106 19.3333 34.2887C19.4114 34.3669 19.4553 34.4729 19.4553 34.5834C19.4553 34.6939 19.4114 34.7999 19.3333 34.878C19.2551 34.9561 19.1492 35 19.0387 35Z" fill="#03AA79"/>
<path d="M24.1798 8.33335H12.5131C12.054 8.33335 11.6798 7.95919 11.6798 7.50002V4.16669C11.6798 3.70752 12.054 3.33335 12.5131 3.33335H15.7215C16.2015 2.32585 17.2215 1.66669 18.3465 1.66669C19.4715 1.66669 20.4915 2.32585 20.9715 3.33335H24.1798C24.639 3.33335 25.0131 3.70752 25.0131 4.16669V7.50002C25.0131 7.95919 24.639 8.33335 24.1798 8.33335ZM12.5131 4.16669V7.50002H24.1798V4.16669H20.6931C20.6071 4.16664 20.5231 4.13993 20.4528 4.09024C20.3826 4.04055 20.3294 3.97032 20.3006 3.88919C20.0048 3.05835 19.2198 2.50002 18.3465 2.50002C17.4731 2.50002 16.6881 3.05835 16.3923 3.88919C16.3636 3.97032 16.3104 4.04055 16.2401 4.09024C16.1698 4.13993 16.0859 4.16664 15.9998 4.16669H12.5131ZM11.4848 18.3075C11.3003 18.3082 11.123 18.236 10.9915 18.1067L10.0898 17.2184C10.0498 17.1802 10.0179 17.1344 9.99575 17.0838C9.97363 17.0331 9.96181 16.9786 9.96098 16.9233C9.96015 16.868 9.97033 16.8131 9.99092 16.7619C10.0115 16.7106 10.0421 16.6639 10.0809 16.6245C10.1197 16.5851 10.166 16.5539 10.217 16.5326C10.268 16.5113 10.3227 16.5003 10.378 16.5004C10.4332 16.5004 10.488 16.5115 10.5389 16.5329C10.5899 16.5543 10.6361 16.5856 10.6748 16.625L11.484 17.4234L13.4231 15.5117C13.4619 15.4723 13.5081 15.4409 13.559 15.4195C13.61 15.3981 13.6647 15.3871 13.72 15.387C13.7753 15.387 13.83 15.3979 13.881 15.4193C13.932 15.4406 13.9783 15.4718 14.0171 15.5112C14.0559 15.5505 14.0865 15.5972 14.107 15.6485C14.1276 15.6998 14.1378 15.7547 14.137 15.81C14.1361 15.8652 14.1243 15.9198 14.1022 15.9704C14.0801 16.0211 14.0481 16.0668 14.0081 16.105L11.979 18.1059C11.8472 18.2354 11.6696 18.3078 11.4848 18.3075ZM11.4848 13.3075C11.3003 13.3082 11.123 13.236 10.9915 13.1067L10.0898 12.2184C10.0498 12.1802 10.0179 12.1344 9.99575 12.0838C9.97363 12.0331 9.96181 11.9786 9.96098 11.9233C9.96015 11.868 9.97033 11.8131 9.99092 11.7619C10.0115 11.7106 10.0421 11.6639 10.0809 11.6245C10.1197 11.5851 10.166 11.5539 10.217 11.5326C10.268 11.5113 10.3227 11.5003 10.378 11.5004C10.4332 11.5004 10.488 11.5115 10.5389 11.5329C10.5899 11.5543 10.6361 11.5856 10.6748 11.625L11.484 12.4234L13.4231 10.5117C13.4619 10.4723 13.5081 10.4409 13.559 10.4195C13.61 10.3981 13.6647 10.3871 13.72 10.387C13.7753 10.387 13.83 10.3979 13.881 10.4193C13.932 10.4406 13.9783 10.4718 14.0171 10.5112C14.0559 10.5505 14.0865 10.5972 14.107 10.6485C14.1276 10.6998 14.1378 10.7547 14.137 10.81C14.1361 10.8652 14.1243 10.9198 14.1022 10.9704C14.0801 11.0211 14.0481 11.0668 14.0081 11.105L11.979 13.1059C11.8472 13.2354 11.6696 13.3078 11.4848 13.3075ZM12.9173 30.8334H10.4173C10.3068 30.8334 10.2008 30.7895 10.1227 30.7113C10.0445 30.6332 10.0006 30.5272 10.0006 30.4167V27.9167C10.0006 27.8062 10.0445 27.7002 10.1227 27.6221C10.2008 27.5439 10.3068 27.5 10.4173 27.5H12.9173C13.0278 27.5 13.1338 27.5439 13.2119 27.6221C13.2901 27.7002 13.334 27.8062 13.334 27.9167V30.4167C13.334 30.5272 13.2901 30.6332 13.2119 30.7113C13.1338 30.7895 13.0278 30.8334 12.9173 30.8334ZM10.834 30H12.5006V28.3334H10.834V30ZM12.9173 25H10.4173C10.3068 25 10.2008 24.9561 10.1227 24.878C10.0445 24.7998 10.0006 24.6939 10.0006 24.5834V22.0834C10.0006 21.9728 10.0445 21.8669 10.1227 21.7887C10.2008 21.7106 10.3068 21.6667 10.4173 21.6667H12.9173C13.0278 21.6667 13.1338 21.7106 13.2119 21.7887C13.2901 21.8669 13.334 21.9728 13.334 22.0834V24.5834C13.334 24.6939 13.2901 24.7998 13.2119 24.878C13.1338 24.9561 13.0278 25 12.9173 25ZM10.834 24.1667H12.5006V22.5H10.834V24.1667ZM25.4173 11.6667H22.9173C22.8068 11.6667 22.7008 11.6228 22.6227 11.5446C22.5445 11.4665 22.5006 11.3605 22.5006 11.25C22.5006 11.1395 22.5445 11.0335 22.6227 10.9554C22.7008 10.8773 22.8068 10.8334 22.9173 10.8334H25.4173C25.5278 10.8334 25.6338 10.8773 25.7119 10.9554C25.7901 11.0335 25.834 11.1395 25.834 11.25C25.834 11.3605 25.7901 11.4665 25.7119 11.5446C25.6338 11.6228 25.5278 11.6667 25.4173 11.6667ZM19.0498 29.1667H16.2506C16.1401 29.1667 16.0342 29.2106 15.956 29.2887C15.8779 29.3669 15.834 29.4728 15.834 29.5834C15.834 29.6939 15.8779 29.7998 15.956 29.878C16.0342 29.9561 16.1401 30 16.2506 30H18.834C18.714 29.7109 18.7648 29.3584 19.0498 29.1667ZM18.814 27.5H16.2506C16.1401 27.5 16.0342 27.5439 15.956 27.6221C15.8779 27.7002 15.834 27.8062 15.834 27.9167C15.834 28.0272 15.8779 28.1332 15.956 28.2113C16.0342 28.2895 16.1401 28.3334 16.2506 28.3334H18.6981C18.5648 28.0617 18.6006 27.7117 18.814 27.5ZM19.9373 23.6617C20.0915 23.5292 20.2706 23.4242 20.4598 23.3334H16.2506C16.1401 23.3334 16.0342 23.3773 15.956 23.4554C15.8779 23.5335 15.834 23.6395 15.834 23.75C15.834 23.8605 15.8779 23.9665 15.956 24.0446C16.0342 24.1228 16.1401 24.1667 16.2506 24.1667H19.7181C19.7015 23.9942 19.7598 23.815 19.9373 23.6617ZM21.1373 22.0967C21.3698 21.9034 21.6215 21.77 21.884 21.6667H16.2506C16.1401 21.6667 16.0342 21.7106 15.956 21.7887C15.8779 21.8669 15.834 21.9728 15.834 22.0834C15.834 22.1939 15.8779 22.2998 15.956 22.378C16.0342 22.4561 16.1401 22.5 16.2506 22.5H20.9198C20.9265 22.4215 20.9492 22.3451 20.9867 22.2758C21.0241 22.2064 21.0753 22.1454 21.1373 22.0967ZM21.2506 18.3334H16.2506C16.1401 18.3334 16.0342 18.2895 15.956 18.2113C15.8779 18.1332 15.834 18.0272 15.834 17.9167C15.834 17.8062 15.8779 17.7002 15.956 17.6221C16.0342 17.5439 16.1401 17.5 16.2506 17.5H21.2506C21.3612 17.5 21.4671 17.5439 21.5453 17.6221C21.6234 17.7002 21.6673 17.8062 21.6673 17.9167C21.6673 18.0272 21.6234 18.1332 21.5453 18.2113C21.4671 18.2895 21.3612 18.3334 21.2506 18.3334ZM25.4173 16.6667H20.4173C20.3068 16.6667 20.2008 16.6228 20.1227 16.5446C20.0445 16.4665 20.0006 16.3605 20.0006 16.25C20.0006 16.1395 20.0445 16.0335 20.1227 15.9554C20.2008 15.8773 20.3068 15.8334 20.4173 15.8334H25.4173C25.5278 15.8334 25.6338 15.8773 25.7119 15.9554C25.7901 16.0335 25.834 16.1395 25.834 16.25C25.834 16.3605 25.7901 16.4665 25.7119 16.5446C25.6338 16.6228 25.5278 16.6667 25.4173 16.6667ZM18.7506 16.6667H16.2506C16.1401 16.6667 16.0342 16.6228 15.956 16.5446C15.8779 16.4665 15.834 16.3605 15.834 16.25C15.834 16.1395 15.8779 16.0335 15.956 15.9554C16.0342 15.8773 16.1401 15.8334 16.2506 15.8334H18.7506C18.8612 15.8334 18.9671 15.8773 19.0453 15.9554C19.1234 16.0335 19.1673 16.1395 19.1673 16.25C19.1673 16.3605 19.1234 16.4665 19.0453 16.5446C18.9671 16.6228 18.8612 16.6667 18.7506 16.6667ZM24.584 13.3334H16.2506C16.1401 13.3334 16.0342 13.2895 15.956 13.2113C15.8779 13.1332 15.834 13.0272 15.834 12.9167C15.834 12.8062 15.8779 12.7002 15.956 12.6221C16.0342 12.5439 16.1401 12.5 16.2506 12.5H24.584C24.6945 12.5 24.8005 12.5439 24.8786 12.6221C24.9568 12.7002 25.0006 12.8062 25.0006 12.9167C25.0006 13.0272 24.9568 13.1332 24.8786 13.2113C24.8005 13.2895 24.6945 13.3334 24.584 13.3334ZM21.2506 11.6667H16.2506C16.1401 11.6667 16.0342 11.6228 15.956 11.5446C15.8779 11.4665 15.834 11.3605 15.834 11.25C15.834 11.1395 15.8779 11.0335 15.956 10.9554C16.0342 10.8773 16.1401 10.8334 16.2506 10.8334H21.2506C21.3612 10.8334 21.4671 10.8773 21.5453 10.9554C21.6234 11.0335 21.6673 11.1395 21.6673 11.25C21.6673 11.3605 21.6234 11.4665 21.5453 11.5446C21.4671 11.6228 21.3612 11.6667 21.2506 11.6667Z" fill="#03AA79"/>
<path d="M28.334 38.3334C22.8198 38.3334 18.334 33.8475 18.334 28.3334C18.334 22.8192 22.8198 18.3334 28.334 18.3334C33.8482 18.3334 38.334 22.8192 38.334 28.3334C38.334 33.8475 33.8482 38.3334 28.334 38.3334ZM28.334 19.1667C23.2798 19.1667 19.1673 23.2792 19.1673 28.3334C19.1673 33.3875 23.2798 37.5 28.334 37.5C33.3882 37.5 37.5007 33.3875 37.5007 28.3334C37.5007 23.2792 33.3882 19.1667 28.334 19.1667Z" fill="#03AA79"/>
<path d="M34.4403 32.9167C34.3866 32.9166 34.3334 32.9061 34.2836 32.8859C34.1914 32.8487 34.0968 32.8181 34.0003 32.7942L31.3445 32.13C30.9593 32.0391 30.6165 31.8201 30.3723 31.5088C30.1281 31.1974 29.9969 30.8124 30.0003 30.4167V29.4858C30.0003 29.3753 30.0442 29.2694 30.1223 29.1912C30.2005 29.1131 30.3064 29.0692 30.417 29.0692C30.5275 29.0692 30.6334 29.1131 30.7116 29.1912C30.7897 29.2694 30.8336 29.3753 30.8336 29.4858V30.4167C30.8336 30.8583 31.1136 31.2133 31.547 31.3217L34.2028 31.9858C34.3395 32.02 34.4703 32.0625 34.5961 32.1133C34.686 32.1494 34.7605 32.2157 34.8068 32.3007C34.8531 32.3858 34.8684 32.4843 34.8499 32.5794C34.8315 32.6744 34.7805 32.7601 34.7057 32.8217C34.631 32.8832 34.5371 32.9168 34.4403 32.9167ZM22.1603 32.9425C22.0643 32.9428 21.9712 32.91 21.8966 32.8496C21.822 32.7892 21.7706 32.7049 21.751 32.6109C21.7314 32.517 21.7448 32.4191 21.789 32.3339C21.8332 32.2487 21.9055 32.1814 21.9936 32.1433C22.142 32.0792 22.2961 32.0258 22.4578 31.9858L25.1136 31.3217C25.5436 31.2142 25.8336 30.8508 25.8336 30.4167V29.2467C25.8336 29.1362 25.8775 29.0302 25.9557 28.9521C26.0338 28.8739 26.1398 28.83 26.2503 28.83C26.3608 28.83 26.4668 28.8739 26.5449 28.9521C26.6231 29.0302 26.667 29.1362 26.667 29.2467V30.4167C26.667 31.2392 26.1236 31.9275 25.3153 32.13L22.6595 32.7942C22.5455 32.823 22.434 32.8609 22.3261 32.9075C22.2739 32.9308 22.2174 32.9427 22.1603 32.9425Z" fill="#03AA79"/>
<path d="M28.3557 30.8334C28.3009 30.8337 28.2467 30.8233 28.196 30.8026C28.1453 30.782 28.0992 30.7516 28.0603 30.7131C27.9817 30.6354 27.9371 30.5297 27.9365 30.4192C27.9358 30.3087 27.9791 30.2025 28.0568 30.1238C28.1344 30.0452 28.2401 30.0007 28.3507 30C29.7198 29.9842 31.2507 28.0484 31.2507 25.4809C31.2507 23.1642 30.1057 21.6667 28.334 21.6667C26.5623 21.6667 25.4173 23.1642 25.4173 25.4809C25.4173 26.8084 25.8398 28.0859 26.5765 28.9867C26.6111 29.0291 26.6371 29.0779 26.6528 29.1304C26.6686 29.1828 26.6739 29.2378 26.6684 29.2923C26.6629 29.3468 26.6467 29.3996 26.6208 29.4479C26.5949 29.4961 26.5597 29.5387 26.5173 29.5734C26.4749 29.608 26.4261 29.634 26.3737 29.6497C26.3212 29.6655 26.2662 29.6708 26.2117 29.6653C26.1573 29.6598 26.1044 29.6436 26.0562 29.6177C26.0079 29.5918 25.9653 29.5566 25.9307 29.5142C25.0748 28.4675 24.584 26.9975 24.584 25.4817C24.584 22.2709 26.4673 20.8334 28.334 20.8334C30.2007 20.8334 32.084 22.2709 32.084 25.4809C32.084 28.3092 30.344 30.8109 28.3607 30.8334H28.3557Z" fill="#03AA79"/>
</svg>
