<?xml version="1.0" encoding="UTF-8"?>
<svg width="72px" height="32px" viewBox="0 0 72 32" version="1.1" xmlns="http://www.w3.org/2000/svg" xmlns:xlink="http://www.w3.org/1999/xlink">
    <title>g10</title>
    <g id="Home" stroke="none" stroke-width="1" fill="none" fill-rule="evenodd">
        <g id="01_Money_1200-3" transform="translate(-646.000000, -883.000000)" fill-rule="nonzero">
            <g id="1">
                <g id="Form" transform="translate(115.000000, 142.000000)">
                    <g id="g10" transform="translate(567.000000, 757.000000) scale(-1, 1) rotate(-180.000000) translate(-567.000000, -757.000000) translate(531.000000, 741.000000)">
                        <g id="g12" transform="translate(0.184274, 0.184274)">
                            <path d="M28.3608625,14.1028336 L24.8503014,4.63577307 L24.4760047,6.55955347 C23.6016997,8.91799864 21.7090247,11.3924257 19.5045218,12.3954273 L22.7163384,0.239124589 L26.5126711,0.240996809 L32.1581903,14.1028336 L28.3608625,14.1028336" id="path14" fill="#2A59A9"></path>
                            <polyline id="path16" fill="#2A59A9" points="31.36972 0.225447796 33.6140998 14.1162118 37.2004342 14.1162118 34.9551331 0.225447796 31.36972 0.225447796"></polyline>
                            <path d="M47.9660714,13.7736102 C47.2577233,14.0538905 46.1391821,14.3583843 44.7523383,14.3583843 C41.2043328,14.3583843 38.7114784,12.4724537 38.6897341,9.77498184 C38.6668842,7.77708656 40.4720292,6.66248875 41.8290206,5.99884551 C43.2295006,5.31961271 43.6971872,4.8838423 43.6931332,4.27588656 C43.6794969,3.3451423 42.5723807,2.92116909 41.5437649,2.92116909 C40.1101157,2.92116909 39.3464855,3.13034921 38.1708194,3.64718161 L37.7049756,3.86845745 L37.2030141,0.759985213 C38.042565,0.373010477 39.591201,0.0375745098 41.2013844,0.0202988519 C44.9668329,0.0202988519 47.4161987,1.88462962 47.445314,4.76391699 C47.4604244,6.34867067 46.5025698,7.54818179 44.430965,8.53865284 C43.1808524,9.1821734 42.40764,9.60902496 42.4190649,10.2618698 C42.4205391,10.8381673 43.0677083,11.4560738 44.4744536,11.4560738 C45.6486455,11.4754962 46.4933561,11.2060144 47.1582156,10.921975 L47.4781147,10.7625782 L47.9660714,13.7736102" id="path18" fill="#2A59A9"></path>
                            <path d="M57.1646451,14.1018385 L54.393906,14.1018385 C53.5348221,14.1018385 52.8913384,13.8570862 52.5117346,12.9489855 L47.1876993,0.221128421 L50.954622,0.221128421 C50.954622,0.221128421 51.5708332,1.93401128 51.7097755,2.30975638 C52.1207059,2.30975638 55.7796441,2.30111763 56.3015072,2.30111763 C56.41244,1.81696801 56.7382358,0.221128421 56.7382358,0.221128421 L60.0687984,0.221128421 L57.1646451,14.1018385 Z M52.7417082,5.15089172 C53.0394944,5.94802282 54.1705663,9.0335751 54.1705663,9.0335751 C54.148822,8.99572528 54.4646671,9.8368978 54.6474666,10.3569181 L54.8866539,9.15954459 C54.8866539,9.15954459 55.5754689,5.84479271 55.7192024,5.15089172 C55.1608531,5.15089172 53.4412111,5.15089172 52.7417082,5.15089172" id="path20" fill="#2A59A9"></path>
                            <path d="M21.5938537,14.1097623 L15.809687,14.1097623 L15.7758544,13.8707593 C20.2732747,12.7204861 23.2407813,9.89593908 24.4760047,6.55553631 L23.218779,12.9396244 C23.0028103,13.817799 22.3734051,14.0788043 21.5938537,14.1097623" id="path22" fill="#F19C23"></path>
                            <polyline id="path24" fill="#2A59A9" points="4.95983677 17.466418 2.67268708 17.466418 0.0345513157 29.3594047 2.56226661 29.7817968 4.36728631 20.4746859 8.96535698 29.658702 11.3933102 29.658702 4.95983677 17.466418"></polyline>
                            <path d="M16.8538554,21.3542979 L11.3997598,21.3542979 C11.2504981,19.700589 12.0191036,18.9790469 13.3212552,18.9790469 C14.4122291,18.9790469 15.3717422,19.3840068 16.404375,20.0348614 L16.3961933,18.3813 C15.3836831,17.7477302 14.2129555,17.3428809 12.8405588,17.3428809 C10.4656028,17.3428809 8.89724943,18.6978822 9.36843724,21.7592577 C9.79340921,24.5213728 11.7045484,26.1924772 13.9212871,26.1924772 C16.4723352,26.1924772 17.3207312,24.2747409 16.949862,21.8645149 C16.922958,21.6887178 16.8726882,21.4773927 16.8538554,21.3542979 L16.8538554,21.3542979 Z M13.6438815,24.7322556 C12.7992447,24.7322556 12.0103322,24.0639687 11.6380256,22.6737343 L15.0157254,22.6737343 C15.0781942,23.9934287 14.6643155,24.7322556 13.6438815,24.7322556" id="path26" fill="#2A59A9"></path>
                            <path d="M20.4087528,22.3922747 L19.6586852,17.5189728 L17.5474616,17.5189728 L18.8553625,26.0167169 L20.6498933,26.0167169 L20.6511832,24.3100109 C21.365944,25.2953223 22.3375823,26.1220846 23.6679277,26.1924772 L23.680016,24.0989807 C22.3470539,24.010861 21.1478376,23.3071567 20.4087528,22.3922747" id="path28" fill="#2A59A9"></path>
                            <path d="M23.6522644,17.5189728 L24.9601653,26.0167169 L27.0713889,26.0167169 L25.763488,17.5189728 L23.6522644,17.5189728 Z M26.2528084,27.4418159 C25.5492514,27.4418159 25.0620687,27.9343057 25.1703479,28.6380101 C25.2815018,29.3594047 25.9228479,29.8696217 26.6264048,29.8696217 C27.3128243,29.8696217 27.797243,29.3594047 27.6861259,28.6380101 C27.5778467,27.9343057 26.9392278,27.4418159 26.2528084,27.4418159" id="path30" fill="#2A59A9"></path>
                            <path d="M32.9182086,28.3390076 C32.1964823,28.3390076 31.7610068,28.0224254 31.6443984,27.265724 L31.4522009,26.0167169 L33.0707873,26.0167169 L33.0693499,24.2926155 L31.1870311,24.2926155 L30.1443,17.5189728 L28.0507667,17.5189728 L29.0933503,24.2926155 L27.8617388,24.2926155 L28.1270929,26.0167169 L29.3586676,26.0167169 L29.5834078,27.4769384 C29.8731966,29.3594047 31.1778174,30.063109 32.9194986,30.063109 C33.289041,30.063109 33.5651567,30.0278391 33.7710273,29.9927165 L33.7870222,28.2685782 C33.5811516,28.3037008 33.269766,28.3390076 32.9182086,28.3390076" id="path32" fill="#2A59A9"></path>
                            <path d="M32.9412429,17.5189728 L34.2491438,26.0167169 L36.3603673,26.0167169 L35.0524664,17.5189728 L32.9412429,17.5189728 Z M35.5417868,27.4418159 C34.8380824,27.4418159 34.3509365,27.9343057 34.4593263,28.6380101 C34.5703328,29.3594047 35.2116789,29.8696217 35.9153833,29.8696217 C36.6016553,29.8696217 37.0861845,29.3594047 36.9752518,28.6380101 C36.8668989,27.9343057 36.2280588,27.4418159 35.5417868,27.4418159" id="path34" fill="#2A59A9"></path>
                            <path d="M44.5455833,21.3542979 L39.0914508,21.3542979 C38.9425576,19.700589 39.7109789,18.9790469 41.0130567,18.9790469 C42.1039569,18.9790469 43.0632857,19.3840068 44.096324,20.0348614 L44.0878474,18.3813 C43.0754478,17.7477302 41.9045728,17.3428809 40.532471,17.3428809 C38.1571832,17.3428809 36.5891247,18.6978822 37.0600177,21.7592577 C37.4853213,24.5213728 39.3962394,26.1924772 41.6130519,26.1924772 C44.1641367,26.1924772 45.0129013,24.2747409 44.6417741,21.8645149 C44.6145016,21.6887178 44.5643792,21.4773927 44.5455833,21.3542979 L44.5455833,21.3542979 Z M41.3355357,24.7322556 C40.4908251,24.7322556 39.7017652,24.0639687 39.3299009,22.6737343 L42.7076375,22.6737343 C42.769922,23.9934287 42.3560433,24.7322556 41.3355357,24.7322556" id="path36" fill="#2A59A9"></path>
                            <path d="M50.799095,17.5189728 L50.8042547,18.6978822 C50.0951695,17.9763401 49.1708527,17.3428809 47.9922382,17.3428809 C46.2147343,17.3428809 44.9933683,18.6626122 45.4345195,21.5305004 C45.9217391,24.6969857 47.8801998,26.1046892 49.8508226,26.1046892 C50.6601526,26.1046892 51.2896315,25.9637198 51.7724286,25.788107 L52.4033817,29.8874594 L54.5660176,30.2214738 L52.6112424,17.5189728 L50.799095,17.5189728 Z M51.5044947,24.046131 C51.0146952,24.2926155 50.6288261,24.4156734 49.9075789,24.4156734 C48.7989884,24.4156734 47.8518217,23.5185186 47.5650918,21.6534478 C47.3104256,19.9997389 47.8949417,19.225642 48.8273666,19.225642 C49.6016846,19.225642 50.269861,19.6827513 50.9409857,20.3867136 L51.5044947,24.046131" id="path38" fill="#2A59A9"></path>
                            <path d="M59.0788802,17.4389244 C58.0793797,17.4389244 57.2645215,17.5989845 56.506051,17.8653337 L57.8947375,26.8875575 L59.532562,27.1407864 L58.9318298,23.2361745 C59.4105728,23.6626206 60.0758008,24.0890299 60.8888163,24.0890299 C62.248019,24.0890299 63.158331,23.0759669 62.8262698,20.9172376 C62.4610394,18.5452667 60.9979063,17.4389244 59.0788802,17.4389244 Z M60.2582317,22.676609 C59.7249437,22.676609 59.1901815,22.3165382 58.7162296,21.836579 L58.2673389,18.9182735 C58.5820783,18.7984956 58.8002584,18.7450931 59.2532031,18.7450931 C60.2659712,18.7450931 60.9735822,19.3580979 61.1991332,20.8240688 C61.3900407,22.0633093 60.9780048,22.676609 60.2582317,22.676609" id="path40" fill="#2A59A9"></path>
                            <path d="M66.593561,17.1725752 C65.7764915,15.5868264 64.9678986,15.0937469 63.7284738,15.0937469 C63.4483778,15.0937469 63.2928508,15.1203929 63.1524342,15.1602697 L63.1421149,16.4795218 C63.3473958,16.4262668 63.5674186,16.3862425 63.87405,16.3862425 C64.3406309,16.3862425 64.7464016,16.5994472 65.0183895,17.0657701 L65.2303043,17.4923269 L63.8744185,23.8359484 L65.5734219,24.0490057 L66.3602705,19.4647555 L68.4908428,23.9557263 L70.0767022,23.9557263 L66.593561,17.1725752" id="path42" fill="#2A59A9"></path>
                        </g>
                    </g>
                </g>
            </g>
        </g>
    </g>
</svg>