<?xml version="1.0" encoding="UTF-8"?>
<svg width="83px" height="30px" viewBox="0 0 83 30" version="1.1" xmlns="http://www.w3.org/2000/svg" xmlns:xlink="http://www.w3.org/1999/xlink">
    <title>masterS</title>
    <g id="Home" stroke="none" stroke-width="1" fill="none" fill-rule="evenodd">
        <g id="01_Money_1200-3" transform="translate(-743.000000, -884.000000)">
            <g id="1">
                <g id="Form" transform="translate(115.000000, 142.000000)">
                    <g id="masterS" transform="translate(628.000000, 742.000000)">
                        <g id="Group" transform="translate(0.468384, 0.000000)" fill="#EC2127">
                            <path d="M77.2334895,11.6508197 C77.2334895,10.7522248 77.9302108,10.0250585 78.7807963,10.0250585 C79.6360656,10.0250585 80.3255269,10.7522248 80.3255269,11.6508197 C80.3255269,12.5508197 79.6362998,13.2779859 78.7807963,13.2779859 C77.9302108,13.2779859 77.2334895,12.5508197 77.2334895,11.6508197 L77.2334895,11.6508197 Z M78.7810304,12.89274 C79.4311475,12.89274 79.9618267,12.3348946 79.9618267,11.6508197 C79.9618267,10.9702576 79.4311475,10.4173302 78.7810304,10.4173302 C78.1334895,10.4173302 77.6002342,10.9702576 77.6002342,11.6508197 C77.6002342,12.3348946 78.1334895,12.89274 78.7810304,12.89274 L78.7810304,12.89274 Z M78.5704918,12.363466 L78.25363,12.363466 L78.25363,10.9311475 L78.828103,10.9311475 C78.9449649,10.9311475 79.0761124,10.9381733 79.1765808,11.0100703 C79.2864169,11.0908665 79.3496487,11.2264637 79.3496487,11.3700234 C79.3496487,11.5288056 79.2594848,11.6772834 79.1159251,11.7311475 L79.3639344,12.363466 L79.0117096,12.363466 L78.8021077,11.8021077 L78.5702576,11.8021077 L78.5702576,12.363466 L78.5704918,12.363466 Z M78.5704918,11.558548 L78.7470726,11.558548 C78.8119438,11.558548 78.8871194,11.5606557 78.941452,11.5288056 C78.995082,11.493911 79.0189696,11.424356 79.0189696,11.3629977 C79.0189696,11.3091335 78.987822,11.2442623 78.941452,11.2189696 C78.8941452,11.1868852 78.798829,11.1941452 78.7433255,11.1941452 L78.5704918,11.1941452 L78.5704918,11.558548 L78.5704918,11.558548 Z" id="Shape"></path>
                            <path d="M55.1105386,0.83911007 L54.6866511,3.59625293 C53.7672131,3.10679157 53.0911007,2.91498829 52.3688525,2.91498829 C50.4416862,2.91498829 49.0786885,4.87400468 49.0786885,7.67096019 C49.0786885,9.6028103 49.9936768,10.7667447 51.4983607,10.7667447 C52.1370023,10.7667447 52.8388759,10.5615925 53.6976581,10.1117096 L53.2454333,13.0131148 C52.2955504,13.2864169 51.6758782,13.3836066 50.9576112,13.3836066 C48.1660422,13.3836066 46.4297424,11.2779859 46.4297424,7.89812646 C46.4297424,3.35175644 48.8288056,0.17704918 52.2606557,0.17704918 C52.7039813,0.17704918 53.1,0.220374707 53.4217799,0.313583138 L54.4887588,0.593208431 C54.8063232,0.718969555 54.8777518,0.738173302 55.1105386,0.83911007 L55.1105386,0.83911007 Z" id="Path"></path>
                            <path d="M46.518267,2.72880562 C46.4370023,2.71334895 46.3470726,2.70210773 46.2533958,2.70210773 C45.4004684,2.70210773 44.918267,3.15339578 44.1262295,4.38477752 L44.3562061,2.81405152 L42.0112412,2.81405152 L40.4215457,13.1496487 L43.0229508,13.1496487 C43.9531616,6.83255269 44.1911007,5.74168618 45.4381733,5.74168618 C45.5140515,5.74168618 45.5210773,5.74168618 45.6274005,5.75222482 C45.857377,4.50679157 46.1723653,3.5911007 46.6067916,2.7559719 L46.518267,2.72880562 L46.518267,2.72880562 Z" id="Path"></path>
                            <path d="M31.0194379,13.0234192 C30.3156909,13.2576112 29.7594848,13.3641686 29.1620609,13.3641686 C27.8407494,13.3641686 27.1192037,12.5592506 27.1192037,11.0906323 C27.1192037,10.8025761 27.1407494,10.4918033 27.1929742,10.1639344 L27.3531616,9.15620609 L27.471897,8.33302108 L28.595082,1.28056206 L31.1686183,1.28056206 L30.8735363,2.81405152 L32.1981265,2.81405152 L31.8344262,5.3264637 L30.5131148,5.3264637 L29.829274,9.64004684 C29.8058548,9.83044496 29.7859485,9.97096019 29.7859485,10.0681499 C29.7859485,10.5974239 30.0559719,10.8339578 30.6679157,10.8339578 C30.9665105,10.8339578 31.1915691,10.8028103 31.364637,10.7374707 L31.0194379,13.0234192 L31.0194379,13.0234192 Z" id="Path"></path>
                            <path d="M20.8145199,6.0824356 C20.8145199,7.38688525 21.4154567,8.28899297 22.7763466,8.96323185 C23.8185012,9.48149883 23.9840749,9.63255269 23.9840749,10.1030445 C23.9840749,10.7451991 23.5215457,11.042623 22.5028103,11.042623 C21.7344262,11.042623 21.0161593,10.9142857 20.1882904,10.6288056 L19.8302108,13.0128806 L19.9473068,13.0377049 L20.4224824,13.1384075 C20.5754098,13.1709602 20.8004684,13.2 21.0974239,13.2320843 C21.7147541,13.2896956 22.1880562,13.3173302 22.5229508,13.3173302 C25.2386417,13.3173302 26.495082,12.2208431 26.495082,9.86674473 C26.495082,8.45222482 25.9714286,7.61569087 24.6772834,6.98946136 C23.5974239,6.47494145 23.4749415,6.35362998 23.4749415,5.87377049 C23.4749415,5.31311475 23.9032787,5.02505855 24.7348946,5.02505855 C25.2421546,5.02505855 25.9299766,5.0852459 26.5866511,5.17892272 L26.9555035,2.79227166 C26.2805621,2.67728337 25.2782201,2.58852459 24.6843091,2.58852459 C21.8028103,2.58852459 20.8037471,4.17470726 20.8145199,6.0824356 L20.8145199,6.0824356 Z" id="Path"></path>
                            <path d="M75.7306792,13.1496487 L73.2805621,13.1496487 L73.4091335,12.1370023 C72.6955504,12.9370023 71.9632319,13.2861827 71.017096,13.2861827 C69.1236534,13.2861827 67.882904,11.5800937 67.882904,8.99578454 C67.882904,5.55807963 69.811007,2.65550351 72.1007026,2.65550351 C73.1067916,2.65550351 73.8674473,3.0911007 74.5838407,4.0704918 L75.1473068,0.439578454 L77.6990632,0.439578454 L75.7306792,13.1496487 L75.7306792,13.1496487 Z M71.9098361,10.7161593 C73.1194379,10.7161593 73.9648712,9.27985948 73.9648712,7.23419204 C73.9648712,5.9206089 73.4822014,5.20515222 72.5875878,5.20515222 C71.4147541,5.20515222 70.5810304,6.64730679 70.5810304,8.68126464 C70.5810304,10.0346604 71.0297424,10.7161593 71.9098361,10.7161593 L71.9098361,10.7161593 Z" id="Shape"></path>
                            <path d="M39.2194379,12.9325527 C38.3337237,13.2107728 37.4775176,13.3512881 36.5594848,13.347614 C33.6725995,13.347614 32.1641686,11.7587822 32.1641686,8.72107728 C32.1641686,5.16908665 34.0826698,2.55456674 36.6908665,2.55456674 C38.8180328,2.55456674 40.1843091,4.01990632 40.1843091,6.31639344 C40.1843091,7.07681499 40.0922717,7.81826698 39.8618267,8.86580796 L34.7142857,8.86580796 C34.69274,9.02318501 34.6894614,9.09508197 34.6894614,9.18641686 C34.6894614,10.3943794 35.4594848,11.0028103 36.9660422,11.0028103 C37.8894614,11.0028103 38.7208431,10.8025761 39.6515222,10.3454333 L39.2194379,12.9325527 L39.2194379,12.9325527 Z M37.7669789,6.77798595 C37.781733,6.56206089 37.7852459,6.38594848 37.7852459,6.25503513 C37.7852459,5.41030445 37.3295082,4.91709602 36.5594848,4.91709602 C35.7384075,4.91709602 35.1501171,5.57587822 34.9088993,6.77096019 L37.7669789,6.77798595 L37.7669789,6.77798595 Z" id="Shape"></path>
                            <polygon id="Path" points="10.4208431 13.1496487 7.83442623 13.1496487 9.31569087 3.38266979 6.0058548 13.1496487 4.23325527 13.1496487 4.01896956 3.44004684 2.45854801 13.1496487 0.0360655738 13.1496487 2.05714286 0.439344262 5.78454333 0.439344262 5.88711944 8.30444965 8.4030445 0.439344262 12.4257611 0.439344262"></polygon>
                            <path d="M17.0854801,8.54566745 C16.8117096,8.51311475 16.6913349,8.50117096 16.5058548,8.50117096 C15.0391101,8.50117096 14.2957845,9.03489461 14.2957845,10.0789227 C14.2957845,10.7224824 14.6611241,11.1325527 15.2262295,11.1325527 C16.2791569,11.1325527 17.0423888,10.0789227 17.0854801,8.54566745 L17.0854801,8.54566745 Z M18.9681499,13.1496487 L16.824356,13.1496487 L16.8711944,12.0765808 C16.2177986,12.9323185 15.3449649,13.329274 14.1587822,13.329274 C12.7512881,13.329274 11.7903981,12.1775176 11.7903981,10.5133489 C11.7903981,7.99016393 13.469555,6.52529274 16.340281,6.52529274 C16.6334895,6.52529274 17.0079625,6.54800937 17.3932084,6.60187354 C17.4740047,6.25995316 17.4957845,6.11241218 17.4957845,5.93114754 C17.4957845,5.24847775 17.0459016,4.98946136 15.8325527,4.98946136 C15.1002342,4.98946136 14.2594848,5.10093677 13.6800937,5.28477752 L13.3201405,5.38899297 L13.0934426,5.4559719 L13.4496487,3.13793911 C14.7421546,2.73629977 15.5932084,2.58149883 16.552459,2.58149883 C18.7770492,2.58149883 19.9559719,3.63114754 19.9559719,5.61194379 C19.9559719,6.1264637 19.918267,6.50819672 19.7419204,7.66229508 L19.2002342,11.324356 L19.1119438,11.9857143 L19.0454333,12.5124122 L19.0004684,12.8723653 L18.9681499,13.1496487 L18.9681499,13.1496487 Z" id="Shape"></path>
                            <path d="M59.5697892,8.54566745 C59.3004684,8.51311475 59.1754098,8.50117096 58.9946136,8.50117096 C57.5220141,8.50117096 56.7763466,9.03489461 56.7763466,10.0789227 C56.7763466,10.7224824 57.1456674,11.1325527 57.711007,11.1325527 C58.7688525,11.1325527 59.5234192,10.0789227 59.5697892,8.54566745 L59.5697892,8.54566745 Z M61.4543326,13.1496487 L59.3077283,13.1496487 L59.3576112,12.0765808 C58.7046838,12.9323185 57.8299766,13.329274 56.6454333,13.329274 C55.2379391,13.329274 54.2730679,12.1775176 54.2730679,10.5133489 C54.2730679,7.99016393 55.9505855,6.52529274 58.8269321,6.52529274 C59.1185012,6.52529274 59.4964871,6.54800937 59.8791569,6.60187354 C59.958548,6.25995316 59.981733,6.11241218 59.981733,5.93114754 C59.981733,5.24847775 59.5320843,4.98946136 58.3192037,4.98946136 C57.5824356,4.98946136 56.7440281,5.10093677 56.169555,5.28477752 L55.8014052,5.38899297 L55.5775176,5.4559719 L55.9377049,3.13793911 C57.2318501,2.73629977 58.0810304,2.58149883 59.0334895,2.58149883 C61.2615925,2.58149883 62.4405152,3.63114754 62.4405152,5.61194379 C62.4405152,6.1264637 62.3960187,6.50819672 62.2283372,7.66229508 L61.6824356,11.324356 L61.6023419,11.9857143 L61.5299766,12.5124122 L61.4826698,12.8723653 L61.4543326,13.1496487 L61.4543326,13.1496487 Z" id="Shape"></path>
                            <path d="M68.6857143,2.72880562 C68.6091335,2.71334895 68.524356,2.70210773 68.4252927,2.70210773 C67.5754098,2.70210773 67.0894614,3.15339578 66.2936768,4.38477752 L66.5245902,2.81405152 L64.1826698,2.81405152 L62.5995316,13.1496487 L65.1920375,13.1496487 C66.123185,6.83255269 66.3676815,5.74168618 67.6063232,5.74168618 C67.6866511,5.74168618 67.6812646,5.73442623 67.7873536,5.75222482 C68.0220141,4.50679157 68.3386417,3.5911007 68.7737705,2.7559719 L68.6857143,2.72880562 L68.6857143,2.72880562 Z" id="Path"></path>
                        </g>
                        <g id="Group" transform="translate(0.000000, 15.925059)" fill="#F89620">
                            <path d="M58.2911007,7.24847775 C58.2911007,9.59156909 57.565808,10.9711944 56.4224824,10.9711944 C55.587822,10.9969555 55.081733,10.0667447 55.081733,8.67540984 C55.081733,7.02997658 55.8210773,5.16487119 57.0074941,5.16487119 C57.9611241,5.16510539 58.2911007,6.17564403 58.2911007,7.24847775 L58.2911007,7.24847775 Z M60.8372365,7.29156909 C60.8372365,4.68711944 59.5503513,2.65995316 57.1316159,2.65995316 C54.3470726,2.65995316 52.5437939,5.12505855 52.5437939,8.75409836 C52.5437939,11.3522248 53.6096019,13.4765808 56.2459016,13.4765808 C58.9063232,13.4765808 60.8372365,11.5929742 60.8372365,7.29156909 L60.8372365,7.29156909 Z" id="Shape"></path>
                            <path d="M53.3758782,0.831615925 L52.9800937,3.58571429 C52.1194379,3.09976581 51.4932084,2.89812646 50.8163934,2.89812646 C49.0074941,2.89812646 47.7440281,4.86557377 47.7440281,7.66252927 C47.7440281,9.59344262 48.5901639,10.7615925 49.9995316,10.7615925 C50.6004684,10.7615925 51.2580796,10.5564403 52.0562061,10.106089 L51.6370023,13.0056206 C50.7423888,13.2812646 50.1583138,13.375644 49.493911,13.375644 C46.887822,13.375644 45.2644028,11.2690867 45.2644028,7.88875878 C45.2644028,3.34028103 47.504918,0.166042155 50.7140515,0.166042155 C51.1295082,0.166042155 51.4971897,0.218735363 51.801171,0.302576112 L52.7913349,0.583606557 C53.0969555,0.704918033 53.1601874,0.726229508 53.3758782,0.831615925 L53.3758782,0.831615925 Z" id="Path"></path>
                            <path d="M37.3679157,2.72412178 C37.2941452,2.70374707 37.2091335,2.69555035 37.1194379,2.69555035 C36.3344262,2.69555035 35.8740047,3.14871194 35.1381733,4.37587822 L35.3522248,2.80796253 L33.1632319,2.80796253 L31.6854801,13.1447307 L34.1025761,13.1447307 C34.9721311,6.82131148 35.2021077,5.73325527 36.3615925,5.73325527 C36.4299766,5.73325527 36.4370023,5.73325527 36.5379391,5.74496487 C36.7559719,4.49461358 37.0494145,3.57868852 37.4559719,2.74192037 L37.3679157,2.72412178 L37.3679157,2.72412178 Z" id="Path"></path>
                            <path d="M68.9437939,13.034192 L66.659719,13.034192 L66.7772834,12.0252927 C66.1128806,12.8208431 65.4217799,13.1730679 64.5377049,13.1730679 C62.7763466,13.1730679 61.6133489,11.4641686 61.6133489,8.88056206 C61.6133489,5.44847775 63.4185012,2.53747073 65.5526932,2.53747073 C66.4943794,2.53747073 67.2088993,2.9824356 67.8690867,3.9618267 L68.4023419,0.327400468 L70.781733,0.327400468 L68.9437939,13.034192 L68.9437939,13.034192 Z M65.3700234,10.6028103 C66.5086651,10.6028103 67.2936768,9.1676815 67.2936768,7.12014052 C67.2936768,5.8028103 66.8451991,5.09555035 66.0138173,5.09555035 C64.9142857,5.09555035 64.1330211,6.5323185 64.1330211,8.57283372 C64.1330211,9.91967213 64.5522248,10.6028103 65.3700234,10.6028103 L65.3700234,10.6028103 Z" id="Shape"></path>
                            <path d="M14.6992974,12.9915691 C13.8770492,13.2751756 13.0758782,13.4124122 12.2229508,13.4124122 C9.52318501,13.4124122 8.11405152,11.8203747 8.11405152,8.78360656 C8.11405152,5.23653396 9.90655738,2.61990632 12.3398126,2.61990632 C14.3323185,2.61990632 15.6028103,4.08266979 15.6028103,6.37915691 C15.6028103,7.1381733 15.5163934,7.88196721 15.3096019,8.92997658 L10.4913349,8.92997658 C10.476815,9.08430913 10.4714286,9.16088993 10.4714286,9.25105386 C10.4714286,10.4562061 11.1932084,11.0641686 12.5953162,11.0641686 C13.4592506,11.0641686 14.240281,10.8627635 15.106089,10.4096019 L14.6992974,12.9915691 L14.6992974,12.9915691 Z M13.347541,6.84192037 C13.358548,6.6234192 13.3655738,6.44941452 13.3655738,6.31662763 C13.3655738,5.47377049 12.9409836,4.98056206 12.2227166,4.98056206 C11.4505855,4.98056206 10.9014052,5.6440281 10.6803279,6.83114754 L13.347541,6.84192037 L13.347541,6.84192037 Z" id="Shape"></path>
                            <path d="M43.4557377,12.9915691 C42.6309133,13.2751756 41.828103,13.4124122 40.9782201,13.4124122 C38.2730679,13.4124122 36.865808,11.8203747 36.865808,8.78360656 C36.865808,5.23653396 38.6601874,2.61990632 41.0915691,2.61990632 C43.0845433,2.61990632 44.3590164,4.08266979 44.3590164,6.37915691 C44.3590164,7.1381733 44.2688525,7.88196721 44.0548009,8.92997658 L39.2470726,8.92997658 C39.2323185,9.08430913 39.2234192,9.16088993 39.2234192,9.25105386 C39.2234192,10.4562061 39.9435597,11.0641686 41.3454333,11.0641686 C42.2096019,11.0641686 42.99274,10.8627635 43.8587822,10.4096019 L43.4557377,12.9915691 L43.4557377,12.9915691 Z M42.0964871,6.84192037 C42.1124122,6.6234192 42.1213115,6.44941452 42.1213115,6.31662763 C42.1213115,5.47377049 41.6932084,4.98056206 40.9779859,4.98056206 C40.2056206,4.98056206 39.6571429,5.6440281 39.4337237,6.83114754 L42.0964871,6.84192037 L42.0964871,6.84192037 Z" id="Shape"></path>
                            <path d="M77.1925059,12.9915691 C76.3569087,13.2751756 75.5648712,13.4124122 74.7086651,13.4124122 C72.0091335,13.4124122 70.5962529,11.8203747 70.5962529,8.78360656 C70.5962529,5.23653396 72.3943794,2.61990632 74.8255269,2.61990632 C76.8180328,2.61990632 78.0873536,4.08266979 78.0873536,6.37915691 C78.0873536,7.1381733 78.0044496,7.88196721 77.7901639,8.92997658 L72.9775176,8.92997658 C72.9606557,9.08430913 72.9571429,9.16088993 72.9571429,9.25105386 C72.9571429,10.4562061 73.6793911,11.0641686 75.0814988,11.0641686 C75.94637,11.0641686 76.7259953,10.8627635 77.593911,10.4096019 L77.1925059,12.9915691 L77.1925059,12.9915691 Z M75.8334895,6.84192037 C75.8442623,6.6234192 75.8512881,6.44941452 75.8512881,6.31662763 C75.8512881,5.47377049 75.4285714,4.98056206 74.7086651,4.98056206 C73.9362998,4.98056206 73.3896956,5.6440281 73.165808,6.83114754 L75.8334895,6.84192037 L75.8334895,6.84192037 Z" id="Shape"></path>
                            <path d="M7.54332553,3.19133489 C7.07002342,2.87470726 6.429274,2.59812646 5.52388759,2.59812646 C4.54660422,2.59812646 3.76018735,2.80070258 3.76018735,3.84051522 C3.76018735,5.67681499 7.3236534,4.9911007 7.3236534,8.9234192 C7.3236534,12.5051522 4.97166276,13.4337237 2.8440281,13.4337237 C1.89742389,13.4337237 0.808430913,13.1206089 0.00585480094,12.7639344 L0.583606557,10.1320843 C1.06791569,10.571897 2.04496487,10.8733021 2.8440281,10.8733021 C3.60538642,10.8733021 4.79859485,10.6653396 4.79859485,9.33653396 C4.79859485,7.2557377 1.23700234,8.02974239 1.23700234,4.37751756 C1.23700234,1.03653396 3.3175644,0.0358313817 5.32459016,0.0358313817 C6.45480094,0.0358313817 7.51662763,0.201639344 8.13934426,0.615456674 L7.54332553,3.19133489 L7.54332553,3.19133489 Z" id="Path"></path>
                            <path d="M21.7777518,12.987822 C21.2791569,13.2276347 20.6133489,13.3854801 19.6306792,13.3854801 C17.5177986,13.3854801 16.2074941,11.2735363 16.2074941,8.70234192 C16.2074941,5.33723653 18.1028103,2.65269321 20.8922717,2.65269321 C21.5007026,2.65269321 22.429274,2.91592506 23.1618267,3.34051522 L22.6271663,5.80913349 C22.1086651,5.46838407 21.5688525,5.25175644 21.0128806,5.25175644 C19.7203747,5.25175644 18.7971897,6.43629977 18.7971897,8.5587822 C18.7971897,9.78079625 19.4667447,10.7831382 20.5248244,10.7831382 C21.1545667,10.7831382 21.5976581,10.6503513 22.1395785,10.3334895 L21.7777518,12.987822 L21.7777518,12.987822 Z" id="Path"></path>
                            <path d="M30.8203747,10.3995316 C30.6962529,11.2887588 30.5810304,12.1519906 30.5124122,13.0796253 L28.1852459,13.0796253 L28.3814988,11.4088993 L28.3578454,11.4088993 C27.6290398,12.5444965 26.8749415,13.3175644 25.557377,13.3175644 C24.0962529,13.3175644 23.3044496,11.7800937 23.3044496,9.77213115 C23.3044496,9.08009368 23.347541,8.68946136 23.5021077,7.60866511 L24.1608899,2.82459016 L26.7508197,2.82459016 L26.0559719,7.62271663 C25.9857143,8.1381733 25.8868852,8.64941452 25.8868852,9.18266979 C25.8868852,9.78735363 26.1622951,10.3990632 26.8606557,10.3615925 C27.9222482,10.3615925 28.5487119,9.06299766 28.7269321,7.54777518 L29.4416862,2.82435597 L31.9487119,2.82435597 L30.8203747,10.3995316 L30.8203747,10.3995316 Z" id="Path"></path>
                            <g transform="translate(78.454333, 10.772834)" id="Path">
                                <polygon points="1.15081967 2.18196721 0.759250585 2.18196721 0.759250585 0.467681499 0.192974239 0.467681499 0.192974239 0.100468384 1.71709602 0.100468384 1.71709602 0.467681499 1.15081967 0.467681499"></polygon>
                                <polygon points="3.7470726 2.18196721 3.38126464 2.18196721 3.38126464 0.441920375 3.37611241 0.441920375 3.0264637 2.18196721 2.64285714 2.18196721 2.30140515 0.441920375 2.29601874 0.441920375 2.29601874 2.18196721 1.93114754 2.18196721 1.93114754 0.100468384 2.50210773 0.100468384 2.84192037 1.74145199 2.8470726 1.74145199 3.18079625 0.100468384 3.7470726 0.100468384"></polygon>
                            </g>
                        </g>
                    </g>
                </g>
            </g>
        </g>
    </g>
</svg>