<?xml version="1.0" encoding="UTF-8"?>
<svg width="122px" height="37px" viewBox="0 0 122 37" version="1.1" xmlns="http://www.w3.org/2000/svg" xmlns:xlink="http://www.w3.org/1999/xlink">
    <title>pciS</title>
    <g id="Home" stroke="none" stroke-width="1" fill="none" fill-rule="evenodd">
        <g id="01_Money_1200-3" transform="translate(-501.000000, -880.000000)" fill-rule="nonzero">
            <g id="1">
                <g id="Form" transform="translate(115.000000, 142.000000)">
                    <g id="pciS" transform="translate(386.000000, 738.000000)">
                        <g id="Group">
                            <path d="M59.3608696,16.6231884 C59.6826087,16.8376812 60.1652174,16.9985507 60.6478261,16.9985507 C61.3985507,16.9985507 61.8275362,16.6231884 61.8275362,16.0333333 C61.8275362,15.4971014 61.5057971,15.2289855 60.7550725,14.9072464 C59.8434783,14.5855072 59.2536232,14.1028986 59.2536232,13.2985507 C59.2536232,12.4405797 60.0043478,11.7971014 61.0768116,11.7971014 C61.6666667,11.7971014 62.042029,11.9043478 62.3101449,12.0652174 L62.0956522,12.6550725 C61.9347826,12.5478261 61.5594203,12.3869565 61.0231884,12.3869565 C60.2724638,12.3869565 59.9507246,12.8695652 59.9507246,13.2449275 C59.9507246,13.7811594 60.2724638,14.0492754 61.0768116,14.3173913 C62.042029,14.6927536 62.4710145,15.1217391 62.4710145,15.9797101 C62.4710145,16.8376812 61.8275362,17.5884058 60.5405797,17.5884058 C60.0043478,17.5884058 59.4144928,17.4275362 59.0927536,17.2130435 L59.3608696,16.6231884" id="Path" fill="#02797E"></path>
                            <path d="M63.9724638,15.6043478 C63.9724638,16.5695652 64.615942,16.9985507 65.3666667,16.9985507 C65.9028986,16.9985507 66.2246377,16.8913043 66.4927536,16.784058 L66.6,17.3202899 C66.3318841,17.4275362 65.9028986,17.5884058 65.2594203,17.5884058 C64.026087,17.5884058 63.2753623,16.784058 63.2753623,15.5507246 C63.2753623,14.3173913 64.026087,13.3521739 65.1521739,13.3521739 C66.4391304,13.3521739 66.8144928,14.5318841 66.8144928,15.2289855 C66.8144928,15.3898551 66.8144928,15.4971014 66.8144928,15.6043478 L63.9724638,15.6043478 M66.1173913,15.1217391 C66.1173913,14.6391304 65.9028986,13.942029 65.0985507,13.942029 C64.3478261,13.942029 64.026087,14.6391304 63.9724638,15.1217391 L66.1173913,15.1217391 Z" id="Shape" fill="#02797E"></path>
                            <path d="M70.6217391,17.373913 C70.4072464,17.4811594 69.9782609,17.5884058 69.442029,17.5884058 C68.2086957,17.5884058 67.457971,16.784058 67.457971,15.5507246 C67.457971,14.3173913 68.315942,13.4057971 69.6028986,13.4057971 C70.0318841,13.4057971 70.4072464,13.5130435 70.6217391,13.6202899 L70.4608696,14.1565217 C70.3,14.0492754 70.0318841,13.942029 69.6028986,13.942029 C68.6913043,13.942029 68.1550725,14.6391304 68.1550725,15.4971014 C68.1550725,16.4086957 68.7449275,16.9985507 69.5492754,16.9985507 C69.9782609,16.9985507 70.2463768,16.8913043 70.4608696,16.784058 L70.6217391,17.373913" id="Path" fill="#02797E"></path>
                            <path d="M74.8043478,16.4086957 C74.8043478,16.8376812 74.8043478,17.2130435 74.857971,17.4811594 L74.2144928,17.4811594 L74.1608696,16.8376812 L74.1608696,16.8376812 C74,17.1594203 73.5173913,17.5884058 72.8202899,17.5884058 C72.1768116,17.5884058 71.426087,17.2130435 71.426087,15.8188406 L71.426087,13.4594203 L72.1768116,13.4594203 L72.1768116,15.657971 C72.1768116,16.4086957 72.4449275,16.9449275 73.0884058,16.9449275 C73.5710145,16.9449275 73.9463768,16.6231884 74.0536232,16.2478261 C74.1072464,16.1405797 74.1072464,16.0333333 74.1072464,15.8724638 L74.1072464,13.4057971 L74.857971,13.4057971 L74.857971,16.4086957" id="Path" fill="#02797E"></path>
                            <path d="M76.0376812,14.7463768 C76.0376812,14.2637681 76.0376812,13.8884058 75.984058,13.5130435 L76.6275362,13.5130435 L76.6811594,14.3173913 L76.6811594,14.3173913 C76.842029,13.7811594 77.3246377,13.4594203 77.8072464,13.4594203 C77.8608696,13.4594203 77.9681159,13.4594203 78.0217391,13.4594203 L78.0217391,14.1565217 C77.9144928,14.1565217 77.8608696,14.1565217 77.7536232,14.1565217 C77.2173913,14.1565217 76.8956522,14.5318841 76.7884058,15.0681159 C76.7884058,15.1753623 76.7884058,15.2826087 76.7884058,15.4434783 L76.7884058,17.5884058 L76.0376812,17.5884058 L76.0376812,14.7463768" id="Path" fill="#02797E"></path>
                            <path d="M79.1478261,12.7623188 C78.8797101,12.7623188 78.6652174,12.5478261 78.6652174,12.2797101 C78.6652174,12.0115942 78.8797101,11.7971014 79.1478261,11.7971014 C79.415942,11.7971014 79.6304348,12.0115942 79.6304348,12.2797101 C79.6304348,12.5478261 79.4695652,12.7623188 79.1478261,12.7623188 L79.1478261,12.7623188 M79.5231884,17.5347826 L78.826087,17.5347826 L78.826087,13.5130435 L79.5768116,13.5130435 L79.5768116,17.5347826 L79.5231884,17.5347826 Z" id="Shape" fill="#02797E"></path>
                            <path d="M81.6144928,12.5478261 L81.6144928,13.5130435 L82.6869565,13.5130435 L82.6869565,14.0492754 L81.6144928,14.0492754 L81.6144928,16.2478261 C81.6144928,16.7304348 81.7753623,17.0521739 82.1507246,17.0521739 C82.3652174,17.0521739 82.4724638,17.0521739 82.5797101,16.9985507 L82.6333333,17.5347826 C82.4724638,17.5884058 82.257971,17.642029 81.9898551,17.642029 C81.6681159,17.642029 81.4,17.5347826 81.1855072,17.3202899 C80.9710145,17.1057971 80.9173913,16.7304348 80.9173913,16.2478261 L80.9173913,14.0492754 L80.273913,14.0492754 L80.273913,13.5130435 L80.9173913,13.5130435 L80.9173913,12.7623188 L81.6144928,12.5478261" id="Path" fill="#02797E"></path>
                            <path d="M83.8666667,13.5130435 L84.7246377,15.8724638 C84.8318841,16.1405797 84.9391304,16.4623188 84.9927536,16.6768116 L84.9927536,16.6768116 C85.0463768,16.4623188 85.1536232,16.1405797 85.2608696,15.8188406 L86.0652174,13.4594203 L86.815942,13.4594203 L85.6898551,16.3550725 C85.1536232,17.7492754 84.8318841,18.4463768 84.2956522,18.8753623 C83.9202899,19.1971014 83.5985507,19.3043478 83.384058,19.357971 L83.2231884,18.7681159 C83.384058,18.7144928 83.6521739,18.6072464 83.8666667,18.3927536 C84.0811594,18.2318841 84.2956522,17.9637681 84.4565217,17.5884058 C84.5101449,17.5347826 84.5101449,17.4811594 84.5101449,17.4275362 C84.5101449,17.373913 84.5101449,17.3202899 84.4565217,17.2666667 L82.9550725,13.5666667 L83.8666667,13.5666667" id="Path" fill="#02797E"></path>
                            <path d="M59.3608696,24.9347826 C59.6826087,25.1492754 60.1652174,25.3101449 60.6478261,25.3101449 C61.3985507,25.3101449 61.8275362,24.9347826 61.8275362,24.3449275 C61.8275362,23.8086957 61.5057971,23.5405797 60.7550725,23.2188406 C59.8434783,22.8971014 59.2536232,22.4144928 59.2536232,21.6101449 C59.2536232,20.7521739 60.0043478,20.1086957 61.0768116,20.1086957 C61.6666667,20.1086957 62.042029,20.215942 62.3101449,20.3768116 L62.0956522,20.9666667 C61.9347826,20.8594203 61.5594203,20.6985507 61.0231884,20.6985507 C60.2724638,20.6985507 59.9507246,21.1811594 59.9507246,21.5565217 C59.9507246,22.0927536 60.2724638,22.3608696 61.0768116,22.6289855 C62.042029,23.0043478 62.4710145,23.4333333 62.4710145,24.2913043 C62.4710145,25.1492754 61.8275362,25.9 60.5405797,25.9 C60.0043478,25.9 59.4144928,25.7391304 59.0927536,25.5246377 L59.3608696,24.9347826" id="Path" fill="#02797E"></path>
                            <path d="M64.3478261,20.8594203 L64.3478261,21.8246377 L65.4202899,21.8246377 L65.4202899,22.3608696 L64.3478261,22.3608696 L64.3478261,24.5057971 C64.3478261,24.9884058 64.5086957,25.3101449 64.884058,25.3101449 C65.0985507,25.3101449 65.2057971,25.3101449 65.3130435,25.2565217 L65.3666667,25.7927536 C65.2057971,25.8463768 64.9913043,25.9 64.7231884,25.9 C64.4014493,25.9 64.1333333,25.7927536 63.9188406,25.5782609 C63.7043478,25.3637681 63.6507246,24.9884058 63.6507246,24.5057971 L63.6507246,22.3072464 L63.0072464,22.3072464 L63.0072464,21.7710145 L63.6507246,21.7710145 L63.6507246,21.0202899 L64.3478261,20.8594203" id="Path" fill="#02797E"></path>
                            <path d="M69.0666667,24.8811594 C69.0666667,25.2565217 69.0666667,25.5782609 69.1202899,25.8463768 L68.4768116,25.8463768 L68.4231884,25.3637681 L68.4231884,25.3637681 C68.2086957,25.6855072 67.7797101,25.9536232 67.1898551,25.9536232 C66.3855072,25.9536232 65.9565217,25.3637681 65.9565217,24.773913 C65.9565217,23.8086957 66.8144928,23.2724638 68.3695652,23.2724638 L68.3695652,23.1652174 C68.3695652,22.8434783 68.2623188,22.2 67.457971,22.2536232 C67.0826087,22.2536232 66.7072464,22.3608696 66.3855072,22.5753623 L66.2246377,22.0927536 C66.5463768,21.8782609 67.0289855,21.7710145 67.5652174,21.7710145 C68.7985507,21.7710145 69.1202899,22.6289855 69.1202899,23.4333333 L69.1202899,24.8811594 M68.3695652,23.8086957 C67.5652174,23.8086957 66.6536232,23.915942 66.6536232,24.7202899 C66.6536232,25.2028986 66.9753623,25.4173913 67.3507246,25.4173913 C67.8869565,25.4173913 68.2086957,25.0956522 68.315942,24.7202899 C68.315942,24.6666667 68.3695652,24.5594203 68.3695652,24.5057971 L68.3695652,23.8086957 L68.3695652,23.8086957 Z" id="Shape" fill="#02797E"></path>
                            <path d="M70.2463768,22.8971014 C70.2463768,22.4681159 70.2463768,22.1463768 70.1927536,21.8246377 L70.8362319,21.8246377 L70.8898551,22.4681159 L70.8898551,22.4681159 C71.1043478,22.0927536 71.5333333,21.7173913 72.2304348,21.7173913 C72.7666667,21.7173913 73.6782609,22.0391304 73.6782609,23.4333333 L73.6782609,25.8463768 L72.9275362,25.8463768 L72.9275362,23.5405797 C72.9275362,22.8971014 72.6594203,22.3608696 72.015942,22.3608696 C71.5333333,22.3608696 71.157971,22.6826087 71.0507246,23.1115942 C70.9971014,23.2188406 70.9971014,23.326087 70.9971014,23.4333333 L70.9971014,25.8463768 L70.2463768,25.8463768 L70.2463768,22.8971014" id="Path" fill="#02797E"></path>
                            <path d="M78.3434783,19.9478261 L78.3434783,24.8275362 C78.3434783,25.2028986 78.3434783,25.5782609 78.3971014,25.8463768 L77.7536232,25.8463768 L77.7,25.1492754 L77.7,25.1492754 C77.4855072,25.5782609 77.0028986,25.9536232 76.3594203,25.9536232 C75.3942029,25.9536232 74.6434783,25.1492754 74.6434783,23.915942 C74.6434783,22.5753623 75.5014493,21.7710145 76.4666667,21.7710145 C77.1101449,21.7710145 77.4855072,22.0391304 77.7,22.3608696 L77.7,22.3608696 L77.7,19.9478261 L78.3434783,19.9478261 M77.5927536,23.4333333 C77.5927536,23.326087 77.5927536,23.2188406 77.5391304,23.1115942 C77.4318841,22.6289855 77.0565217,22.2536232 76.4666667,22.2536232 C75.715942,22.2536232 75.2333333,22.8971014 75.2333333,23.8086957 C75.2333333,24.6130435 75.6623188,25.3101449 76.4130435,25.3101449 C76.8956522,25.3101449 77.3246377,24.9884058 77.4855072,24.4521739 C77.5391304,24.3449275 77.5391304,24.2376812 77.5391304,24.1304348 L77.5391304,23.4333333 L77.5927536,23.4333333 Z" id="Shape" fill="#02797E"></path>
                            <path d="M82.4188406,24.8811594 C82.4188406,25.2565217 82.4188406,25.5782609 82.4724638,25.8463768 L81.8289855,25.8463768 L81.7753623,25.3637681 L81.7753623,25.3637681 C81.5608696,25.6855072 81.1318841,25.9536232 80.542029,25.9536232 C79.7376812,25.9536232 79.3086957,25.3637681 79.3086957,24.773913 C79.3086957,23.8086957 80.1666667,23.2724638 81.7217391,23.2724638 L81.7217391,23.1652174 C81.7217391,22.8434783 81.6144928,22.2 80.8101449,22.2536232 C80.4347826,22.2536232 80.0594203,22.3608696 79.7376812,22.5753623 L79.5768116,22.0927536 C79.8985507,21.8782609 80.3811594,21.7710145 80.9173913,21.7710145 C82.1507246,21.7710145 82.4724638,22.6289855 82.4724638,23.4333333 L82.4724638,24.8811594 M81.6681159,23.8086957 C80.8637681,23.8086957 79.9521739,23.915942 79.9521739,24.7202899 C79.9521739,25.2028986 80.273913,25.4173913 80.6492754,25.4173913 C81.1855072,25.4173913 81.5072464,25.0956522 81.6144928,24.7202899 C81.6144928,24.6666667 81.6681159,24.5594203 81.6681159,24.5057971 L81.6681159,23.8086957 L81.6681159,23.8086957 Z" id="Shape" fill="#02797E"></path>
                            <path d="M83.5985507,23.057971 C83.5985507,22.5753623 83.5985507,22.2 83.5449275,21.8246377 L84.1884058,21.8246377 L84.242029,22.6289855 L84.2956522,22.6289855 C84.4565217,22.0927536 84.9391304,21.7710145 85.4217391,21.7710145 C85.4753623,21.7710145 85.5289855,21.7710145 85.6362319,21.7710145 L85.6362319,22.4681159 C85.5289855,22.4681159 85.4753623,22.4681159 85.3681159,22.4681159 C84.8318841,22.4681159 84.5101449,22.8434783 84.4028986,23.3797101 C84.4028986,23.4869565 84.4028986,23.5942029 84.4028986,23.7550725 L84.4028986,25.9 L83.6521739,25.9 L83.5985507,23.057971" id="Path" fill="#02797E"></path>
                            <path d="M89.7115942,19.9478261 L89.7115942,24.8275362 C89.7115942,25.2028986 89.7115942,25.5782609 89.7652174,25.8463768 L89.1217391,25.8463768 L89.0681159,25.1492754 L89.0681159,25.1492754 C88.8536232,25.5782609 88.3710145,25.9536232 87.673913,25.9536232 C86.7086957,25.9536232 85.957971,25.1492754 85.957971,23.915942 C85.957971,22.5753623 86.7623188,21.7710145 87.7811594,21.7710145 C88.4246377,21.7710145 88.8,22.0391304 89.0144928,22.3608696 L89.0144928,22.3608696 L89.0144928,19.9478261 L89.7115942,19.9478261 M89.0144928,23.4333333 C89.0144928,23.326087 89.0144928,23.2188406 88.9608696,23.1115942 C88.8536232,22.6289855 88.4246377,22.2536232 87.8884058,22.2536232 C87.1376812,22.2536232 86.7086957,22.8971014 86.7086957,23.8086957 C86.7086957,24.6130435 87.1376812,25.3101449 87.8884058,25.3101449 C88.3710145,25.3101449 88.8536232,24.9884058 88.9608696,24.4521739 C88.9608696,24.3449275 89.0144928,24.2376812 89.0144928,24.1304348 L89.0144928,23.4333333 Z" id="Shape" fill="#02797E"></path>
                            <path d="M90.8376812,25.0956522 C91.0521739,25.2565217 91.4275362,25.3637681 91.8028986,25.3637681 C92.3391304,25.3637681 92.5536232,25.0956522 92.5536232,24.773913 C92.5536232,24.3985507 92.3391304,24.2376812 91.8028986,24.0231884 C91.0521739,23.7550725 90.7304348,23.3797101 90.7304348,22.8971014 C90.7304348,22.2536232 91.2666667,21.7173913 92.1246377,21.7173913 C92.5536232,21.7173913 92.8753623,21.8246377 93.0898551,21.9855072 L92.9289855,22.5217391 C92.7681159,22.4144928 92.5,22.3072464 92.1246377,22.3072464 C91.6956522,22.3072464 91.4811594,22.5753623 91.4811594,22.8434783 C91.4811594,23.1652174 91.6956522,23.326087 92.2318841,23.5405797 C92.9289855,23.8086957 93.3043478,24.1304348 93.3043478,24.773913 C93.3043478,25.4710145 92.7681159,26.0072464 91.8028986,26.0072464 C91.373913,26.0072464 90.9449275,25.9 90.6768116,25.7391304 L90.8376812,25.0956522" id="Path" fill="#02797E"></path>
                            <path d="M99.9536232,25.6855072 C99.6855072,25.7927536 99.1492754,25.9536232 98.4521739,25.9536232 C96.8971014,25.9536232 95.6637681,24.9347826 95.6637681,23.1115942 C95.6637681,21.342029 96.8434783,20.1623188 98.6130435,20.1623188 C99.3101449,20.1623188 99.7391304,20.3231884 99.9536232,20.4304348 L99.7927536,21.0202899 C99.5246377,20.9130435 99.1492754,20.8057971 98.6666667,20.8057971 C97.326087,20.8057971 96.4681159,21.6637681 96.4681159,23.1115942 C96.4681159,24.5057971 97.2724638,25.3637681 98.6130435,25.3637681 C99.042029,25.3637681 99.5246377,25.2565217 99.7927536,25.1492754 L99.9536232,25.6855072" id="Path" fill="#02797E"></path>
                            <path d="M102.366667,25.9536232 C101.294203,25.9536232 100.436232,25.1492754 100.436232,23.8623188 C100.436232,22.5217391 101.347826,21.7173913 102.42029,21.7173913 C103.6,21.7173913 104.350725,22.5753623 104.350725,23.7550725 C104.350725,25.2565217 103.331884,25.9536232 102.366667,25.9536232 L102.366667,25.9536232 M102.366667,25.3637681 C103.063768,25.3637681 103.6,24.7202899 103.6,23.8086957 C103.6,23.1115942 103.278261,22.2536232 102.366667,22.2536232 C101.508696,22.2536232 101.133333,23.057971 101.133333,23.8086957 C101.186957,24.7202899 101.669565,25.3637681 102.366667,25.3637681 L102.366667,25.3637681 Z" id="Shape" fill="#02797E"></path>
                            <path d="M108.64058,24.7202899 C108.64058,25.1492754 108.64058,25.5246377 108.694203,25.7927536 L108.050725,25.7927536 L107.997101,25.1492754 L107.997101,25.1492754 C107.836232,25.4710145 107.353623,25.9 106.656522,25.9 C106.013043,25.9 105.262319,25.5246377 105.262319,24.1304348 L105.262319,21.7710145 L106.013043,21.7710145 L106.013043,23.9695652 C106.013043,24.7202899 106.227536,25.2565217 106.924638,25.2565217 C107.407246,25.2565217 107.728986,24.9347826 107.889855,24.5594203 C107.943478,24.4521739 107.943478,24.3449275 107.943478,24.184058 L107.943478,21.7173913 L108.694203,21.7173913 L108.694203,24.7202899" id="Path" fill="#02797E"></path>
                            <path d="M109.873913,22.8971014 C109.873913,22.4681159 109.873913,22.1463768 109.82029,21.8246377 L110.463768,21.8246377 L110.517391,22.4681159 L110.517391,22.4681159 C110.731884,22.0927536 111.16087,21.7173913 111.857971,21.7173913 C112.394203,21.7173913 113.305797,22.0391304 113.305797,23.4333333 L113.305797,25.8463768 L112.555072,25.8463768 L112.555072,23.5405797 C112.555072,22.8971014 112.286957,22.3608696 111.643478,22.3608696 C111.16087,22.3608696 110.785507,22.6826087 110.678261,23.1115942 C110.624638,23.2188406 110.624638,23.326087 110.624638,23.4333333 L110.624638,25.8463768 L109.873913,25.8463768 L109.873913,22.8971014" id="Path" fill="#02797E"></path>
                            <path d="M117.381159,25.6855072 C117.166667,25.7927536 116.791304,25.9 116.201449,25.9 C114.968116,25.9 114.217391,25.0956522 114.217391,23.8623188 C114.217391,22.6289855 115.075362,21.7173913 116.362319,21.7173913 C116.791304,21.7173913 117.166667,21.8246377 117.381159,21.9318841 L117.22029,22.4681159 C117.05942,22.3608696 116.791304,22.2536232 116.362319,22.2536232 C115.450725,22.2536232 114.914493,22.9507246 114.914493,23.8086957 C114.914493,24.7202899 115.504348,25.3101449 116.308696,25.3101449 C116.737681,25.3101449 117.005797,25.2028986 117.22029,25.0956522 L117.381159,25.6855072" id="Path" fill="#02797E"></path>
                            <path d="M118.56087,21.073913 C118.292754,21.073913 118.078261,20.8594203 118.078261,20.5913043 C118.078261,20.3231884 118.292754,20.1086957 118.56087,20.1086957 C118.828986,20.1086957 119.043478,20.3231884 119.043478,20.5913043 C119.043478,20.8594203 118.882609,21.073913 118.56087,21.073913 L118.56087,21.073913 M118.936232,25.8463768 L118.185507,25.8463768 L118.185507,21.8246377 L118.936232,21.8246377 L118.936232,25.8463768 Z" id="Shape" fill="#02797E"></path>
                            <rect id="Rectangle" fill="#02797E" x="120.169565" y="19.9478261" width="1" height="5.89855072"></rect>
                            <polyline id="Path" fill="#02797E" points="55.6072464 23.1652174 12.5478261 36.6782609 0 2.52028986 45.2043478 0 55.6072464 23.1652174"></polyline>
                            <path d="M23.057971,16.3014493 C23.057971,17.1594203 22.8434783,17.9101449 22.4681159,18.6072464 C22.0927536,19.2507246 21.5565217,19.8405797 20.8594203,20.2695652 C20.1623188,20.6985507 19.3043478,21.0202899 18.3391304,21.2347826 C17.373913,21.4492754 16.3014493,21.5565217 15.0681159,21.5565217 L14.2101449,21.5565217 L14.2101449,25.9536232 L8.63333333,25.9536232 L8.63333333,11.3144928 L15.1753623,11.3144928 C17.642029,11.3144928 19.5724638,11.7434783 20.9666667,12.5478261 C22.3608696,13.3521739 23.057971,14.6391304 23.057971,16.3014493 M17.6956522,16.3550725 C17.6956522,15.0681159 16.7304348,14.4246377 14.8536232,14.4246377 L14.1565217,14.4246377 L14.1565217,18.3391304 L14.8,18.3391304 C15.7115942,18.3391304 16.4623188,18.1782609 16.9449275,17.8565217 C17.4275362,17.5884058 17.6956522,17.0521739 17.6956522,16.3550725 Z" id="Shape" fill="#F4F5FF"></path>
                            <path d="M36.8927536,25.9536232 C36.0347826,26.1144928 35.0695652,26.2217391 33.9434783,26.2217391 C32.3884058,26.2217391 30.9942029,26.0608696 29.8144928,25.6855072 C28.5811594,25.3101449 27.5623188,24.8275362 26.7043478,24.184058 C25.8463768,23.5405797 25.2028986,22.7362319 24.773913,21.8246377 C24.3449275,20.8594203 24.1304348,19.8405797 24.1304348,18.7144928 C24.1304348,17.5884058 24.3449275,16.5695652 24.8275362,15.6043478 C25.3101449,14.6927536 25.9536232,13.8884058 26.8115942,13.1913043 C27.6695652,12.5478261 28.6884058,12.0115942 29.8681159,11.6362319 C31.0478261,11.2608696 32.3347826,11.1 33.7289855,11.1 C34.8014493,11.1 35.8202899,11.1536232 36.7318841,11.3144928 C37.6434783,11.5289855 37.6434783,11.5289855 38.3405797,11.7971014 L38.3405797,15.7115942 C37.8043478,15.3898551 37.1608696,15.1217391 36.4637681,14.9608696 C35.7666667,14.7463768 35.015942,14.6391304 34.2652174,14.6391304 C32.9782609,14.6391304 31.9594203,15.0144928 31.1550725,15.657971 C30.3507246,16.3550725 29.9753623,17.3202899 29.9753623,18.6608696 C29.9753623,19.3043478 30.0826087,19.8942029 30.3507246,20.4304348 C30.6188406,20.9130435 30.9405797,21.342029 31.3695652,21.6637681 C31.7985507,21.9855072 32.2811594,22.2536232 32.8710145,22.4144928 C33.4608696,22.5753623 34.0507246,22.6826087 34.6942029,22.6826087 C35.3376812,22.6826087 36.0347826,22.6289855 36.6782609,22.4681159 C37.3217391,22.3072464 38.0188406,22.1463768 38.715942,21.8246377 L38.715942,25.5246377 C37.857971,25.7391304 37.7507246,25.7927536 36.8927536,25.9536232" id="Path" fill="#F4F5FF"></path>
                            <rect id="Rectangle" fill="#F4F5FF" x="41.0217391" y="11.3144928" width="5.63043478" height="14.6927536"></rect>
                            <path d="M47.242029,6.70289855 C47.242029,7.66811594 46.9202899,8.47246377 46.2768116,9.00869565 C45.6333333,9.54492754 44.8289855,9.86666667 43.8637681,9.86666667 C42.8985507,9.86666667 42.0942029,9.59855072 41.4507246,9.00869565 C40.8072464,8.47246377 40.4855072,7.66811594 40.4855072,6.70289855 C40.4855072,5.68405797 40.8072464,4.93333333 41.4507246,4.34347826 C42.0942029,3.75362319 42.8985507,3.48550725 43.8637681,3.48550725 C44.8289855,3.48550725 45.6333333,3.75362319 46.2768116,4.34347826 C46.9202899,4.87971014 47.242029,5.68405797 47.242029,6.70289855" id="Path" fill="#F4F5FF"></path>
                        </g>
                        <path d="M121.081159,13.1376812 C121.081159,14.0492754 120.330435,14.8 119.365217,14.8 C118.4,14.8 117.649275,14.0492754 117.649275,13.1376812 C117.649275,12.226087 118.4,11.4753623 119.365217,11.4753623 C120.330435,11.4753623 121.081159,12.226087 121.081159,13.1376812 Z M118.185507,13.1376812 C118.185507,13.8347826 118.721739,14.3710145 119.365217,14.3710145 C120.062319,14.3710145 120.544928,13.8347826 120.544928,13.1376812 C120.544928,12.4405797 120.008696,11.9043478 119.311594,11.9043478 C118.668116,11.9043478 118.185507,12.4405797 118.185507,13.1376812 Z M119.150725,13.942029 L118.668116,13.942029 L118.668116,12.3869565 C118.775362,12.3869565 119.043478,12.3333333 119.365217,12.3333333 C119.686957,12.3333333 119.847826,12.3869565 119.955072,12.4405797 C120.062319,12.4942029 120.115942,12.6014493 120.115942,12.7623188 C120.115942,12.9231884 119.955072,13.0304348 119.74058,13.084058 L119.74058,13.084058 C119.901449,13.1376812 120.008696,13.2449275 120.062319,13.4594203 C120.115942,13.673913 120.115942,13.7811594 120.169565,13.8347826 L119.633333,13.8347826 C119.57971,13.7811594 119.57971,13.6202899 119.526087,13.5130435 C119.472464,13.3521739 119.418841,13.2985507 119.257971,13.2985507 L119.097101,13.2985507 L119.097101,13.942029 L119.150725,13.942029 Z M119.204348,13.084058 L119.365217,13.084058 C119.526087,13.084058 119.633333,13.0304348 119.633333,12.9231884 C119.633333,12.815942 119.526087,12.7086957 119.365217,12.7086957 C119.311594,12.7086957 119.257971,12.7086957 119.204348,12.7086957 L119.204348,13.084058 Z" id="Shape" fill="#02797E"></path>
                    </g>
                </g>
            </g>
        </g>
    </g>
</svg>