<svg width="100" height="100" viewBox="0 0 100 100" fill="none" xmlns="http://www.w3.org/2000/svg">
<rect width="100" height="100" fill="none"/>
<path d="M59.6638 33.5973H41.0762V67.0089H59.6638V33.5973Z" fill="#7375CF"/>
<path d="M42.257 50.3029C42.2541 47.0851 42.983 43.9088 44.3887 41.0145C45.7944 38.1202 47.84 35.5837 50.3706 33.5971C47.2368 31.1332 43.4732 29.6009 39.51 29.1754C35.5468 28.7499 31.5439 29.4484 27.9587 31.1909C24.3736 32.9335 21.3509 35.6498 19.2362 39.0295C17.1215 42.4092 16 46.3158 16 50.3029C16 54.29 17.1215 58.1966 19.2362 61.5763C21.3509 64.956 24.3736 67.6723 27.9587 69.4149C31.5439 71.1574 35.5468 71.8559 39.51 71.4304C43.4732 71.0049 47.2368 69.4726 50.3706 67.0087C47.84 65.0221 45.7944 62.4856 44.3888 59.5913C42.9831 56.6969 42.2541 53.5207 42.257 50.3029Z" fill="#EB001B"/>
<path d="M82.7126 63.4699V62.7859H82.9884V62.6465H82.2861V62.7859H82.562V63.4699H82.7126ZM84.076 63.4699V62.6451H83.8608L83.6132 63.2124L83.3655 62.6451H83.1501V63.4699H83.3021V62.8478L83.5343 63.3841H83.6919L83.9241 62.8464V63.4699H84.076Z" fill="#00A2E5"/>
<path d="M84.7397 50.3029C84.7398 54.2899 83.6185 58.1965 81.5039 61.5762C79.3892 64.9559 76.3667 67.6722 72.7816 69.4148C69.1965 71.1574 65.1937 71.8558 61.2305 71.4304C57.2673 71.0049 53.5038 69.4726 50.3701 67.0087C52.8985 65.0201 54.9425 62.4832 56.3479 59.5893C57.7534 56.6954 58.4837 53.5202 58.4837 50.3029C58.4837 47.0856 57.7534 43.9103 56.3479 41.0165C54.9425 38.1226 52.8985 35.5857 50.3701 33.5971C53.5038 31.1332 57.2673 29.6009 61.2305 29.1754C65.1937 28.7499 69.1965 29.4484 72.7816 31.191C76.3667 32.9335 79.3892 35.6499 81.5039 39.0296C83.6185 42.4093 84.7398 46.3159 84.7397 50.3029Z" fill="#00A2E5"/>
</svg>
