<svg width="100" height="100" viewBox="0 0 100 100" fill="none" xmlns="http://www.w3.org/2000/svg">
<rect width="100" height="100" fill="none"/>
<path d="M58.8037 32.4738H40.5762V66.7896H58.8037V32.4738Z" fill="#FF5F00"/>
<path d="M41.7483 49.643C41.7454 46.3381 42.4602 43.0759 43.8387 40.1032C45.2172 37.1306 47.2231 34.5255 49.7047 32.485C46.6316 29.9545 42.9409 28.3807 39.0545 27.9437C35.1681 27.5067 31.2427 28.2241 27.727 30.0138C24.2114 31.8035 21.2472 34.5934 19.1735 38.0645C17.0997 41.5356 16 45.548 16 49.643C16 53.7379 17.0997 57.7503 19.1735 61.2214C21.2472 64.6926 24.2114 67.4825 27.727 69.2722C31.2427 71.0619 35.1681 71.7792 39.0545 71.3422C42.9409 70.9052 46.6316 69.3315 49.7047 66.8009C47.2231 64.7605 45.2172 62.1553 43.8387 59.1827C42.4603 56.2101 41.7454 52.9478 41.7483 49.643Z" fill="#EB001B"/>
<path d="M83.397 49.643C83.3971 53.7379 82.2975 57.7502 80.2239 61.2214C78.1503 64.6925 75.1862 67.4824 71.6706 69.2722C68.155 71.0619 64.2297 71.7792 60.3433 71.3422C56.4569 70.9052 52.7663 69.3315 49.6934 66.8009C52.1727 64.7584 54.1771 62.1529 55.5553 59.1807C56.9336 56.2085 57.6497 52.9473 57.6497 49.643C57.6497 46.3386 56.9336 43.0774 55.5553 40.1053C54.1771 37.1331 52.1727 34.5275 49.6934 32.4851C52.7663 29.9545 56.4569 28.3807 60.3433 27.9437C64.2297 27.5067 68.155 28.2241 71.6706 30.0138C75.1862 31.8036 78.1503 34.5934 80.2239 38.0646C82.2975 41.5357 83.3971 45.5481 83.397 49.643Z" fill="#F79E1B"/>
<path d="M81.4241 63.1584V62.4558H81.6945V62.3127H81.0059V62.4558H81.2764V63.1584H81.4241ZM82.7611 63.1584V62.3113H82.55L82.3072 62.8939L82.0643 62.3113H81.8531V63.1584H82.0022V62.5194L82.2299 63.0703H82.3845L82.6121 62.518V63.1584H82.7611Z" fill="#F79E1B"/>
</svg>
