<svg width="100" height="100" viewBox="0 0 100 100" fill="none" xmlns="http://www.w3.org/2000/svg">
<rect width="100" height="100" fill="none"/>
<path fill-rule="evenodd" clip-rule="evenodd" d="M14.5382 38.0041C15.3165 37.9994 17.6295 37.789 18.6092 41.129C19.2692 43.3789 20.3205 47.0642 21.7631 52.1852H22.3506C23.8976 46.7863 24.9604 43.1009 25.5388 41.129C26.5288 37.7542 29.0036 38.0042 29.9936 38.0042L37.6312 38.0042V62.0027H29.8467V47.86H29.3247L24.9852 62.0027H19.1284L14.7889 47.8495H14.2669V62.0027H6.48242V38.0042L14.5382 38.0041ZM48.8096 38.0042V52.1574H49.4306L54.7092 40.5193C55.7338 38.2033 57.9177 38.0042 57.9177 38.0042H65.4508V62.0028H57.5037V47.8495H56.8827L51.7076 59.4876C50.683 61.7932 48.3956 62.0028 48.3956 62.0028H40.8625V38.0042H48.8096ZM92.9194 49.4085C91.8109 52.5815 88.3296 54.854 84.4754 54.854H76.1414V62.0028H68.5842V49.4085H92.9194Z" fill="#0F754E"/>
<path fill-rule="evenodd" clip-rule="evenodd" d="M84.8405 38.0042H68.1885C68.5848 43.3471 73.1399 47.9209 77.8555 47.9209H93.4451C94.3448 43.4803 91.2477 38.0042 84.8405 38.0042Z" fill="url(#paint0_linear_0_140)"/>
<defs>
<linearGradient id="paint0_linear_0_140" x1="93.598" y1="44.2422" x2="68.1885" y2="44.2422" gradientUnits="userSpaceOnUse">
<stop stop-color="#1F5CD7"/>
<stop offset="1" stop-color="#02AEFF"/>
</linearGradient>
</defs>
</svg>
