<svg width="100" height="100" viewBox="0 0 100 100" fill="none" xmlns="http://www.w3.org/2000/svg">
<rect width="100" height="100" fill="none"/>
<path d="M67.1268 59.2064C67.281 60.2865 66.921 60.7494 66.6125 60.7494C66.2524 60.7494 65.7896 60.2865 65.2239 59.4636C64.6581 58.5893 64.4524 57.6121 64.761 57.1492C64.9153 56.8406 65.3267 56.6863 65.7896 56.8406C66.6639 57.1492 67.0239 58.5378 67.1268 59.2064ZM62.0352 61.5208C63.1152 62.4466 63.4753 63.5781 62.9095 64.3495C62.6009 64.761 62.0866 65.0181 61.418 65.0181C60.8009 65.0181 60.1837 64.8124 59.7209 64.401C58.7437 63.5266 58.4351 62.0866 59.1037 61.3151C59.3609 61.0065 59.7723 60.8522 60.2866 60.8522C60.8523 60.8522 61.4695 61.1094 62.0352 61.5208ZM60.1837 70.5212C64.9153 70.5212 70.0583 72.167 75.767 77.2072C76.3327 77.7215 77.1041 77.1044 76.5898 76.4358C70.984 69.3898 65.841 68.0526 60.698 66.9211C54.3722 65.5324 51.1321 61.9837 48.8692 58.075C48.4063 57.3035 48.2006 57.4578 48.2006 58.435C48.1492 59.6693 48.252 61.2637 48.5092 62.858C48.252 62.858 47.9949 62.858 47.7377 62.858C38.7375 62.858 31.383 55.5549 31.383 46.503C31.383 37.5027 38.6861 30.148 47.7377 30.148C56.7894 30.148 64.0924 37.4512 64.0924 46.503C64.0924 47.1202 64.041 47.7888 63.9895 48.406C62.8066 48.2003 60.4409 48.1488 58.7951 48.3031C58.178 48.3546 58.2808 48.6631 58.7437 48.7146C64.1438 49.6917 67.8468 53.0348 68.7211 59.1036C68.7211 59.2579 68.9268 59.3093 68.9782 59.155C71.1897 55.452 72.4754 51.1318 72.4754 46.4516C72.4754 32.8224 61.4181 21.7134 47.7377 21.7134C34.0574 21.7134 23 32.771 23 46.4516C23 60.0808 34.0574 71.1898 47.7377 71.1898C51.3378 71.2413 54.9379 70.5212 60.1837 70.5212Z" fill="#FF8C00"/>
</svg>
