<svg width="100" height="100" viewBox="0 0 100 100" fill="none" xmlns="http://www.w3.org/2000/svg">
<rect width="100" height="100" fill="none"/>
<path d="M44.572 62.7124H38.042L42.1263 37.4579H48.656L44.572 62.7124Z" fill="#00579F"/>
<path d="M68.2436 38.0752C66.9556 37.5642 64.9127 37 62.3867 37C55.938 37 51.397 40.4387 51.3691 45.3551C51.3156 48.9824 54.6204 50.9971 57.0921 52.2065C59.6185 53.4424 60.4773 54.249 60.4773 55.3507C60.4516 57.0425 58.4359 57.8224 56.5558 57.8224C53.9487 57.8224 52.5518 57.4203 50.4289 56.479L49.5691 56.0755L48.6553 61.7446C50.1868 62.4424 53.0085 63.0616 55.938 63.0887C62.7898 63.0887 67.2505 59.7032 67.3034 54.464C67.3294 51.5891 65.5844 49.3862 61.8221 47.5862C59.5382 46.4306 58.1395 45.6515 58.1395 44.4692C58.1663 43.3943 59.3225 42.2934 61.9007 42.2934C64.0235 42.2395 65.5833 42.7498 66.7649 43.2604L67.3555 43.5286L68.2436 38.0752Z" fill="#00579F"/>
<path d="M76.9233 53.7656C77.4611 52.3148 79.5304 46.6996 79.5304 46.6996C79.5033 46.7535 80.0671 45.222 80.3896 44.2818L80.8459 46.4579C80.8459 46.4579 82.0825 52.503 82.3511 53.7656C81.3305 53.7656 78.2131 53.7656 76.9233 53.7656ZM84.9839 37.4579H79.9329C78.3753 37.4579 77.1919 37.9142 76.5198 39.5533L66.8203 62.7121H73.6721C73.6721 62.7121 74.8001 59.5951 75.0426 58.9238C75.7942 58.9238 82.4596 58.9238 83.4266 58.9238C83.6141 59.8104 84.2058 62.7121 84.2058 62.7121H90.2519L84.9839 37.4579Z" fill="#00579F"/>
<path d="M32.5879 37.4579L26.1928 54.6791L25.494 51.1864C24.3117 47.1563 20.6037 42.7778 16.4658 40.6006L22.3235 62.6857H29.2288L39.4929 37.4579H32.5879Z" fill="#00579F"/>
<path d="M20.2543 37.4579H9.74811L9.64062 37.9682C17.8361 40.0639 23.2638 45.1156 25.4938 51.1875L23.2099 39.5808C22.8339 37.9678 21.6784 37.5111 20.2543 37.4579Z" fill="#00579F"/>
</svg>
