<svg width="100" height="100" viewBox="0 0 100 100" fill="none" xmlns="http://www.w3.org/2000/svg">
<rect width="100" height="100" fill="none"/>
<path d="M58.6551 29.6093C47.1091 29.6093 37.9248 38.9245 37.9248 50.3388C37.9248 61.8844 47.2404 71.0684 58.6551 71.0684C70.0699 71.0684 79.3855 61.7532 79.3855 50.3388C79.5167 38.9245 70.0699 29.6093 58.6551 29.6093ZM58.6551 58.0796C54.4566 58.0796 50.914 54.5372 50.914 50.3388C50.914 46.1404 54.4566 42.5981 58.6551 42.5981C62.8537 42.5981 66.3962 46.1404 66.3962 50.3388C66.3962 54.5372 62.9849 58.0796 58.6551 58.0796Z" fill="#8B3FFD"/>
<path d="M37.9254 35.6443V65.8203H30.4467L21 35.6443H37.9254Z" fill="#8B3FFD"/>
</svg>
