<svg width="16" height="16" viewBox="0 0 16 16" fill="none" xmlns="http://www.w3.org/2000/svg">
<path fill-rule="evenodd" clip-rule="evenodd" d="M8.00033 2.00008C4.68852 2.00008 2.00033 4.68827 2.00033 8.00008C2.00033 11.3119 4.68852 14.0001 8.00033 14.0001C11.3121 14.0001 14.0003 11.3119 14.0003 8.00008C14.0003 4.68827 11.3121 2.00008 8.00033 2.00008ZM0.666992 8.00008C0.666992 3.95189 3.95214 0.666748 8.00033 0.666748C12.0485 0.666748 15.3337 3.95189 15.3337 8.00008C15.3337 12.0483 12.0485 15.3334 8.00033 15.3334C3.95214 15.3334 0.666992 12.0483 0.666992 8.00008Z" fill="#F45730"/>
<path fill-rule="evenodd" clip-rule="evenodd" d="M7.75358 4.34009C8.12177 4.34009 8.42025 4.63856 8.42025 5.00675V7.74009C8.42025 7.80657 8.44792 7.92662 8.52436 8.06066C8.60083 8.19475 8.69003 8.27959 8.74678 8.31323L8.74855 8.31428L8.74855 8.31428L10.8152 9.54761C11.1314 9.73629 11.2347 10.1456 11.0461 10.4617C10.8574 10.7779 10.4481 10.8812 10.1319 10.6926L8.06705 9.46028C8.0667 9.46008 8.06635 9.45987 8.066 9.45966C7.76326 9.27994 7.52615 9.00177 7.36613 8.72118C7.20591 8.44022 7.08691 8.0936 7.08691 7.74009V5.00675C7.08691 4.63856 7.38539 4.34009 7.75358 4.34009Z" fill="#F45730"/>
</svg>
