<svg width="83" height="110" viewBox="0 0 83 110" fill="none" xmlns="http://www.w3.org/2000/svg">
<path d="M67.0135 50.9463V68.5085C67.0135 75.4189 66.1992 81.427 64.5707 86.5328C62.9861 91.6386 60.6973 95.8641 57.7043 99.2092C54.7552 102.554 51.234 105.041 47.1406 106.67C43.0471 108.298 38.5355 109.113 33.6058 109.113C29.6444 109.113 25.9471 108.607 22.5139 107.594C19.0807 106.538 15.9776 104.953 13.2046 102.841C10.4757 100.684 8.12085 97.9988 6.14016 94.7857C4.15946 91.5726 2.64093 87.7872 1.58456 83.4297C0.528185 79.0282 0 74.0544 0 68.5085V50.9463C0 43.9919 0.792278 37.9837 2.37683 32.922C4.00541 27.8162 6.31622 23.5907 9.30927 20.2455C12.3023 16.9003 15.8456 14.4135 19.939 12.7849C24.0324 11.1563 28.544 10.342 33.4738 10.342C37.4351 10.342 41.1104 10.8702 44.4996 11.9266C47.9328 12.939 51.0359 14.5235 53.8089 16.6803C56.5819 18.793 58.9367 21.4559 60.8734 24.6691C62.8541 27.8822 64.3726 31.6895 65.429 36.0911C66.4853 40.4486 67.0135 45.4003 67.0135 50.9463ZM44.7637 71.2154V48.1073C44.7637 45.0262 44.5877 42.3413 44.2355 40.0525C43.9274 37.7637 43.4433 35.827 42.783 34.2424C42.1668 32.6579 41.3965 31.3814 40.4722 30.4131C39.5479 29.4007 38.4915 28.6745 37.3031 28.2343C36.1587 27.7502 34.8822 27.5081 33.4738 27.5081C31.7131 27.5081 30.1286 27.8822 28.7201 28.6305C27.3556 29.3347 26.1892 30.4791 25.2209 32.0637C24.2525 33.6482 23.5043 35.761 22.9761 38.4019C22.4919 41.0428 22.2498 44.278 22.2498 48.1073V71.2154C22.2498 74.3405 22.4039 77.0695 22.712 79.4023C23.0641 81.6911 23.5483 83.6498 24.1645 85.2784C24.8247 86.8629 25.617 88.1614 26.5413 89.1737C27.4656 90.1421 28.522 90.8463 29.7104 91.2865C30.8988 91.7266 32.1973 91.9467 33.6058 91.9467C35.3224 91.9467 36.8629 91.5946 38.2274 90.8903C39.5919 90.1861 40.7583 89.0417 41.7267 87.4571C42.739 85.8285 43.4873 83.6938 43.9714 81.0529C44.4996 78.3679 44.7637 75.0888 44.7637 71.2154Z" fill="white"/>
<path d="M49.7783 9.20281V7.32816C49.7783 5.98101 50.0705 4.75559 50.6548 3.65191C51.2391 2.54822 52.1155 1.66365 53.2842 0.998188C54.4528 0.332729 55.9054 0 57.6421 0C59.4275 0 60.9045 0.332729 62.0731 0.998188C63.2417 1.66365 64.11 2.54822 64.6781 3.65191C65.2624 4.75559 65.5546 5.98101 65.5546 7.32816V9.20281C65.5546 10.5175 65.2624 11.7267 64.6781 12.8304C64.11 13.9341 63.2417 14.8186 62.0731 15.4841C60.9207 16.1495 59.468 16.4823 57.7151 16.4823C55.946 16.4823 54.4771 16.1495 53.3085 15.4841C52.1399 14.8186 51.2553 13.9341 50.6548 12.8304C50.0705 11.7267 49.7783 10.5175 49.7783 9.20281ZM55.0371 7.32816V9.20281C55.0371 9.68973 55.1345 10.1523 55.3292 10.5905C55.524 11.0288 55.8161 11.3858 56.2057 11.6618C56.6114 11.9214 57.1065 12.0513 57.6908 12.0513C58.2913 12.0513 58.7782 11.9214 59.1515 11.6618C59.5249 11.3858 59.8008 11.0288 59.9793 10.5905C60.1741 10.1523 60.2715 9.68973 60.2715 9.20281V7.32816C60.2715 6.80878 60.1741 6.32997 59.9793 5.89174C59.8008 5.45351 59.5167 5.10455 59.1272 4.84486C58.7377 4.56894 58.2426 4.43098 57.6421 4.43098C57.074 4.43098 56.5952 4.56894 56.2057 4.84486C55.8161 5.10455 55.524 5.45351 55.3292 5.89174C55.1345 6.32997 55.0371 6.80878 55.0371 7.32816ZM66.6014 29.1422V27.2676C66.6014 25.9367 66.8936 24.7194 67.4779 23.6157C68.0784 22.512 68.963 21.6274 70.1316 20.9619C71.3165 20.2965 72.7772 19.9638 74.5139 19.9638C76.2993 19.9638 77.7682 20.2965 78.9205 20.9619C80.0891 21.6274 80.9575 22.512 81.5256 23.6157C82.1099 24.7194 82.402 25.9367 82.402 27.2676V29.1422C82.402 30.4731 82.1099 31.6904 81.5256 32.7941C80.9575 33.8978 80.0973 34.7824 78.9449 35.4478C77.7925 36.1133 76.3399 36.446 74.5869 36.446C72.8178 36.446 71.3408 36.1133 70.156 35.4478C68.9711 34.7824 68.0784 33.8978 67.4779 32.7941C66.8936 31.6904 66.6014 30.4731 66.6014 29.1422ZM71.8845 27.2676V29.1422C71.8845 29.6454 72.0063 30.1161 72.2497 30.5543C72.4932 30.9925 72.8178 31.3496 73.2236 31.6255C73.6293 31.8852 74.0757 32.0151 74.5626 32.0151C75.3092 32.0151 75.8611 31.8852 76.2181 31.6255C76.5914 31.3496 76.8349 30.9925 76.9485 30.5543C77.0784 30.1161 77.1433 29.6454 77.1433 29.1422V27.2676C77.1433 26.7644 77.0459 26.2937 76.8511 25.8555C76.6564 25.4173 76.3642 25.0683 75.9747 24.8086C75.5851 24.5327 75.0982 24.3947 74.5139 24.3947C73.9296 24.3947 73.4427 24.5327 73.0531 24.8086C72.6636 25.0683 72.3715 25.4173 72.1767 25.8555C71.9819 26.2937 71.8845 26.7644 71.8845 27.2676ZM76.559 5.59959L59.2489 33.3054L55.4266 31.3821L72.7366 3.67625L76.559 5.59959Z" fill="white"/>
</svg>
