<svg width="20" height="20" viewBox="0 0 20 20" fill="none" xmlns="http://www.w3.org/2000/svg">
<path fill-rule="evenodd" clip-rule="evenodd" d="M5.68654 5.65219C5.47582 5.65219 5.2876 5.6604 5.11526 5.68194C5.10683 5.68299 5.09839 5.68388 5.08992 5.68461C4.03898 5.77446 3.34191 6.11933 2.89754 6.64201C2.44605 7.17308 2.17349 7.98369 2.17349 9.16524V12.6435C2.17349 14.3265 2.51587 15.1228 2.99268 15.5392C3.4914 15.9747 4.31028 16.1565 5.68654 16.1565H6.03436C6.2628 16.1565 6.47575 16.2293 6.63614 16.3103C6.79694 16.3916 6.97625 16.5173 7.10893 16.6908L7.11263 16.6956L8.15698 18.0881C8.28395 18.2582 8.40352 18.2891 8.46914 18.2891C8.53477 18.2891 8.65434 18.2582 8.78131 18.0881L8.78219 18.087L9.82565 16.6957C10.0793 16.3575 10.4813 16.1565 10.9039 16.1565H11.2517C12.4344 16.1565 13.2448 15.8856 13.7754 15.4354C14.2974 14.9925 14.6424 14.296 14.7324 13.2403C14.7331 13.2318 14.734 13.2233 14.735 13.2148C14.7566 13.0424 14.7648 12.8542 14.7648 12.6435V9.16524C14.7648 7.87933 14.4428 7.03295 13.9134 6.50356C13.384 5.97418 12.5377 5.65219 11.2517 5.65219H5.68654ZM4.96633 4.38608C5.20714 4.35672 5.44931 4.34784 5.68654 4.34784H11.2517C12.7398 4.34784 13.976 4.7215 14.8357 5.58125C15.6955 6.441 16.0691 7.67723 16.0691 9.16524V12.6435C16.0691 12.8807 16.0603 13.1228 16.0309 13.3636C15.919 14.65 15.4729 15.7056 14.6194 16.4299C13.7718 17.1492 12.6169 17.4609 11.2517 17.4609H10.9039C10.8994 17.4609 10.8925 17.462 10.8847 17.4659C10.8769 17.4698 10.8718 17.4747 10.8691 17.4783L9.82655 18.8684C9.82641 18.8686 9.8267 18.8682 9.82655 18.8684C9.49267 19.3154 9.00764 19.5935 8.46914 19.5935C7.93065 19.5935 7.44605 19.3159 7.11216 18.869C7.11202 18.8688 7.11231 18.8692 7.11216 18.869L6.08188 17.4953C6.07444 17.4896 6.06264 17.482 6.04778 17.4745C6.0344 17.4677 6.02297 17.4633 6.01526 17.4609H5.68654C4.28888 17.4609 3.02515 17.2992 2.13474 16.5217C1.22242 15.725 0.869141 14.4387 0.869141 12.6435V9.16524C0.869141 7.79896 1.18354 6.64435 1.90379 5.79716C2.62882 4.94435 3.68378 4.49803 4.96633 4.38608Z" fill="#2F3C44"/>
<path fill-rule="evenodd" clip-rule="evenodd" d="M5.80247 4.34783H11.2514C12.7394 4.34783 13.9756 4.72149 14.8354 5.58124C15.6951 6.44099 16.0688 7.67722 16.0688 9.16523V12.5276C16.7198 12.3677 17.1892 12.0786 17.519 11.6913C17.9699 11.1617 18.2427 10.3516 18.2427 9.16523V5.68697C18.2427 4.40106 17.9207 3.55468 17.3913 3.02529C16.8619 2.49591 16.0156 2.17392 14.7297 2.17392H9.16445C7.98289 2.17392 7.17229 2.44647 6.64122 2.89797C6.25299 3.22803 5.96287 3.69749 5.80247 4.34783ZM5.79637 1.90422C6.64356 1.18397 7.79817 0.869568 9.16445 0.869568H14.7297C16.2177 0.869568 17.4539 1.24323 18.3136 2.10298C19.1734 2.96273 19.5471 4.19896 19.5471 5.68697V9.16523C19.5471 10.5354 19.2329 11.6905 18.5121 12.537C17.7842 13.3917 16.7245 13.8354 15.4374 13.9455C15.2413 13.9622 15.0482 13.8896 14.9118 13.7477C14.7754 13.6059 14.7103 13.41 14.7347 13.2148C14.7562 13.0424 14.7644 12.8542 14.7644 12.6435V9.16523C14.7644 7.87932 14.4425 7.03294 13.9131 6.50355C13.3837 5.97417 12.5373 5.65218 11.2514 5.65218H5.68619C5.47547 5.65218 5.28725 5.66039 5.11491 5.68193C4.91964 5.70634 4.72379 5.64127 4.58195 5.50487C4.44011 5.36846 4.36745 5.1753 4.38421 4.97923C4.49435 3.69105 4.94079 2.63159 5.79637 1.90422Z" fill="#2F3C44"/>
<path fill-rule="evenodd" clip-rule="evenodd" d="M10.6475 11.3043C10.6475 10.8241 11.0368 10.4348 11.517 10.4348H11.5249C12.0051 10.4348 12.3944 10.8241 12.3944 11.3043C12.3944 11.7846 12.0051 12.1739 11.5249 12.1739H11.517C11.0368 12.1739 10.6475 11.7846 10.6475 11.3043Z" fill="#2F3C44"/>
<path fill-rule="evenodd" clip-rule="evenodd" d="M7.60449 11.3043C7.60449 10.8241 7.99381 10.4348 8.47406 10.4348H8.48188C8.96213 10.4348 9.35145 10.8241 9.35145 11.3043C9.35145 11.7846 8.96213 12.1739 8.48188 12.1739H8.47406C7.99381 12.1739 7.60449 11.7846 7.60449 11.3043Z" fill="#2F3C44"/>
<path fill-rule="evenodd" clip-rule="evenodd" d="M4.56055 11.3043C4.56055 10.8241 4.94986 10.4348 5.43011 10.4348H5.43794C5.91819 10.4348 6.3075 10.8241 6.3075 11.3043C6.3075 11.7846 5.91819 12.1739 5.43794 12.1739H5.43011C4.94986 12.1739 4.56055 11.7846 4.56055 11.3043Z" fill="#2F3C44"/>
</svg>
