<svg width="25" height="25" viewBox="0 0 25 25" fill="none" xmlns="http://www.w3.org/2000/svg">
<path fill-rule="evenodd" clip-rule="evenodd" d="M6.43808 10.7727C6.43808 6.47464 9.92706 3 14.219 3C18.511 3 22 6.47464 22 10.7727C22 11.7416 21.8221 12.6709 21.4965 13.5285C21.4651 13.6113 21.4468 13.6597 21.4342 13.6954C21.4325 13.7 21.4312 13.704 21.43 13.7073C21.4301 13.7085 21.4302 13.7098 21.4304 13.7111C21.4331 13.7396 21.4378 13.7785 21.4469 13.8526L21.7958 16.7008C21.812 16.8322 21.8303 16.9813 21.8346 17.111C21.8395 17.2546 21.8335 17.4776 21.7269 17.7115C21.5939 18.0036 21.3576 18.2356 21.0639 18.3625C20.8287 18.4641 20.6068 18.465 20.464 18.4568C20.335 18.4495 20.1871 18.4276 20.0567 18.4084C20.0487 18.4072 20.0408 18.406 20.0329 18.4049L17.2951 18.0016C17.2191 17.9904 17.1791 17.9846 17.1498 17.9812C17.1484 17.981 17.1471 17.9808 17.1459 17.9807C17.1425 17.9819 17.1385 17.9832 17.1338 17.9849C17.097 17.9977 17.0472 18.0164 16.9619 18.0485C16.1077 18.37 15.1828 18.5454 14.219 18.5454C14.0647 18.5454 13.9113 18.5409 13.759 18.5321C12.9399 20.5604 10.9937 22 8.70002 22C8.07458 22 7.47209 21.8921 6.91038 21.6929C6.81755 21.66 6.75996 21.6396 6.71773 21.6255C6.71006 21.623 6.70378 21.621 6.69876 21.6194C6.69733 21.6195 6.69577 21.6197 6.6941 21.6199C6.66462 21.6231 6.62443 21.6286 6.54995 21.6388L3.97584 21.992C3.69731 22.0303 3.41778 21.9292 3.22732 21.7215C3.03687 21.5137 2.95957 21.2255 3.02033 20.9497L3.54579 18.5646C3.56405 18.4817 3.57382 18.437 3.5801 18.4041C3.58045 18.4023 3.58078 18.4005 3.58108 18.3989C3.57952 18.3935 3.57754 18.3867 3.57507 18.3785C3.56091 18.3313 3.5401 18.2672 3.50626 18.1631C3.32431 17.6034 3.2262 17.0057 3.2262 16.3864C3.2262 14.1184 4.54404 12.1471 6.45346 11.265C6.44325 11.1021 6.43808 10.938 6.43808 10.7727ZM8.15719 10.7999C8.33565 10.7819 8.51672 10.7727 8.70002 10.7727C11.7426 10.7727 14.1738 13.3059 14.1738 16.3864C14.1738 16.5315 14.1684 16.6754 14.1578 16.8179C14.1782 16.8181 14.1986 16.8182 14.219 16.8182C14.974 16.8182 15.6947 16.6809 16.3589 16.431C16.371 16.4264 16.3833 16.4218 16.3958 16.417C16.5172 16.3711 16.6605 16.3169 16.7914 16.2892C16.911 16.264 17.0132 16.253 17.1354 16.2523C17.2687 16.2516 17.4043 16.2718 17.5139 16.2881C17.5243 16.2897 17.5345 16.2912 17.5445 16.2926L20.0592 16.663L19.7407 14.0636C19.7395 14.0539 19.7383 14.044 19.737 14.0338C19.7237 13.9271 19.7073 13.7952 19.7104 13.6658C19.7132 13.5471 19.7251 13.4482 19.7507 13.3324C19.7787 13.2056 19.8318 13.0666 19.8767 12.9487C19.8814 12.9365 19.8859 12.9246 19.8904 12.9129C20.1426 12.2487 20.281 11.5278 20.281 10.7727C20.281 7.43924 17.5723 4.72727 14.219 4.72727C10.8658 4.72727 8.15713 7.43924 8.15713 10.7727C8.15713 10.7818 8.15715 10.7908 8.15719 10.7999ZM12.3352 17.3651C12.4132 17.053 12.4548 16.7251 12.4548 16.3864C12.4548 14.2201 10.7542 12.5 8.70002 12.5C6.64582 12.5 4.94525 14.2201 4.94525 16.3864C4.94525 16.8217 5.0141 17.2385 5.14033 17.6267C5.14534 17.6421 5.15047 17.6578 5.15567 17.6737C5.20402 17.8215 5.25881 17.9891 5.28082 18.13C5.30147 18.2622 5.30643 18.3639 5.29874 18.4975C5.29058 18.6392 5.25815 18.7851 5.23173 18.904C5.22915 18.9156 5.22664 18.9269 5.22421 18.9379L4.96534 20.113L6.31734 19.9274C6.32724 19.9261 6.33741 19.9247 6.3478 19.9232C6.45471 19.9084 6.58581 19.8902 6.71156 19.891C6.83063 19.8918 6.91923 19.9009 7.03602 19.9243C7.15988 19.9491 7.30846 20.0021 7.44032 20.0491C7.45459 20.0541 7.46868 20.0592 7.48251 20.0641C7.8634 20.1991 8.27258 20.2727 8.70002 20.2727C10.4187 20.2727 11.8898 19.0686 12.3246 17.4065C12.3278 17.3926 12.3313 17.3787 12.3352 17.3651Z" fill="#03AA79"/>
</svg>
