<svg width="25" height="25" viewBox="0 0 25 25" fill="none" xmlns="http://www.w3.org/2000/svg">
<path fill-rule="evenodd" clip-rule="evenodd" d="M7.58768 4.94344C7.32601 4.81108 7.01699 4.81108 6.75532 4.94344C6.65691 4.99321 6.53424 5.09949 5.99295 5.64078L5.8476 5.78613C5.33103 6.3027 5.19179 6.4521 5.08049 6.65024C4.95148 6.8799 4.84339 7.29552 4.84418 7.55894C4.84487 7.79334 4.87948 7.9345 5.03186 8.47138C5.78392 11.1211 7.20264 13.6216 9.29054 15.7095C11.3784 17.7974 13.8789 19.2161 16.5286 19.9681C17.0655 20.1205 17.2067 20.1551 17.4411 20.1558C17.7045 20.1566 18.1201 20.0485 18.3498 19.9195C18.5479 19.8082 18.6973 19.669 19.2139 19.1524L19.3592 19.007C19.9005 18.4658 20.0068 18.3431 20.0566 18.2447C20.1889 17.983 20.1889 17.674 20.0566 17.4123C20.0068 17.3139 19.9005 17.1912 19.3592 16.65L20.0112 15.9979L19.3592 16.65L19.1795 16.4703C18.8239 16.1146 18.7439 16.0418 18.6833 16.0024C18.3777 15.8037 17.9837 15.8037 17.6781 16.0024C17.6174 16.0418 17.5375 16.1146 17.1818 16.4703C17.1748 16.4773 17.1676 16.4845 17.1602 16.4919C17.0775 16.575 16.9727 16.6801 16.8469 16.7702L16.3101 16.0205L16.8469 16.7702C16.3979 17.0917 15.7874 17.1958 15.2572 17.0413C15.1093 16.9981 14.9876 16.9395 14.8929 16.8938C14.8854 16.8902 14.8781 16.8867 14.8709 16.8832C13.4417 16.1971 12.1031 15.262 10.9206 14.0794C9.73802 12.8969 8.80295 11.5583 8.11675 10.1291C8.11332 10.1219 8.10979 10.1146 8.10618 10.1071C8.06053 10.0124 8.00185 9.89072 7.95875 9.74284L8.84399 9.48479L7.95875 9.74284C7.80418 9.21261 7.90828 8.60213 8.22982 8.15309L8.22982 8.15308C8.31991 8.02727 8.42505 7.92252 8.50809 7.83977C8.51549 7.8324 8.52271 7.8252 8.52973 7.81818C8.88539 7.46252 8.95821 7.38256 8.99762 7.32195L8.99762 7.32194C9.19633 7.01632 9.19633 6.62232 8.99762 6.31671C8.95821 6.25609 8.88539 6.17612 8.52973 5.82046L8.35005 5.64078C7.80876 5.09949 7.68609 4.99321 7.58768 4.94344ZM5.92296 3.29779C6.70797 2.90074 7.63503 2.90074 8.42004 3.29779C8.81893 3.49955 9.16522 3.84673 9.56582 4.24834C9.59493 4.27754 9.62434 4.30702 9.65407 4.33675L9.83376 4.51644C9.85335 4.53603 9.87276 4.55541 9.89198 4.57459C10.1563 4.83847 10.384 5.06577 10.5437 5.31146L9.77068 5.81408L10.5437 5.31146C11.1399 6.22833 11.1399 7.41032 10.5437 8.32719C10.384 8.57288 10.1563 8.80018 9.89198 9.06405C9.87276 9.08324 9.85335 9.10262 9.83376 9.12221C9.78064 9.17533 9.75354 9.20257 9.73467 9.22254C9.73432 9.22404 9.73398 9.2257 9.73368 9.2275C9.73334 9.2295 9.73309 9.23135 9.73291 9.23302C9.73595 9.23976 9.74006 9.24868 9.74573 9.26073C9.75459 9.27956 9.76501 9.30126 9.77924 9.3309C10.3766 10.575 11.1912 11.742 12.2246 12.7754C13.258 13.8088 14.425 14.6234 15.6691 15.2208L15.27 16.052L15.6691 15.2208C15.6987 15.235 15.7204 15.2454 15.7393 15.2543C15.7513 15.2599 15.7602 15.264 15.767 15.2671C15.7687 15.2669 15.7705 15.2667 15.7725 15.2663C15.7743 15.266 15.776 15.2657 15.7775 15.2653C15.7974 15.2465 15.8247 15.2194 15.8778 15.1662C15.8974 15.1466 15.9168 15.1272 15.936 15.108C16.1998 14.8437 16.4271 14.616 16.6728 14.4563C17.5897 13.8601 18.7717 13.8601 19.6885 14.4563C19.9342 14.616 20.1615 14.8437 20.4254 15.108C20.4446 15.1272 20.464 15.1466 20.4836 15.1662L19.8316 15.8183L20.4836 15.1662L20.6633 15.3459C20.693 15.3757 20.7225 15.4051 20.7516 15.4342C21.1533 15.8348 21.5005 16.1811 21.7022 16.58C22.0993 17.365 22.0993 18.292 21.7022 19.077C21.5004 19.4759 21.1533 19.8222 20.7516 20.2228C20.7225 20.2519 20.693 20.2813 20.6632 20.3111L20.5179 20.4564C20.4968 20.4775 20.476 20.4983 20.4555 20.5189C20.0265 20.9483 19.6975 21.2777 19.253 21.5274C18.7459 21.8122 18.0172 22.0017 17.4356 22C16.9267 21.9985 16.5556 21.893 16.077 21.757C16.0598 21.7521 16.0425 21.7472 16.0251 21.7422C13.0806 20.9065 10.3025 19.3294 7.98652 17.0135C5.67057 14.6975 4.09348 11.9193 3.25777 8.97492C3.25281 8.95747 3.24789 8.94016 3.24301 8.92299C3.107 8.44442 3.00153 8.07331 3.00001 7.56442C2.99828 6.9828 3.18777 6.25413 3.47263 5.74703L3.47264 5.74703C3.72234 5.30253 4.05166 4.97353 4.48111 4.54453C4.5017 4.52396 4.52252 4.50316 4.54357 4.4821L4.68893 4.33675C4.71866 4.30702 4.74807 4.27754 4.77718 4.24834C5.17778 3.84673 5.52407 3.49955 5.92296 3.29779L6.33442 4.11129L5.92296 3.29779Z" fill="#03AA79"/>
</svg>
