<svg width="25" height="25" viewBox="0 0 25 25" fill="none" xmlns="http://www.w3.org/2000/svg">
<path fill-rule="evenodd" clip-rule="evenodd" d="M12.5 6C10.9812 6 9.75 7.23122 9.75 8.75C9.75 10.2688 10.9812 11.5 12.5 11.5C14.0188 11.5 15.25 10.2688 15.25 8.75C15.25 7.23122 14.0188 6 12.5 6ZM7.75 8.75C7.75 6.12665 9.87665 4 12.5 4C15.1234 4 17.25 6.12665 17.25 8.75C17.25 11.3734 15.1234 13.5 12.5 13.5C9.87665 13.5 7.75 11.3734 7.75 8.75ZM12.5 16.8333C9.89097 16.8333 7.50403 17.9685 5.7276 19.8527C5.34873 20.2545 4.71584 20.2731 4.314 19.8943C3.91216 19.5154 3.89353 18.8825 4.2724 18.4807C6.38896 16.2358 9.2874 14.8333 12.5 14.8333C15.7126 14.8333 18.611 16.2358 20.7276 18.4807C21.1065 18.8825 21.0878 19.5154 20.686 19.8943C20.2842 20.2731 19.6513 20.2545 19.2724 19.8527C17.496 17.9685 15.109 16.8333 12.5 16.8333Z" fill="#03AA79"/>
</svg>
