<svg width="25" height="25" viewBox="0 0 25 25" fill="none" xmlns="http://www.w3.org/2000/svg">
<path fill-rule="evenodd" clip-rule="evenodd" d="M12.5 4.72727C8.20724 4.72727 4.72727 8.20724 4.72727 12.5C4.72727 16.7928 8.20724 20.2727 12.5 20.2727C16.7928 20.2727 20.2727 16.7928 20.2727 12.5C20.2727 8.20724 16.7928 4.72727 12.5 4.72727ZM3 12.5C3 7.25329 7.25329 3 12.5 3C17.7467 3 22 7.25329 22 12.5C22 17.7467 17.7467 22 12.5 22C7.25329 22 3 17.7467 3 12.5ZM8.61364 9.90909C8.61364 9.19363 9.19363 8.61364 9.90909 8.61364C10.6246 8.61364 11.2045 9.19363 11.2045 9.90909C11.2045 10.6246 10.6246 11.2045 9.90909 11.2045C9.19363 11.2045 8.61364 10.6246 8.61364 9.90909ZM13.7955 9.90909C13.7955 9.19363 14.3754 8.61364 15.0909 8.61364C15.8064 8.61364 16.3864 9.19363 16.3864 9.90909C16.3864 10.6246 15.8064 11.2045 15.0909 11.2045C14.3754 11.2045 13.7955 10.6246 13.7955 9.90909ZM9.4551 14.3925C10.1442 13.8913 11.1825 13.3636 12.5 13.3636C13.8175 13.3636 14.8558 13.8913 15.5449 14.3925C15.8911 14.6443 16.1588 14.896 16.3419 15.0871C16.4339 15.183 16.5055 15.2648 16.5562 15.3251C16.5815 15.3553 16.6017 15.3803 16.6166 15.3991L16.635 15.4226L16.6412 15.4308L16.6436 15.4339L16.6446 15.4352C16.6448 15.4355 16.6455 15.4364 15.9545 15.9545L16.6455 15.4364C16.9316 15.8179 16.8543 16.3593 16.4727 16.6455C16.0924 16.9307 15.5532 16.8548 15.2663 16.4763L15.2623 16.4712C15.2572 16.4647 15.2474 16.4526 15.2331 16.4355C15.2045 16.4014 15.1581 16.3482 15.0949 16.2822C14.9676 16.1495 14.7765 15.9694 14.529 15.7894C14.0306 15.4269 13.3416 15.0909 12.5 15.0909C11.6584 15.0909 10.9694 15.4269 10.471 15.7894C10.2235 15.9694 10.0324 16.1495 9.90514 16.2822C9.84189 16.3482 9.79549 16.4014 9.76686 16.4355C9.75257 16.4526 9.7428 16.4647 9.73766 16.4712L9.73402 16.4758L9.73497 16.4746L9.73561 16.4737M9.73561 16.4737C9.73484 16.4748 9.7348 16.4748 9.73402 16.4758C9.44714 16.8543 8.90765 16.9307 8.52727 16.6455C8.14569 16.3593 8.06836 15.8179 8.35455 15.4364L9.04545 15.9545C8.35455 15.4364 8.35433 15.4366 8.35455 15.4364L8.35641 15.4339L8.35878 15.4308L8.36501 15.4226L8.3834 15.3991C8.39829 15.3803 8.41846 15.3553 8.44381 15.3251C8.49446 15.2648 8.56614 15.183 8.65807 15.0871C8.84123 14.896 9.10887 14.6443 9.4551 14.3925" fill="#03AA79"/>
</svg>
