<svg width="153" height="37" viewBox="0 0 153 37" fill="none" xmlns="http://www.w3.org/2000/svg">
<path d="M51.3457 26.1904H47.7012L47.7246 23.8584H51.3457C52.4004 23.8584 53.2832 23.6279 53.9941 23.167C54.7129 22.7061 55.252 22.0459 55.6113 21.1865C55.9785 20.3271 56.1621 19.3037 56.1621 18.1162V17.1904C56.1621 16.2686 56.0566 15.4521 55.8457 14.7412C55.6426 14.0303 55.3379 13.4326 54.9316 12.9482C54.5332 12.4639 54.041 12.0967 53.4551 11.8467C52.877 11.5967 52.209 11.4717 51.4512 11.4717H47.6309V9.12793H51.4512C52.584 9.12793 53.6191 9.31934 54.5566 9.70215C55.4941 10.0771 56.3027 10.6201 56.9824 11.3311C57.6699 12.042 58.1973 12.8936 58.5645 13.8857C58.9316 14.8779 59.1152 15.9873 59.1152 17.2139V18.1162C59.1152 19.3428 58.9316 20.4521 58.5645 21.4443C58.1973 22.4365 57.6699 23.2881 56.9824 23.999C56.2949 24.7021 55.4746 25.2451 54.5215 25.6279C53.5762 26.0029 52.5176 26.1904 51.3457 26.1904ZM49.3301 9.12793V26.1904H46.3887V9.12793H49.3301ZM67.377 26.4248C66.4395 26.4248 65.5918 26.2725 64.834 25.9678C64.084 25.6553 63.4434 25.2217 62.9121 24.667C62.3887 24.1123 61.9863 23.46 61.7051 22.71C61.4238 21.96 61.2832 21.1514 61.2832 20.2842V19.8154C61.2832 18.8232 61.4277 17.9248 61.7168 17.1201C62.0059 16.3154 62.4082 15.6279 62.9238 15.0576C63.4395 14.4795 64.0488 14.0381 64.752 13.7334C65.4551 13.4287 66.2168 13.2764 67.0371 13.2764C67.9434 13.2764 68.7363 13.4287 69.416 13.7334C70.0957 14.0381 70.6582 14.4678 71.1035 15.0225C71.5566 15.5693 71.8926 16.2217 72.1113 16.9795C72.3379 17.7373 72.4512 18.5732 72.4512 19.4873V20.6943H62.6543V18.667H69.6621V18.4443C69.6465 17.9365 69.5449 17.46 69.3574 17.0146C69.1777 16.5693 68.9004 16.21 68.5254 15.9365C68.1504 15.6631 67.6504 15.5264 67.0254 15.5264C66.5566 15.5264 66.1387 15.6279 65.7715 15.8311C65.4121 16.0264 65.1113 16.3115 64.8691 16.6865C64.627 17.0615 64.4395 17.5146 64.3066 18.0459C64.1816 18.5693 64.1191 19.1592 64.1191 19.8154V20.2842C64.1191 20.8389 64.1934 21.3545 64.3418 21.8311C64.498 22.2998 64.7246 22.71 65.0215 23.0615C65.3184 23.4131 65.6777 23.6904 66.0996 23.8936C66.5215 24.0889 67.002 24.1865 67.541 24.1865C68.2207 24.1865 68.8262 24.0498 69.3574 23.7764C69.8887 23.5029 70.3496 23.1162 70.7402 22.6162L72.2285 24.0576C71.9551 24.4561 71.5996 24.8389 71.1621 25.2061C70.7246 25.5654 70.1895 25.8584 69.5566 26.085C68.9316 26.3115 68.2051 26.4248 67.377 26.4248ZM77.4551 16.2178V26.1904H74.6309V13.5107H77.291L77.4551 16.2178ZM76.9512 19.3818L76.0371 19.3701C76.0449 18.4717 76.1699 17.6475 76.4121 16.8975C76.6621 16.1475 77.0059 15.5029 77.4434 14.9639C77.8887 14.4248 78.4199 14.0107 79.0371 13.7217C79.6543 13.4248 80.3418 13.2764 81.0996 13.2764C81.709 13.2764 82.2598 13.3623 82.752 13.5342C83.252 13.6982 83.6777 13.9678 84.0293 14.3428C84.3887 14.7178 84.6621 15.2061 84.8496 15.8076C85.0371 16.4014 85.1309 17.1318 85.1309 17.999V26.1904H82.2949V17.9873C82.2949 17.3779 82.2051 16.8975 82.0254 16.5459C81.8535 16.1865 81.5996 15.9326 81.2637 15.7842C80.9355 15.6279 80.5254 15.5498 80.0332 15.5498C79.5488 15.5498 79.1152 15.6514 78.7324 15.8545C78.3496 16.0576 78.0254 16.335 77.7598 16.6865C77.502 17.0381 77.3027 17.4443 77.1621 17.9053C77.0215 18.3662 76.9512 18.8584 76.9512 19.3818ZM96.1348 13.5107H98.7012V25.8389C98.7012 26.9795 98.459 27.9482 97.9746 28.7451C97.4902 29.542 96.8145 30.1475 95.9473 30.5615C95.0801 30.9834 94.0762 31.1943 92.9355 31.1943C92.4512 31.1943 91.9121 31.124 91.3184 30.9834C90.7324 30.8428 90.1621 30.6162 89.6074 30.3037C89.0605 29.999 88.6035 29.5967 88.2363 29.0967L89.5605 27.4326C90.0137 27.9717 90.5137 28.3662 91.0605 28.6162C91.6074 28.8662 92.1816 28.9912 92.7832 28.9912C93.4316 28.9912 93.9824 28.8701 94.4355 28.6279C94.8965 28.3936 95.252 28.0459 95.502 27.585C95.752 27.124 95.877 26.5615 95.877 25.8975V16.3818L96.1348 13.5107ZM87.5215 19.9912V19.7451C87.5215 18.7842 87.6387 17.9092 87.873 17.1201C88.1074 16.3232 88.4434 15.6396 88.8809 15.0693C89.3184 14.4912 89.8496 14.0498 90.4746 13.7451C91.0996 13.4326 91.8066 13.2764 92.5957 13.2764C93.416 13.2764 94.1152 13.4248 94.6934 13.7217C95.2793 14.0186 95.7676 14.4443 96.1582 14.999C96.5488 15.5459 96.8535 16.2021 97.0723 16.9678C97.2988 17.7256 97.4668 18.5693 97.5762 19.499V20.2842C97.4746 21.1904 97.3027 22.0186 97.0605 22.7686C96.8184 23.5186 96.498 24.167 96.0996 24.7139C95.7012 25.2607 95.209 25.6826 94.623 25.9795C94.0449 26.2764 93.3613 26.4248 92.5723 26.4248C91.7988 26.4248 91.0996 26.2646 90.4746 25.9443C89.8574 25.624 89.3262 25.1748 88.8809 24.5967C88.4434 24.0186 88.1074 23.3389 87.873 22.5576C87.6387 21.7686 87.5215 20.9131 87.5215 19.9912ZM90.3457 19.7451V19.9912C90.3457 20.5693 90.4004 21.1084 90.5098 21.6084C90.627 22.1084 90.8027 22.5498 91.0371 22.9326C91.2793 23.3076 91.584 23.6045 91.9512 23.8232C92.3262 24.0342 92.7676 24.1396 93.2754 24.1396C93.9395 24.1396 94.4824 23.999 94.9043 23.7178C95.334 23.4365 95.6621 23.0576 95.8887 22.5811C96.123 22.0967 96.2871 21.5576 96.3809 20.9639V18.8428C96.334 18.3818 96.2363 17.9521 96.0879 17.5537C95.9473 17.1553 95.7559 16.8076 95.5137 16.5107C95.2715 16.2061 94.9668 15.9717 94.5996 15.8076C94.2324 15.6357 93.7988 15.5498 93.2988 15.5498C92.791 15.5498 92.3496 15.6592 91.9746 15.8779C91.5996 16.0967 91.291 16.3975 91.0488 16.7803C90.8145 17.1631 90.6387 17.6084 90.5215 18.1162C90.4043 18.624 90.3457 19.167 90.3457 19.7451ZM104.654 13.5107V26.1904H101.818V13.5107H104.654ZM101.631 10.1826C101.631 9.75293 101.771 9.39746 102.053 9.11621C102.342 8.82715 102.74 8.68262 103.248 8.68262C103.748 8.68262 104.143 8.82715 104.432 9.11621C104.721 9.39746 104.865 9.75293 104.865 10.1826C104.865 10.6045 104.721 10.9561 104.432 11.2373C104.143 11.5186 103.748 11.6592 103.248 11.6592C102.74 11.6592 102.342 11.5186 102.053 11.2373C101.771 10.9561 101.631 10.6045 101.631 10.1826Z" fill="white"/>
<path d="M107.818 9.12793H114.182C115.486 9.12793 116.607 9.32324 117.545 9.71387C118.49 10.1045 119.217 10.6826 119.725 11.4482C120.232 12.2139 120.486 13.1553 120.486 14.2725C120.486 15.1865 120.33 15.9717 120.018 16.6279C119.713 17.2764 119.279 17.8193 118.717 18.2568C118.162 18.6865 117.51 19.0303 116.76 19.2881L115.646 19.874H110.115L110.092 17.1318H114.205C114.822 17.1318 115.334 17.0225 115.74 16.8037C116.146 16.585 116.451 16.2803 116.654 15.8896C116.865 15.499 116.971 15.0459 116.971 14.5303C116.971 13.9834 116.869 13.5107 116.666 13.1123C116.463 12.7139 116.154 12.4092 115.74 12.1982C115.326 11.9873 114.807 11.8818 114.182 11.8818H111.334V26.1904H107.818V9.12793ZM117.357 26.1904L113.467 18.585L117.182 18.5615L121.119 26.0264V26.1904H117.357ZM132.615 9.12793H136.119V20.4014C136.119 21.7139 135.838 22.8193 135.275 23.7178C134.721 24.6162 133.951 25.292 132.967 25.7451C131.99 26.1982 130.865 26.4248 129.592 26.4248C128.318 26.4248 127.186 26.1982 126.193 25.7451C125.209 25.292 124.436 24.6162 123.873 23.7178C123.318 22.8193 123.041 21.7139 123.041 20.4014V9.12793H126.557V20.4014C126.557 21.167 126.678 21.792 126.92 22.2764C127.162 22.7607 127.51 23.1162 127.963 23.3428C128.424 23.5693 128.967 23.6826 129.592 23.6826C130.232 23.6826 130.775 23.5693 131.221 23.3428C131.674 23.1162 132.018 22.7607 132.252 22.2764C132.494 21.792 132.615 21.167 132.615 20.4014V9.12793ZM147.896 21.7256C147.896 21.4209 147.85 21.1475 147.756 20.9053C147.67 20.6553 147.506 20.4287 147.264 20.2256C147.021 20.0146 146.682 19.8076 146.244 19.6045C145.807 19.4014 145.24 19.1904 144.545 18.9717C143.771 18.7217 143.037 18.4404 142.342 18.1279C141.654 17.8154 141.045 17.4521 140.514 17.0381C139.99 16.6162 139.576 16.1279 139.271 15.5732C138.975 15.0186 138.826 14.374 138.826 13.6396C138.826 12.9287 138.982 12.2842 139.295 11.7061C139.607 11.1201 140.045 10.6201 140.607 10.2061C141.17 9.78418 141.834 9.45996 142.6 9.2334C143.373 9.00684 144.221 8.89355 145.143 8.89355C146.4 8.89355 147.498 9.12012 148.436 9.57324C149.373 10.0264 150.1 10.6475 150.615 11.4365C151.139 12.2256 151.4 13.1279 151.4 14.1436H147.908C147.908 13.6436 147.803 13.2061 147.592 12.8311C147.389 12.4482 147.076 12.1475 146.654 11.9287C146.24 11.71 145.717 11.6006 145.084 11.6006C144.475 11.6006 143.967 11.6943 143.561 11.8818C143.154 12.0615 142.85 12.3076 142.646 12.6201C142.443 12.9248 142.342 13.2686 142.342 13.6514C142.342 13.9404 142.412 14.2021 142.553 14.4365C142.701 14.6709 142.92 14.8896 143.209 15.0928C143.498 15.2959 143.854 15.4873 144.275 15.667C144.697 15.8467 145.186 16.0225 145.74 16.1943C146.67 16.4756 147.486 16.792 148.189 17.1436C148.9 17.4951 149.494 17.8896 149.971 18.3271C150.447 18.7646 150.807 19.2607 151.049 19.8154C151.291 20.3701 151.412 20.999 151.412 21.7021C151.412 22.4443 151.268 23.1084 150.979 23.6943C150.689 24.2803 150.271 24.7764 149.725 25.1826C149.178 25.5889 148.525 25.8975 147.768 26.1084C147.01 26.3193 146.162 26.4248 145.225 26.4248C144.381 26.4248 143.549 26.3154 142.729 26.0967C141.908 25.8701 141.162 25.5303 140.49 25.0771C139.826 24.624 139.295 24.0459 138.896 23.3428C138.498 22.6396 138.299 21.8076 138.299 20.8467H141.826C141.826 21.3779 141.908 21.8271 142.072 22.1943C142.236 22.5615 142.467 22.8584 142.764 23.085C143.068 23.3115 143.428 23.4756 143.842 23.5771C144.264 23.6787 144.725 23.7295 145.225 23.7295C145.834 23.7295 146.334 23.6436 146.725 23.4717C147.123 23.2998 147.416 23.0615 147.604 22.7568C147.799 22.4521 147.896 22.1084 147.896 21.7256Z" fill="#03AA79"/>
<path fill-rule="evenodd" clip-rule="evenodd" d="M0 21.1904L21.1905 -4.91534e-05L36.7499 15.5594L29.3407 22.9687L27.2661 20.8941L32.6007 15.5594L26.377 9.33562L7.26107 28.4515L0 21.1904ZM24.3024 7.26102L21.1905 4.14914L4.14918 21.1904L7.26107 24.3023L24.3024 7.26102Z" fill="white"/>
<path fill-rule="evenodd" clip-rule="evenodd" d="M10.5215 31.7115L12.5961 29.637L15.5598 32.6007L23.5618 24.5987L25.6364 26.6733L15.5598 36.7498L10.5215 31.7115Z" fill="#03AA79"/>
</svg>
