<?xml version="1.0" encoding="utf-8"?><svg xmlns="http://www.w3.org/2000/svg" xmlns:xlink="http://www.w3.org/1999/xlink"><symbol viewBox="0 0 20 20" id="arrow" xmlns="http://www.w3.org/2000/svg"><path fill-rule="evenodd" clip-rule="evenodd" d="M2 6.70711L2.70711 6L9.85355 13.1464L17 6L17.7071 6.70711L9.85355 14.5607L2 6.70711Z"/></symbol><symbol viewBox="0 0 15 15" id="check" xmlns="http://www.w3.org/2000/svg"><path fill-rule="evenodd" clip-rule="evenodd" d="M14.1369 2.75647L6.7269 13.0165L1 8.56226L2.84182 6.19421L6.11492 8.73995L11.7049 1L14.1369 2.75647Z"/></symbol><symbol viewBox="0 0 15 15" id="clock" xmlns="http://www.w3.org/2000/svg"><path fill-rule="evenodd" clip-rule="evenodd" d="M7.5 1.875C4.39518 1.875 1.875 4.39518 1.875 7.5C1.875 10.6048 4.39518 13.125 7.5 13.125C10.6048 13.125 13.125 10.6048 13.125 7.5C13.125 4.39518 10.6048 1.875 7.5 1.875ZM0.625 7.5C0.625 3.70482 3.70482 0.625 7.5 0.625C11.2952 0.625 14.375 3.70482 14.375 7.5C14.375 11.2952 11.2952 14.375 7.5 14.375C3.70482 14.375 0.625 11.2952 0.625 7.5Z"/><path fill-rule="evenodd" clip-rule="evenodd" d="M7.26953 4.06885C7.61471 4.06885 7.89453 4.34867 7.89453 4.69385V7.25635C7.89453 7.31868 7.92048 7.43122 7.99214 7.55689C8.06383 7.68259 8.14745 7.76213 8.20066 7.79367L8.20232 7.79465L8.20232 7.79465L10.1398 8.9509C10.4362 9.12779 10.5331 9.51148 10.3562 9.80788C10.1793 10.1043 9.79565 10.2012 9.49924 10.0243L7.5634 8.86903C7.56308 8.86884 7.56275 8.86864 7.56243 8.86845C7.2786 8.69996 7.05631 8.43918 6.9063 8.17612C6.75609 7.91272 6.64453 7.58777 6.64453 7.25635V4.69385C6.64453 4.34867 6.92435 4.06885 7.26953 4.06885Z"/></symbol><symbol viewBox="0 0 25 25" id="cross" xmlns="http://www.w3.org/2000/svg"><path d="M5.41421 4L20.2635 18.8492L18.8492 20.2635L4 5.41421L5.41421 4Z"/><path d="M20.2635 5.41421L5.41421 20.2635L4 18.8492L18.8492 4L20.2635 5.41421Z"/></symbol><symbol viewBox="0 0 20 20" id="edit" xmlns="http://www.w3.org/2000/svg"><path d="M8.34083 8.95834C9.04131 8.95834 9.72605 8.75062 10.3085 8.36146C10.8909 7.97229 11.3448 7.41916 11.6129 6.77201C11.881 6.12485 11.9511 5.41274 11.8144 4.72572C11.6778 4.03871 11.3405 3.40764 10.8452 2.91233C10.3499 2.41702 9.71879 2.07971 9.03178 1.94305C8.34476 1.8064 7.63265 1.87653 6.9855 2.14459C6.33834 2.41266 5.78521 2.8666 5.39604 3.44902C5.00688 4.03145 4.79917 4.71619 4.79917 5.41667C4.80027 6.35564 5.17376 7.25583 5.83771 7.91979C6.50167 8.58374 7.40186 8.95723 8.34083 8.95834ZM8.34083 3.125C8.79408 3.125 9.23715 3.25941 9.61402 3.51122C9.99088 3.76303 10.2846 4.12094 10.4581 4.53969C10.6315 4.95843 10.6769 5.41921 10.5885 5.86375C10.5 6.30829 10.2818 6.71663 9.96129 7.03712C9.64079 7.35762 9.23246 7.57588 8.78792 7.6643C8.34338 7.75273 7.8826 7.70734 7.46385 7.53389C7.0451 7.36044 6.68719 7.06671 6.43538 6.68985C6.18357 6.31299 6.04917 5.86992 6.04917 5.41667C6.04983 4.80908 6.29148 4.22657 6.72111 3.79695C7.15074 3.36732 7.73325 3.12566 8.34083 3.125ZM3.125 15.0167C3.125 16.3192 3.68583 16.875 5 16.875H8.33333C8.49909 16.875 8.65806 16.9409 8.77527 17.0581C8.89248 17.1753 8.95833 17.3342 8.95833 17.5C8.95833 17.6658 8.89248 17.8247 8.77527 17.9419C8.65806 18.0592 8.49909 18.125 8.33333 18.125H5C2.985 18.125 1.875 17.0208 1.875 15.0167C1.875 12.7983 3.13 10.2083 6.66667 10.2083H10C10.6422 10.1971 11.2811 10.301 11.8867 10.515C12.0303 10.5811 12.1436 10.6992 12.2036 10.8455C12.2636 10.9918 12.266 11.1554 12.2102 11.3033C12.1544 11.4513 12.0446 11.5726 11.9029 11.6428C11.7612 11.713 11.5982 11.7269 11.4467 11.6817C10.9816 11.5217 10.4917 11.446 10 11.4583H6.66667C6.19078 11.4217 5.7126 11.4887 5.26513 11.6548C4.81766 11.8209 4.41156 12.0821 4.07486 12.4204C3.73815 12.7587 3.47885 13.166 3.31486 13.6142C3.15087 14.0625 3.08609 14.541 3.125 15.0167ZM18.5308 11.5633L17.6025 10.6358C17.4676 10.4998 17.307 10.3919 17.13 10.3186C16.953 10.2452 16.7632 10.2077 16.5717 10.2083C16.3798 10.2079 16.1899 10.2457 16.0128 10.3194C15.8356 10.393 15.6749 10.5012 15.54 10.6375L10.3925 15.8092C10.3345 15.867 10.2885 15.9357 10.2572 16.0114C10.2259 16.087 10.2098 16.1681 10.21 16.25V18.3333C10.21 18.4991 10.2758 18.6581 10.3931 18.7753C10.5103 18.8925 10.6692 18.9583 10.835 18.9583H12.9183C13.0835 18.9581 13.2418 18.8929 13.3592 18.7767L18.5258 13.6283C18.6618 13.493 18.7698 13.3321 18.8434 13.1549C18.9171 12.9777 18.955 12.7877 18.955 12.5958C18.955 12.404 18.9171 12.214 18.8434 12.0368C18.7698 11.8596 18.6618 11.6987 18.5258 11.5633H18.5308ZM12.6583 17.7083H11.4583V16.5083L14.8933 13.0575L16.1092 14.2733L12.6583 17.7083ZM17.6467 12.7425L16.995 13.3917L15.7758 12.1717L16.425 11.5192C16.4442 11.4998 16.4671 11.4845 16.4922 11.474C16.5174 11.4636 16.5444 11.4583 16.5717 11.4583C16.6269 11.4584 16.6799 11.4803 16.7192 11.5192L17.6475 12.4475C17.667 12.4666 17.6824 12.4895 17.6928 12.5147C17.7033 12.5398 17.7085 12.5669 17.7083 12.5942C17.7084 12.6217 17.703 12.6491 17.6924 12.6745C17.6818 12.7 17.6663 12.7231 17.6467 12.7425Z"/></symbol><symbol viewBox="0 0 25 25" id="facebook" xmlns="http://www.w3.org/2000/svg"><path d="M15.9918 4.65292H18V1.15492C17.6535 1.10725 16.462 1 15.0742 1C12.1787 1 10.1952 2.82142 10.1952 6.16908V9.25H7V13.1605H10.1952V23H14.1127V13.1614H17.1787L17.6654 9.25092H14.1118V6.55683C14.1127 5.42658 14.417 4.65292 15.9918 4.65292Z"/></symbol><symbol viewBox="0 0 25 25" id="linkedin" xmlns="http://www.w3.org/2000/svg"><path d="M4.65627 1.99768C6.09984 1.99886 7.29042 3.19117 7.28731 4.64192C7.28385 6.16101 6.02321 7.30594 4.6385 7.27295C3.23401 7.30138 1.99972 6.1283 2 4.63189C2 3.18058 3.19521 1.99657 4.65627 1.99768Z"/><path d="M6.19272 23.9395H3.09984C2.69844 23.9395 2.37305 23.6141 2.37305 23.2127V10.0183C2.37305 9.6169 2.69844 9.2915 3.09984 9.2915H6.19272C6.59412 9.2915 6.91952 9.6169 6.91952 10.0183V23.2127C6.91945 23.6141 6.59412 23.9395 6.19272 23.9395Z"/><path d="M23.9944 13.9241C23.9944 11.158 21.7521 8.91553 18.9859 8.91553H18.1926C16.6793 8.91553 15.3423 9.67061 14.5381 10.8247C14.4504 10.9505 14.3692 11.0812 14.2947 11.216C14.2689 11.2122 14.2536 11.2102 14.2533 11.2109V9.59128C14.2533 9.42468 14.1182 9.28954 13.9515 9.28954H10.0928C9.92615 9.28954 9.79102 9.42461 9.79102 9.59128V23.636C9.79102 23.8026 9.92602 23.9376 10.0926 23.9377L14.0355 23.9387C14.2021 23.9388 14.3373 23.8036 14.3373 23.6369V15.5229C14.3373 14.1204 15.4559 12.9558 16.8584 12.94C17.5744 12.9319 18.2234 13.2188 18.6912 13.6868C19.1528 14.1482 19.4383 14.7861 19.4383 15.4904V23.638C19.4383 23.8046 19.5733 23.9396 19.7399 23.9397L23.6925 23.9407C23.8591 23.9408 23.9943 23.8056 23.9943 23.6389V13.9241H23.9944Z"/></symbol><symbol viewBox="0 0 25 25" id="menu" xmlns="http://www.w3.org/2000/svg"><path fill-rule="evenodd" clip-rule="evenodd" d="M21.32 3.68H15.44V9.56H21.32V3.68ZM15.44 2C14.5122 2 13.76 2.75216 13.76 3.68V9.56C13.76 10.4878 14.5122 11.24 15.44 11.24H21.32C22.2478 11.24 23 10.4878 23 9.56V3.68C23 2.75216 22.2478 2 21.32 2H15.44Z"/><path fill-rule="evenodd" clip-rule="evenodd" d="M9.56 3.68H3.68V9.56H9.56V3.68ZM3.68 2C2.75216 2 2 2.75216 2 3.68V9.56C2 10.4878 2.75216 11.24 3.68 11.24H9.56C10.4878 11.24 11.24 10.4878 11.24 9.56V3.68C11.24 2.75216 10.4878 2 9.56 2H3.68Z"/><path fill-rule="evenodd" clip-rule="evenodd" d="M9.56 15.44H3.68V21.32H9.56V15.44ZM3.68 13.76C2.75216 13.76 2 14.5122 2 15.44V21.32C2 22.2478 2.75216 23 3.68 23H9.56C10.4878 23 11.24 22.2478 11.24 21.32V15.44C11.24 14.5122 10.4878 13.76 9.56 13.76H3.68Z"/><path fill-rule="evenodd" clip-rule="evenodd" d="M21.32 15.44H15.44V21.32H21.32V15.44ZM15.44 13.76C14.5122 13.76 13.76 14.5122 13.76 15.44V21.32C13.76 22.2478 14.5122 23 15.44 23H21.32C22.2478 23 23 22.2478 23 21.32V15.44C23 14.5122 22.2478 13.76 21.32 13.76H15.44Z"/></symbol><symbol viewBox="0 0 20 20" id="question" xmlns="http://www.w3.org/2000/svg"><path d="M14.167 15.3578H10.8336L7.12531 17.8245C6.57531 18.1911 5.83365 17.7995 5.83365 17.1329V15.3578C3.33366 15.3578 1.66699 13.6912 1.66699 11.1912V6.19114C1.66699 3.69114 3.33366 2.02448 5.83365 2.02448H14.167C16.667 2.02448 18.3336 3.69114 18.3336 6.19114V11.1912C18.3336 13.6912 16.667 15.3578 14.167 15.3578Z"/><path d="M9.99952 9.46588V9.29091C9.99952 8.72424 10.3495 8.42423 10.6995 8.18256C11.0412 7.94923 11.3828 7.64924 11.3828 7.09924C11.3828 6.33258 10.7662 5.71588 9.99952 5.71588C9.23285 5.71588 8.61621 6.33258 8.61621 7.09924"/><path d="M9.99592 11.4587H10.0034"/></symbol><symbol viewBox="0 0 25 25" id="sign-in" xmlns="http://www.w3.org/2000/svg"><path d="M12.6667 11.3228C12.5625 11.3124 12.4375 11.3124 12.3229 11.3228C9.84375 11.2395 7.875 9.20825 7.875 6.70825C7.875 4.15617 9.9375 2.08325 12.5 2.08325C15.0521 2.08325 17.125 4.15617 17.125 6.70825C17.1146 9.20825 15.1458 11.2395 12.6667 11.3228Z"/><path d="M7.45801 15.1667C4.93717 16.8542 4.93717 19.6042 7.45801 21.2813C10.3226 23.198 15.0205 23.198 17.8851 21.2813C20.4059 19.5938 20.4059 16.8438 17.8851 15.1667C15.0309 13.2605 10.333 13.2605 7.45801 15.1667Z"/></symbol><symbol viewBox="0 0 20 20" id="trash" xmlns="http://www.w3.org/2000/svg"><path fill-rule="evenodd" clip-rule="evenodd" d="M9.41302 2H10.587C10.956 1.99999 11.2743 1.99998 11.5365 2.02223C11.8133 2.04573 12.0885 2.09759 12.3534 2.23781C12.7485 2.44698 13.0698 2.78076 13.2711 3.19129C13.4061 3.46648 13.456 3.75246 13.4786 4.03998C13.4978 4.28418 13.4998 4.57525 13.5 4.90909H16.3C16.6866 4.90909 17 5.2347 17 5.63636C17 6.03803 16.6866 6.36364 16.3 6.36364H15.6V13.8119C15.6 14.3973 15.6 14.8805 15.5691 15.2741C15.5369 15.6829 15.4679 16.0586 15.2948 16.4116C15.0264 16.959 14.598 17.404 14.0712 17.6829C13.7314 17.8628 13.3697 17.9345 12.9763 17.9679C12.5974 18 12.1324 18 11.5689 18H8.43107C7.8676 18 7.40255 18 7.02372 17.9679C6.63025 17.9345 6.26856 17.8628 5.92883 17.6829C5.40197 17.404 4.97363 16.959 4.70518 16.4116C4.53208 16.0586 4.46308 15.6829 4.43094 15.2741C4.39998 14.8805 4.39999 14.3973 4.4 13.8119L4.4 6.36364H3.7C3.3134 6.36364 3 6.03803 3 5.63636C3 5.2347 3.3134 4.90909 3.7 4.90909H6.50002C6.50021 4.57525 6.50219 4.28418 6.5214 4.03998C6.54401 3.75246 6.59393 3.46648 6.72889 3.19129C6.93022 2.78076 7.25148 2.44698 7.64662 2.23781C7.91149 2.09759 8.18674 2.04573 8.46348 2.02223C8.72568 1.99998 9.04401 1.99999 9.41302 2ZM5.8 6.36364V13.7818C5.8 14.4048 5.80054 14.8283 5.82629 15.1556C5.85136 15.4745 5.89681 15.6375 5.95259 15.7513C6.08681 16.025 6.30099 16.2475 6.56441 16.3869C6.67389 16.4449 6.83084 16.4921 7.13773 16.5181C7.45279 16.5449 7.86039 16.5455 8.46 16.5455H11.54C12.1396 16.5455 12.5472 16.5449 12.8623 16.5181C13.1692 16.4921 13.3261 16.4449 13.4356 16.3869C13.699 16.2475 13.9132 16.025 14.0474 15.7513C14.1032 15.6375 14.1486 15.4745 14.1737 15.1556C14.1995 14.8283 14.2 14.4048 14.2 13.7818V6.36364H5.8ZM12.0999 4.90909H7.90005C7.90036 4.57083 7.9025 4.33962 7.91675 4.15843C7.93229 3.96085 7.95866 3.8876 7.9763 3.85164C8.04341 3.7148 8.15049 3.60354 8.28221 3.53381C8.31682 3.51549 8.38732 3.48809 8.57749 3.47195C8.77582 3.45511 9.03641 3.45455 9.44 3.45455H10.56C10.9636 3.45455 11.2242 3.45511 11.4225 3.47195C11.6127 3.48809 11.6832 3.51549 11.7178 3.53381C11.8495 3.60354 11.9566 3.7148 12.0237 3.85164C12.0413 3.8876 12.0677 3.96085 12.0833 4.15843C12.0975 4.33962 12.0996 4.57083 12.0999 4.90909ZM8.6 8.90909C8.9866 8.90909 9.3 9.2347 9.3 9.63636V13.2727C9.3 13.6744 8.9866 14 8.6 14C8.2134 14 7.9 13.6744 7.9 13.2727V9.63636C7.9 9.2347 8.2134 8.90909 8.6 8.90909ZM11.4 8.90909C11.7866 8.90909 12.1 9.2347 12.1 9.63636V13.2727C12.1 13.6744 11.7866 14 11.4 14C11.0134 14 10.7 13.6744 10.7 13.2727V9.63636C10.7 9.2347 11.0134 8.90909 11.4 8.90909Z"/></symbol><symbol viewBox="0 0 25 25" id="twitter" xmlns="http://www.w3.org/2000/svg"><path d="M0.00141765 19.7683C2.26478 21.1819 4.94961 22 7.82765 22C15.9131 22 22.4675 15.5446 22.4675 7.5829C22.4675 7.38411 22.4632 7.18679 22.4555 6.99006C22.7479 6.76342 24.5567 5.33575 25 4.41794C25 4.41794 23.5312 5.01908 22.0936 5.1607C22.0908 5.1607 22.0873 5.16136 22.0844 5.16136C22.0844 5.16136 22.0873 5.15996 22.0922 5.15651C22.2246 5.06935 24.0765 3.8279 24.3273 2.34871C24.3273 2.34871 23.2883 2.8948 21.8337 3.37256C21.5929 3.45134 21.3408 3.52879 21.0809 3.60059C20.1432 2.6151 18.8104 2 17.331 2C14.4933 2 12.1938 4.26383 12.1938 7.05627C12.1938 7.45032 12.2398 7.83386 12.3269 8.20212C11.9304 8.1861 5.89152 7.85268 1.7833 2.9533C1.7833 2.9533 -0.671993 6.25421 3.24646 9.64853C3.24646 9.64853 2.05531 9.60179 1.02765 8.99712C1.02765 8.99712 0.650202 12.9961 5.08774 14.0186C5.08774 14.0186 4.21456 14.3443 2.82155 14.112C2.82155 14.112 3.60055 17.3432 7.54311 17.6452C7.54311 17.6452 4.42553 20.4187 0 19.7679L0.00141765 19.7683Z"/></symbol><symbol viewBox="0 0 25 25" id="vk" xmlns="http://www.w3.org/2000/svg"><path d="M6.26382 6.44514C6.93384 8.12527 7.78299 9.70934 8.90138 11.1314C9.04972 11.3206 9.2367 11.4889 9.43368 11.6259C9.72139 11.8265 9.99285 11.756 10.1098 11.4218C10.2336 11.0711 10.3471 10.3603 10.3539 9.99208C10.3723 9.0298 10.3511 8.39916 10.3002 7.43807C10.2672 6.8225 10.0517 6.282 9.15996 6.11886C8.88458 6.06828 8.85899 5.83811 9.03592 5.6085C9.40423 5.13048 9.91733 5.0543 10.4737 5.02415C11.3755 4.97469 12.2806 5.01505 13.1835 5.02415C13.5513 5.02757 13.9212 5.05766 14.2834 5.13783C14.7559 5.24242 15.0088 5.57891 15.0867 6.04722C15.127 6.28879 15.1477 6.53714 15.1421 6.78158C15.1186 7.83193 15.0688 8.88173 15.057 9.93153C15.052 10.3436 15.0816 10.7659 15.1684 11.1672C15.2899 11.7265 15.6649 11.8669 16.0484 11.4628C16.5353 10.9496 16.9647 10.3721 17.3677 9.78552C18.0998 8.71865 18.6467 7.54782 19.1174 6.34061C19.3609 5.7177 19.5473 5.5824 20.2072 5.58072C21.4476 5.57786 22.688 5.57673 23.9285 5.58072C24.1484 5.58184 24.3785 5.6029 24.5861 5.66998C24.9231 5.77912 25.0569 6.05818 24.978 6.41231C24.7938 7.24216 24.3522 7.94749 23.8792 8.62559C23.1202 9.71345 22.3248 10.7752 21.5479 11.8505C21.4488 11.9875 21.3615 12.1336 21.2803 12.2819C20.9898 12.8151 21.0099 13.114 21.4336 13.5579C22.1081 14.2644 22.8302 14.9254 23.4835 15.6512C23.9582 16.1792 24.3975 16.7521 24.7737 17.3552C25.2495 18.1179 24.9556 18.8363 24.0667 18.9642C23.5076 19.0444 20.7761 18.9649 20.6349 18.9642C19.9006 18.9609 19.2569 18.7022 18.7385 18.1958C18.162 17.632 17.638 17.0136 17.0844 16.4253C16.9176 16.2479 16.7396 16.078 16.5476 15.9296C16.0948 15.5789 15.6503 15.6568 15.4388 16.1968C15.258 16.6606 15.1018 17.8786 15.0945 17.9826C15.0565 18.5266 14.7156 18.8733 14.1155 18.9068C12.3831 19.0023 10.7043 18.8062 9.14045 17.9554C7.81495 17.2346 6.75649 16.2156 5.83962 15.0271C4.38315 13.1394 3.23273 11.0644 2.18243 8.92851C2.12875 8.81932 1.06495 6.52076 1.03637 6.41219C0.941341 6.04865 1.02999 5.70138 1.33248 5.58184C1.52106 5.50734 5.02844 5.58159 5.08678 5.58477C5.64644 5.61554 6.02807 5.8553 6.26382 6.44514Z"/></symbol></svg>