<svg width="50" height="50" viewBox="0 0 50 50" fill="none" xmlns="http://www.w3.org/2000/svg">
<circle cx="40" cy="36" r="10" fill="#03AA79"/>
<path d="M38.6898 41.0832C38.3262 41.0832 38.0231 41.3787 38.0231 41.7499V43.9772C38.0231 44.4469 37.6444 44.8332 37.1671 44.8332H6.99284C6.52314 44.8332 6.13678 44.4545 6.13678 43.9772V3.03021C6.13678 2.56051 6.51557 2.17415 6.99284 2.17415H37.1747C37.6444 2.17415 38.0307 2.55293 38.0307 3.03021V16.909C38.0307 17.2726 38.3262 17.5757 38.6974 17.5757C39.0686 17.5757 39.3641 17.2802 39.3641 16.909V3.03021C39.3641 1.83324 38.3868 0.848389 37.1822 0.848389H6.99284C5.79587 0.848389 4.8186 1.82566 4.8186 3.03021V3.84839H4.00041C2.80344 3.84839 1.82617 4.82566 1.82617 6.03021V46.9696C1.82617 48.1666 2.80344 49.1514 4.00041 49.1514H34.1822C35.3792 49.1514 36.3641 48.1741 36.3641 46.9696V46.1514H37.1822C38.3792 46.1514 39.3641 45.1742 39.3641 43.9696V41.7423C39.3591 41.5665 39.2861 41.3994 39.1602 41.2764C39.0344 41.1534 38.8657 41.0842 38.6898 41.0832ZM35.0383 46.9696C35.0383 47.4393 34.6595 47.8257 34.1822 47.8257H4.00041C3.53072 47.8257 3.14435 47.4469 3.14435 46.9696V6.02263C3.14435 5.55293 3.52314 5.16657 4.00041 5.16657H4.8186V43.9696C4.8186 45.1666 5.79587 46.1514 7.00041 46.1514H35.0383V46.9696Z" fill="#2F3C44"/>
<path d="M48.1296 21.7121C48.0292 21.0368 47.7887 20.3901 47.4233 19.8134C47.058 19.2367 46.576 18.7428 46.0084 18.3636C44.1675 17.1363 41.6675 17.3409 40.0538 18.8484C39.2599 19.5826 38.7346 20.5614 38.5614 21.6288C38.1826 24.0151 37.3266 26.0075 36.0235 27.5606L35.5008 28.1818L32.872 25.9772C32.4189 25.5966 31.8331 25.4115 31.2436 25.4626C30.654 25.5138 30.1089 25.797 29.7281 26.25L28.2508 28.0151C28.1372 28.1515 28.0841 28.3257 28.0993 28.5C28.1144 28.6742 28.1978 28.8409 28.3341 28.9469L28.6296 29.1969L27.6599 30.3485C27.1902 30.9091 27.266 31.7424 27.8266 32.2121L36.3644 39.3863C36.6069 39.5909 36.9023 39.6969 37.2129 39.6969C37.2508 39.6969 37.2887 39.6969 37.3341 39.6894C37.6826 39.6591 38.0084 39.4924 38.2281 39.2197L39.1978 38.0681L39.4932 38.3181C39.6144 38.4242 39.7659 38.4772 39.9175 38.4772C40.1069 38.4772 40.2963 38.3939 40.425 38.2424L41.9099 36.4772C42.6978 35.5378 42.5766 34.1212 41.6372 33.3333L39.0084 31.1288L39.2129 30.8863C40.6372 29.1818 42.6069 27.856 45.0614 26.9242C45.8373 26.633 46.5239 26.1447 47.0538 25.5075C47.4894 24.9858 47.8103 24.3782 47.9957 23.7243C48.181 23.0704 48.2266 22.3848 48.1296 21.7121ZM38.1826 37.2197L37.2205 38.3712L28.6826 31.2121L29.6447 30.0606L30.7129 30.9545L38.1826 37.2197ZM40.8947 35.6212L39.8417 36.8788L29.6902 28.3712L30.7432 27.1136C30.8978 26.931 31.118 26.8167 31.3563 26.7955C31.5945 26.7742 31.8315 26.8477 32.0159 27L35.1523 29.6363L36.3947 30.6742L40.7735 34.3485C41.1599 34.6666 41.2129 35.2424 40.8947 35.6212ZM46.0311 24.6591C45.6447 25.1212 45.1447 25.4772 44.5841 25.6894C41.9175 26.6969 39.7584 28.1591 38.1902 30.0378L37.9856 30.2803L36.5235 29.053L37.0463 28.4318C38.5084 26.6894 39.4629 24.4772 39.8796 21.856C40.0008 21.0757 40.3796 20.3788 40.9629 19.8333C42.1296 18.7424 43.9478 18.5984 45.2811 19.4848C46.1296 20.053 46.675 20.9166 46.819 21.9166C46.9553 22.8863 46.675 23.8939 46.0311 24.6591ZM29.5008 11.4469C29.5008 7.3636 26.175 4.03784 22.0917 4.03784C18.0084 4.03784 14.6826 7.3636 14.6826 11.4469C14.6826 15.5303 18.0084 18.856 22.0917 18.856C26.175 18.856 29.5008 15.5378 29.5008 11.4469ZM22.0917 17.5378C18.7356 17.5378 16.0084 14.8106 16.0084 11.4545C16.0084 8.09845 18.7356 5.37118 22.0917 5.37118C25.4478 5.37118 28.175 8.09845 28.175 11.4545C28.175 14.8106 25.4478 17.5378 22.0917 17.5378Z" fill="#2F3C44"/>
<path d="M24.4323 8.97712L20.902 12.5074L19.7429 11.3483C19.4853 11.0908 19.0611 11.0908 18.8035 11.3483C18.5459 11.6059 18.5459 12.0301 18.8035 12.2877L20.4323 13.9165C20.5611 14.0453 20.7353 14.1135 20.902 14.1135C21.0687 14.1135 21.2429 14.0529 21.3717 13.9165L25.3717 9.91651C25.6293 9.65894 25.6293 9.23469 25.3717 8.97712C25.1141 8.71954 24.6899 8.71954 24.4323 8.97712ZM25.1596 22.1892H8.93229C8.56866 22.1892 8.26562 22.4847 8.26562 22.8559C8.26562 23.2271 8.56108 23.5226 8.93229 23.5226H25.1671C25.5308 23.5226 25.8338 23.2271 25.8338 22.8559C25.8338 22.4847 25.5308 22.1892 25.1596 22.1892ZM25.1596 25.9847H8.93229C8.56866 25.9847 8.26562 26.2801 8.26562 26.6514C8.26562 27.0226 8.56108 27.318 8.93229 27.318H25.1671C25.5308 27.318 25.8338 27.0226 25.8338 26.6514C25.8338 26.2801 25.5308 25.9847 25.1596 25.9847ZM25.1596 29.7877H8.93229C8.56866 29.7877 8.26562 30.0832 8.26562 30.4544C8.26562 30.8256 8.56108 31.1211 8.93229 31.1211H25.1671C25.5308 31.1211 25.8338 30.8256 25.8338 30.4544C25.8338 30.0832 25.5308 29.7877 25.1596 29.7877ZM25.8262 34.2574C25.8262 33.8938 25.5308 33.5908 25.1596 33.5908H8.93229C8.56866 33.5908 8.26562 33.8862 8.26562 34.2574C8.26562 34.6286 8.56108 34.9241 8.93229 34.9241H25.1671C25.5308 34.9165 25.8262 34.6211 25.8262 34.2574ZM15.3414 37.3938H8.93229C8.56866 37.3938 8.26562 37.6892 8.26562 38.0605C8.26562 38.4317 8.56108 38.7271 8.93229 38.7271H15.3414C15.705 38.7271 16.008 38.4317 16.008 38.0605C16.008 37.6892 15.705 37.3938 15.3414 37.3938ZM15.3414 41.1968H8.93229C8.56866 41.1968 8.26562 41.4923 8.26562 41.8635C8.26562 42.2347 8.56108 42.5301 8.93229 42.5301H15.3414C15.705 42.5301 16.008 42.2347 16.008 41.8635C16.008 41.4923 15.705 41.1968 15.3414 41.1968Z" fill="#2F3C44"/>
</svg>
