<svg width="50" height="50" viewBox="0 0 50 50" fill="none" xmlns="http://www.w3.org/2000/svg">
<circle cx="35" cy="18" r="10" fill="#03AA79"/>
<g clip-path="url(#clip0_0_111)">
<path d="M32.9698 41.0708H32.2371V38.8728C32.2371 36.8528 30.5938 35.2095 28.5738 35.2095H6.59396C4.57396 35.2095 2.93065 36.8528 2.93065 38.8728V41.0708H2.19799C0.985968 41.0708 0 42.0568 0 43.2688V44.3433C0 45.0167 0.547738 45.5644 1.2211 45.5644H33.9467C34.62 45.5644 35.1678 45.0167 35.1678 44.3433V43.2688C35.1678 42.0568 34.1818 41.0708 32.9698 41.0708ZM4.39597 39.6054H9.01429C9.41891 39.6054 9.74695 39.2775 9.74695 38.8728C9.74695 38.4681 9.41891 38.1401 9.01429 38.1401H4.52199C4.82443 37.2874 5.63876 36.6748 6.59396 36.6748H28.5738C29.5289 36.6748 30.3434 37.2874 30.6458 38.1401H12.4355C12.0309 38.1401 11.7029 38.4681 11.7029 38.8728C11.7029 39.2775 12.0309 39.6054 12.4355 39.6054H30.7718V41.0708H4.39597V39.6054ZM33.7025 44.0991H1.46532V43.2688C1.46532 42.8647 1.79395 42.5361 2.19799 42.5361H32.9698C33.3738 42.5361 33.7025 42.8647 33.7025 43.2688V44.0991Z" fill="#2F3C44"/>
<path d="M49.2986 39.3795L43.2285 33.849C43.1574 33.7841 43.0742 33.734 42.9837 33.7013C42.8932 33.6686 42.7971 33.6541 42.701 33.6586C42.6049 33.6631 42.5106 33.6864 42.4235 33.7274C42.3364 33.7683 42.2583 33.826 42.1935 33.8971C42.0626 34.0408 41.9942 34.2305 42.0032 34.4246C42.0122 34.6187 42.098 34.8013 42.2416 34.9321L43.814 36.3647L41.8917 38.287L33.3177 28.8765L34.4035 27.7907L39.7063 32.6221C39.8461 32.775 40.3796 32.9442 40.7414 32.5739C40.8722 32.4303 40.9407 32.2406 40.9316 32.0465C40.9226 31.8524 40.8368 31.6698 40.6932 31.5389L35.3379 26.6597C35.6325 25.9657 35.4986 25.1315 34.9336 24.5665L34.5166 24.1496C34.3401 23.9721 34.1302 23.8314 33.8989 23.7356C33.6677 23.6399 33.4198 23.5909 33.1695 23.5916C32.898 23.5916 32.6359 23.6496 32.3951 23.757L31.1755 22.5374C31.4857 21.8381 31.3564 20.9894 30.7839 20.4168L30.056 19.6889L30.23 19.515C30.4606 19.2844 30.5877 18.9777 30.5877 18.6515C30.5877 18.3253 30.4607 18.0186 30.2301 17.788L30.0561 17.614L31.1084 16.5617C31.4037 16.7836 31.7629 16.9037 32.1323 16.9038C32.57 16.9038 33.0078 16.7372 33.3411 16.404L33.3436 16.4014C34.2902 15.4548 34.3811 13.9716 33.6166 12.9217C34.0237 12.3208 34.2429 11.6128 34.2429 10.8709C34.2429 9.89139 33.8616 8.97058 33.1689 8.27807L31.6887 6.7977C31.6209 6.72848 31.5401 6.67338 31.4509 6.63559C31.3617 6.59781 31.2659 6.57809 31.169 6.57757C31.0722 6.57706 30.9761 6.59576 30.8865 6.63259C30.7969 6.66942 30.7155 6.72366 30.647 6.79215C30.5785 6.86065 30.5243 6.94205 30.4875 7.03165C30.4507 7.12125 30.4319 7.21726 30.4325 7.31413C30.433 7.411 30.4527 7.5068 30.4905 7.596C30.5283 7.6852 30.5834 7.76602 30.6526 7.83378L32.1329 9.31415C32.3379 9.51811 32.5005 9.76073 32.6112 10.0279C32.7219 10.2952 32.7785 10.5817 32.7777 10.8709C32.7777 11.2051 32.7013 11.5269 32.5611 11.8198L26.8591 6.11769C27.3094 5.90102 27.8253 5.8425 28.3312 5.96501C28.5201 6.01079 28.7194 5.97967 28.8853 5.87851C29.0512 5.77734 29.1701 5.61442 29.2159 5.42557C29.2617 5.23672 29.2306 5.03742 29.1294 4.87152C29.0282 4.70561 28.8653 4.58669 28.6765 4.54091C27.6535 4.29297 26.6051 4.48874 25.7585 5.06364C24.7087 4.29952 23.2255 4.39076 22.2766 5.33941C21.6684 5.94772 21.617 6.90291 22.1187 7.57217L21.0664 8.62447L20.8926 8.45059C20.6619 8.21994 20.3553 8.09285 20.0291 8.09285C19.7029 8.09285 19.3962 8.21994 19.1656 8.45049L13.9776 13.6384C13.747 13.8691 13.62 14.1757 13.62 14.5019C13.62 14.8281 13.747 15.1348 13.9776 15.3654L14.1515 15.5393L13.0992 16.5916C12.4987 16.1235 11.4681 16.1487 10.8641 16.7519C9.91708 17.6989 9.82643 19.1826 10.5916 20.2327C9.62968 21.6581 9.77827 23.6151 11.0386 24.8756L13.8051 27.642C14.52 28.3568 15.4589 28.7144 16.398 28.7144C17.1284 28.715 17.8423 28.4972 18.448 28.0891C18.9068 28.4228 19.4598 28.6023 20.0271 28.6016C20.3812 28.602 20.7319 28.5325 21.059 28.3969C21.3862 28.2614 21.6833 28.0626 21.9333 27.8118L21.9338 27.8112C22.5394 27.2029 22.5898 26.2496 22.0888 25.5815L23.1411 24.5292L23.315 24.7031C23.5457 24.9337 23.8523 25.0608 24.1786 25.0608C24.5049 25.0608 24.8115 24.9337 25.0421 24.7032L25.216 24.5292L25.9439 25.257C26.1204 25.4344 26.3303 25.5751 26.5615 25.6709C26.7927 25.7667 27.0407 25.8157 27.2909 25.815C27.5625 25.815 27.8247 25.7569 28.0655 25.6496L29.2851 26.8691C28.9749 27.5685 29.1041 28.4172 29.6767 28.9897L30.0937 29.4068C30.4651 29.7782 30.9528 29.9638 31.4407 29.9638C31.6951 29.9638 31.9491 29.912 32.187 29.8111L44.9067 43.7718C45.6541 44.6348 47.1907 44.7521 48.0883 43.8457L49.3727 42.5613C50.1768 41.7863 50.2674 40.239 49.2986 39.3795ZM44.8984 37.3526L45.9854 38.343L43.87 40.4583L42.8797 39.3713L44.8984 37.3526ZM30.2303 25.7419L29.1916 24.7032L30.2302 23.6646L31.2689 24.7033L30.2303 25.7419ZM23.3152 6.37315C23.7915 5.89711 24.5661 5.89711 25.0422 6.37315L32.3075 13.6384C32.7361 14.0495 32.7792 14.8855 32.305 15.3679C32.2592 15.4136 32.197 15.4393 32.1323 15.4393C32.0675 15.4393 32.0054 15.4136 31.9596 15.3679L23.3127 6.72102C23.2174 6.62587 23.2174 6.47093 23.3152 6.37315ZM23.1412 8.62203L30.0587 15.5393L29.0199 16.5781L22.1026 9.66075L23.1412 8.62203ZM14.8413 26.6058L12.0748 23.8393C11.8697 23.6354 11.7071 23.3928 11.5965 23.1255C11.4858 22.8583 11.4292 22.5718 11.43 22.2826C11.43 21.9484 11.5064 21.6266 11.6466 21.3337L17.3462 27.0332C16.5279 27.4233 15.5178 27.2824 14.8413 26.6058ZM20.895 26.7778L20.8925 26.7803C20.4163 27.2565 19.6417 27.2567 19.1655 26.7803L14.1533 21.7681L11.9003 19.5151C11.4255 19.0403 11.4241 18.2685 11.8963 17.792L11.9028 17.7857C11.9486 17.7399 12.0107 17.7142 12.0755 17.7142C12.1403 17.7142 12.2024 17.7399 12.2482 17.7857L20.8951 26.4326C20.9408 26.4784 20.9665 26.5405 20.9665 26.6052C20.9664 26.6699 20.9407 26.732 20.895 26.7778ZM21.9965 21.312C21.8583 21.1785 21.6732 21.1045 21.481 21.1061C21.2888 21.1078 21.105 21.1849 20.9691 21.3208C20.8332 21.4567 20.7561 21.6405 20.7545 21.8327C20.7529 22.0249 20.8269 22.21 20.9605 22.3482L22.1052 23.4929L21.0664 24.5316L14.149 17.6142L15.1878 16.5756L18.5453 19.9332C18.6835 20.0667 18.8686 20.1407 19.0608 20.139C19.253 20.1374 19.4369 20.0603 19.5727 19.9244C19.7086 19.7885 19.7857 19.6047 19.7873 19.4125C19.7889 19.2203 19.715 19.0352 19.5814 18.897L15.707 15.0228L15.7058 15.0215L15.7045 15.0203L15.1864 14.5023L20.029 9.65977L29.0212 18.652L24.1787 23.4945L21.9965 21.312ZM26.9801 24.2207L26.2522 23.4929L29.0198 20.7252L29.7477 21.4531C29.83 21.5356 29.8762 21.6474 29.8762 21.7639C29.8762 21.8804 29.83 21.9922 29.7477 22.0747L27.6016 24.2208C27.5609 24.2617 27.5124 24.2942 27.4591 24.3163C27.4057 24.3384 27.3485 24.3496 27.2907 24.3495C27.1735 24.3495 27.0631 24.3038 26.9801 24.2207ZM31.1298 28.3703L30.7128 27.9534C30.6304 27.8709 30.5842 27.7591 30.5842 27.6425C30.5842 27.526 30.6304 27.4142 30.7128 27.3317L32.8589 25.1856C32.9419 25.1025 33.0522 25.0569 33.1696 25.0569C33.2871 25.0569 33.3974 25.1026 33.4805 25.1857L33.8975 25.6026C33.9798 25.6851 34.0261 25.7969 34.0261 25.9134C34.0261 26.03 33.9798 26.1418 33.8975 26.2243L31.7515 28.3703C31.6685 28.4534 31.5581 28.4991 31.4406 28.4991C31.3232 28.4991 31.2128 28.4534 31.1298 28.3703ZM48.3363 41.5249L47.0519 42.8093C46.8274 43.0237 46.3558 43.1457 45.9896 42.7847L44.8579 41.5426L47.0697 39.3309L48.3117 40.4626C48.5372 40.6772 48.6798 41.1419 48.3363 41.5249Z" fill="#2F3C44"/>
</g>
<defs>
<clipPath id="clip0_0_111">
<rect width="50" height="50" fill="white"/>
</clipPath>
</defs>
</svg>
