<svg width="50" height="50" viewBox="0 0 50 50" fill="none" xmlns="http://www.w3.org/2000/svg">
<circle cx="10" cy="18" r="10" fill="#03AA79"/>
<path d="M43.7967 11.9688L43.9138 11.1094C43.9897 10.5463 43.8402 9.97601 43.4979 9.5225C43.1556 9.06899 42.6481 8.76893 42.0857 8.68755L9.59353 4.12505C9.31438 4.08538 9.03014 4.10125 8.75714 4.17175C8.48414 4.24225 8.22776 4.36599 8.00272 4.53586C7.77768 4.70573 7.58841 4.91838 7.44579 5.16161C7.30317 5.40484 7.21001 5.67384 7.17165 5.95317L4.12478 27.6172C4.04892 28.1804 4.19841 28.7507 4.54073 29.2042C4.88306 29.6577 5.39055 29.9577 5.9529 30.0391L8.78884 30.4375V35.9844C8.78884 36.5542 9.01519 37.1007 9.4181 37.5036C9.82101 37.9065 10.3675 38.1329 10.9373 38.1329H26.2263C26.7614 40.4962 28.1403 42.5831 30.1043 44.0023C32.0684 45.4215 34.4827 46.0754 36.8945 45.8415C39.3063 45.6076 41.5499 44.502 43.2047 42.7318C44.8594 40.9617 45.8116 38.6487 45.8826 36.2266V14.1094C45.8828 13.551 45.6648 13.0147 45.2751 12.6148C44.8854 12.2149 44.3549 11.9831 43.7967 11.9688ZM9.96071 17.8204H44.7263V19.7735H9.96071V17.8204ZM44.7263 14.1094V16.6485H9.96071V14.1094C9.96071 13.9812 9.98597 13.8542 10.0351 13.7357C10.0841 13.6172 10.1561 13.5096 10.2467 13.4189C10.3374 13.3282 10.4451 13.2563 10.5636 13.2072C10.682 13.1581 10.809 13.1329 10.9373 13.1329H43.7498C44.0088 13.1329 44.2572 13.2357 44.4403 13.4189C44.6235 13.602 44.7263 13.8504 44.7263 14.1094ZM6.11696 28.9063C5.86016 28.8676 5.62877 28.7297 5.47248 28.5223C5.31619 28.3149 5.24745 28.0545 5.28103 27.7969L8.3279 6.13286C8.36845 5.87749 8.50709 5.64803 8.7143 5.49335C8.92151 5.33867 9.18091 5.271 9.43728 5.30474L41.9217 9.8438C42.1754 9.88256 42.4043 10.0182 42.5602 10.2221C42.716 10.4261 42.7868 10.6825 42.7576 10.9375L42.617 11.9454H10.9373C10.3675 11.9454 9.82101 12.1717 9.4181 12.5746C9.01519 12.9775 8.78884 13.524 8.78884 14.0938V29.2579L6.11696 28.9063ZM35.9373 44.7266C34.199 44.7266 32.4997 44.2111 31.0543 43.2454C29.609 42.2796 28.4825 40.907 27.8172 39.301C27.152 37.695 26.978 35.9278 27.3171 34.2229C27.6562 32.518 28.4933 30.9519 29.7225 29.7227C30.9516 28.4936 32.5177 27.6565 34.2226 27.3174C35.9275 26.9782 37.6947 27.1523 39.3007 27.8175C40.9067 28.4827 42.2794 29.6093 43.2451 31.0546C44.2109 32.5 44.7263 34.1992 44.7263 35.9375C44.7222 38.2673 43.7949 40.5004 42.1475 42.1478C40.5001 43.7952 38.267 44.7225 35.9373 44.7266ZM35.9373 25.9766C33.2961 25.9787 30.7637 27.0288 28.8961 28.8964C27.0285 30.764 25.9784 33.2964 25.9763 35.9375C25.9749 36.2795 25.9931 36.6212 26.031 36.961H10.9373C10.6783 36.961 10.4299 36.8581 10.2467 36.675C10.0636 36.4918 9.96071 36.2434 9.96071 35.9844V20.9454H44.7263V31.25C43.8768 29.6571 42.6102 28.325 41.0621 27.3961C39.5141 26.4673 37.7426 25.9766 35.9373 25.9766Z" fill="#2F3C44"/>
<path d="M38.8281 30.1875C38.7171 30.084 38.5701 30.0277 38.4183 30.0304C38.2665 30.033 38.1217 30.0945 38.0144 30.2019C37.907 30.3092 37.8455 30.4541 37.8428 30.6059C37.8402 30.7577 37.8965 30.9046 38 31.0157L39.2109 32.2266H31.25C31.0946 32.2266 30.9456 32.2883 30.8357 32.3982C30.7258 32.5081 30.6641 32.6571 30.6641 32.8125C30.6641 32.9679 30.7258 33.117 30.8357 33.2269C30.9456 33.3367 31.0946 33.3985 31.25 33.3985H39.2109L38 34.6094C37.8903 34.7193 37.8286 34.8682 37.8286 35.0235C37.8286 35.1787 37.8903 35.3277 38 35.4375C38.0541 35.4923 38.1186 35.5357 38.1897 35.5652C38.2608 35.5948 38.3371 35.6098 38.4141 35.6094C38.4911 35.6102 38.5675 35.5954 38.6387 35.5659C38.7099 35.5363 38.7743 35.4927 38.8281 35.4375L41.0391 33.2266C41.1488 33.1167 41.2104 32.9678 41.2104 32.8125C41.2104 32.6573 41.1488 32.5083 41.0391 32.3985L38.8281 30.1875ZM40.625 38.4766H32.6641L33.875 37.2657C33.9785 37.1546 34.0348 37.0077 34.0322 36.8559C34.0295 36.7041 33.968 36.5592 33.8606 36.4519C33.7533 36.3445 33.6085 36.283 33.4567 36.2804C33.3049 36.2777 33.1579 36.334 33.0469 36.4375L30.8359 38.6485C30.7262 38.7583 30.6646 38.9073 30.6646 39.0625C30.6646 39.2178 30.7262 39.3667 30.8359 39.4766L33.0469 41.6875C33.1007 41.7427 33.1651 41.7863 33.2363 41.8159C33.3075 41.8454 33.3839 41.8602 33.4609 41.8594C33.5379 41.8598 33.6142 41.8448 33.6853 41.8152C33.7564 41.7857 33.8209 41.7423 33.875 41.6875C33.9847 41.5777 34.0464 41.4287 34.0464 41.2735C34.0464 41.1182 33.9847 40.9693 33.875 40.8594L32.6641 39.6485H40.625C40.7804 39.6485 40.9294 39.5867 41.0393 39.4769C41.1492 39.367 41.2109 39.2179 41.2109 39.0625C41.2109 38.9071 41.1492 38.7581 41.0393 38.6482C40.9294 38.5383 40.7804 38.4766 40.625 38.4766Z" fill="#2F3C44"/>
</svg>
